# Blender v2.91.0 OBJ File: ''
# www.blender.org
mtllib 1fence.mtl
o Sketchup
v 6.301926 19.171886 0.000000
v 7.941744 0.690050 0.000000
v 6.301926 0.690050 0.000000
v 7.941744 2.910966 0.000000
v 7.941744 4.062168 0.000000
v 40.287743 2.910966 0.000000
v 7.941744 6.247986 0.000000
v 7.941744 7.723899 0.000000
v 40.345116 6.247986 0.000000
v 7.941744 9.343540 0.000000
v 7.941744 10.776857 0.000000
v 40.345116 9.343540 0.000000
v 7.941744 12.289995 0.000000
v 7.978601 13.628450 0.000000
v 40.345116 12.289995 0.000000
v 7.978601 15.215866 0.000000
v 7.978601 16.400169 0.000000
v 40.021202 15.215866 0.000000
v 7.978601 17.786028 0.000000
v 40.021202 17.786028 0.000000
v 40.021202 19.171886 0.000000
v 42.060989 0.690050 0.000000
v 40.345116 0.690050 0.000000
v 42.060989 19.171886 0.000000
v 40.345116 7.723899 0.000000
v 40.345116 10.776857 0.000000
v 40.021202 13.628450 0.000000
v 40.021202 16.400169 0.000000
v 40.287743 4.062168 0.000000
v 40.287743 4.062168 1.862684
v 7.941744 2.910966 1.862684
v 40.287743 2.910966 1.862684
v 40.021202 19.171886 1.862684
v 7.978601 17.786028 1.862684
v 40.021202 17.786028 1.862684
v 6.301926 0.690050 1.862684
v 7.941744 0.690050 1.862684
v 6.301926 19.171886 1.862684
v 7.941744 4.062168 1.862684
v 7.941744 6.247986 1.862684
v 7.941744 7.723899 1.862684
v 40.345116 7.723899 1.862684
v 7.941744 9.343540 1.862684
v 7.941744 10.776857 1.862684
v 40.345116 10.776857 1.862684
v 7.941744 12.289995 1.862684
v 7.978601 13.628450 1.862684
v 40.021202 13.628450 1.862684
v 7.978601 15.215866 1.862684
v 7.978601 16.400169 1.862684
v 40.021202 16.400169 1.862684
v 42.060989 19.171886 1.862684
v 40.345116 0.690050 1.862684
v 42.060989 0.690050 1.862684
v 40.345116 6.247986 1.862684
v 40.345116 9.343540 1.862684
v 40.345116 12.289995 1.862684
v 40.021202 15.215866 1.862684
vt 0.014911 0.917082
vt 0.011337 0.994614
vt 0.013227 0.999985
vt 0.009594 0.982812
vt 0.009167 0.976857
vt 0.010788 0.981367
vt 0.009567 0.964155
vt 0.009813 0.957529
vt 0.011560 0.960872
vt 0.010125 0.947436
vt 0.010094 0.940860
vt 0.012122 0.944515
vt 0.009425 0.930689
vt 0.013937 0.925852
vt 0.001651 0.103596
vt 0.013251 0.923428
vt 0.013318 0.921659
vt 0.013334 0.922904
vt 0.013897 0.919608
vt 0.012443 0.927558
vt 0.012409 0.927521
vt 0.003910 0.045855
vt 0.002077 0.005651
vt 0.005064 0.008561
vt 0.005072 0.130368
vt 0.001171 0.059496
vt 0.011560 0.960879
vt 0.000015 0.075156
vt 0.000020 0.089479
vt 0.012121 0.944510
vt 0.006794 0.113270
vt 0.004773 0.117793
vt 0.004101 0.121544
vt 0.013332 0.922898
vt 0.004228 0.125155
vt 0.004695 0.127139
vt 0.010777 0.981364
vt 0.010845 0.981367
vt 0.012074 0.982823
vt 0.010833 0.981367
vt 0.012470 0.927547
vt 0.013451 0.919618
vt 0.012422 0.927537
vt 0.014536 0.994608
vt 0.012873 0.991586
vt 0.013022 0.917065
vt 0.012881 0.976966
vt 0.013380 0.964283
vt 0.013574 0.957654
vt 0.011610 0.960880
vt 0.013938 0.947555
vt 0.014394 0.940972
vt 0.012164 0.944511
vt 0.015679 0.930783
vt 0.011742 0.925992
vt 0.006291 0.113576
vt 0.013155 0.923534
vt 0.013499 0.921734
vt 0.013351 0.922900
vt 0.004047 0.130589
vt 0.008973 0.005488
vt 0.005225 0.000015
vt 0.014059 0.046292
vt 0.015679 0.060092
vt 0.011610 0.960873
vt 0.015559 0.075775
vt 0.014429 0.090019
vt 0.012162 0.944516
vt 0.011726 0.103895
vt 0.007203 0.118222
vt 0.007042 0.121963
vt 0.013348 0.922906
vt 0.006122 0.125452
vt 0.005206 0.127292
vt 0.022391 0.005340
vt 0.015708 0.010482
vt 0.015708 0.005340
vt 0.022391 0.010482
vt 0.022391 0.000015
vt 0.015708 0.005310
vt 0.015708 0.000015
vt 0.022391 0.005310
vt 0.015708 0.019763
vt 0.022391 0.015514
vt 0.022391 0.019763
vt 0.015708 0.015514
vt 0.022391 0.010512
vt 0.015708 0.015484
vt 0.015708 0.010512
vt 0.022391 0.015484
vn 0.0000 0.0000 -1.0000
vn 0.0000 0.0000 1.0000
vn 1.0000 0.0000 0.0000
vn -1.0000 0.0000 0.0000
vn 0.0000 -1.0000 0.0000
vn 0.0000 1.0000 0.0000
usemtl Material
s off
f 1/1/1 2/2/1 3/3/1
f 2/2/1 1/1/1 4/4/1
f 4/4/1 1/1/1 5/5/1
f 4/4/1 5/5/1 6/6/1
f 5/5/1 1/1/1 7/7/1
f 7/7/1 1/1/1 8/8/1
f 7/7/1 8/8/1 9/9/1
f 8/8/1 1/1/1 10/10/1
f 10/10/1 1/1/1 11/11/1
f 10/10/1 11/11/1 12/12/1
f 11/11/1 1/1/1 13/13/1
f 13/13/1 1/1/1 14/14/1
f 13/13/1 14/14/1 15/15/1
f 14/14/1 1/1/1 16/16/1
f 16/16/1 1/1/1 17/17/1
f 16/16/1 17/17/1 18/18/1
f 17/17/1 1/1/1 19/19/1
f 19/19/1 1/1/1 20/20/1
f 20/20/1 1/1/1 21/21/1
f 9/22/1 22/23/1 23/24/1
f 22/23/1 9/22/1 24/25/1
f 24/25/1 9/22/1 25/26/1
f 25/27/1 9/9/1 8/8/1
f 24/25/1 25/26/1 12/28/1
f 24/25/1 12/28/1 26/29/1
f 26/30/1 12/12/1 11/11/1
f 24/25/1 26/29/1 15/15/1
f 24/25/1 15/15/1 27/31/1
f 27/31/1 15/15/1 14/14/1
f 24/25/1 27/31/1 18/32/1
f 24/25/1 18/32/1 28/33/1
f 28/34/1 18/18/1 17/17/1
f 24/25/1 28/33/1 20/35/1
f 24/25/1 20/35/1 21/36/1
f 29/37/1 6/6/1 5/5/1
f 30/38/2 31/39/2 32/40/2
f 33/41/2 34/42/2 35/43/2
f 31/39/2 36/44/2 37/45/2
f 36/44/2 31/39/2 38/46/2
f 38/46/2 31/39/2 39/47/2
f 39/47/2 31/39/2 30/38/2
f 38/46/2 39/47/2 40/48/2
f 38/46/2 40/48/2 41/49/2
f 41/49/2 40/48/2 42/50/2
f 38/46/2 41/49/2 43/51/2
f 38/46/2 43/51/2 44/52/2
f 44/52/2 43/51/2 45/53/2
f 38/46/2 44/52/2 46/54/2
f 38/46/2 46/54/2 47/55/2
f 47/55/2 46/54/2 48/56/2
f 38/46/2 47/55/2 49/57/2
f 38/46/2 49/57/2 50/58/2
f 50/58/2 49/57/2 51/59/2
f 38/46/2 50/58/2 34/42/2
f 38/46/2 34/42/2 33/41/2
f 52/60/2 53/61/2 54/62/2
f 53/61/2 52/60/2 55/63/2
f 55/63/2 52/60/2 42/64/2
f 55/65/2 42/50/2 40/48/2
f 42/64/2 52/60/2 56/66/2
f 56/66/2 52/60/2 45/67/2
f 56/68/2 45/53/2 43/51/2
f 45/67/2 52/60/2 57/69/2
f 57/69/2 52/60/2 48/56/2
f 57/69/2 48/56/2 46/54/2
f 48/56/2 52/60/2 58/70/2
f 58/70/2 52/60/2 51/71/2
f 58/72/2 51/59/2 49/57/2
f 51/71/2 52/60/2 35/73/2
f 35/73/2 52/60/2 33/74/2
f 22/23/3 52/60/3 54/62/3
f 52/60/3 22/23/3 24/25/3
f 1/1/4 36/44/4 38/46/4
f 36/44/4 1/1/4 3/3/4
f 2/2/5 36/44/5 3/3/5
f 36/44/5 2/2/5 37/45/5
f 22/23/5 53/61/5 23/24/5
f 53/61/5 22/23/5 54/62/5
f 15/15/5 46/54/5 13/13/5
f 46/54/5 15/15/5 57/69/5
f 15/15/4 45/67/4 57/69/4
f 45/67/4 15/15/4 26/29/4
f 11/11/3 46/54/3 44/52/3
f 46/54/3 11/11/3 13/13/3
f 8/8/3 43/51/3 41/49/3
f 43/51/3 8/8/3 10/10/3
f 5/5/3 40/48/3 39/47/3
f 40/48/3 5/5/3 7/7/3
f 2/2/3 31/39/3 37/45/3
f 31/39/3 2/2/3 4/4/3
f 12/75/3 45/76/3 56/77/3
f 45/76/3 12/75/3 26/78/3
f 12/12/5 43/51/5 10/10/5
f 43/51/5 12/12/5 56/68/5
f 45/53/6 11/11/6 44/52/6
f 11/11/6 45/53/6 26/30/6
f 9/22/4 53/61/4 55/63/4
f 53/61/4 9/22/4 23/24/4
f 9/79/3 42/80/3 55/81/3
f 42/80/3 9/79/3 25/82/3
f 42/50/6 8/8/6 41/49/6
f 8/8/6 42/50/6 25/27/6
f 9/9/5 40/48/5 7/7/5
f 40/48/5 9/9/5 55/65/5
f 12/28/4 42/64/4 56/66/4
f 42/64/4 12/28/4 25/26/4
f 6/6/3 30/38/3 32/40/3
f 30/38/3 6/6/3 29/37/3
f 6/6/5 31/39/5 4/4/5
f 31/39/5 6/6/5 32/40/5
f 30/38/6 5/5/6 39/47/6
f 5/5/6 30/38/6 29/37/6
f 48/56/6 14/14/6 47/55/6
f 14/14/6 48/56/6 27/31/6
f 33/41/6 1/1/6 38/46/6
f 1/1/6 33/41/6 21/21/6
f 14/14/3 49/57/3 47/55/3
f 49/57/3 14/14/3 16/16/3
f 52/60/6 21/36/6 33/74/6
f 21/36/6 52/60/6 24/25/6
f 17/17/3 34/42/3 50/58/3
f 34/42/3 17/17/3 19/19/3
f 18/83/3 51/84/3 58/85/3
f 51/84/3 18/83/3 28/86/3
f 51/59/6 17/17/6 50/58/6
f 17/17/6 51/59/6 28/34/6
f 18/18/5 49/57/5 16/16/5
f 49/57/5 18/18/5 58/72/5
f 18/32/4 48/56/4 58/70/4
f 48/56/4 18/32/4 27/31/4
f 20/87/3 33/88/3 35/89/3
f 33/88/3 20/87/3 21/90/3
f 20/20/5 34/42/5 19/19/5
f 34/42/5 20/20/5 35/43/5
f 20/35/4 51/71/4 35/73/4
f 51/71/4 20/35/4 28/33/4
