# Blender v2.91.0 OBJ File: ''
# www.blender.org
mtllib bar1.mtl
o Cube
v 1.000000 1.524125 -4.055801
v 1.000000 -1.524125 -4.055801
v 1.000000 1.524125 4.055801
v 1.000000 -1.524125 4.055801
v -1.000000 1.403519 -3.734861
v -1.000000 -1.403519 -3.734861
v -1.000000 1.412825 3.759623
v -1.000000 -1.412825 3.759623
v 3.306879 -1.418008 -5.577225
v -1.000000 -1.524125 -5.513003
v 3.306879 1.630242 -5.577225
v -1.000000 -1.524125 5.513003
v -1.000000 1.524125 5.513003
v 3.519607 1.507228 5.387054
v 3.519607 -1.541022 5.387054
v -1.000000 1.524125 -5.513003
v -1.000000 -1.421799 -0.272296
v 1.000000 1.524125 0.000000
v -1.000000 1.421799 -0.272296
v 1.000000 -1.524125 0.000000
v -1.000000 1.403519 -2.348841
v 1.000000 -1.524125 -2.027901
v 1.000000 1.524125 -2.027901
v -1.000000 -1.403519 -2.348841
v -1.000000 -1.431688 1.781920
v 1.000000 1.524125 2.027901
v 1.000000 -1.524125 2.027901
v -1.000000 1.431688 1.781920
v -1.000000 1.524125 -4.055801
v -1.000000 -1.524125 -4.055801
v -1.000000 1.421799 -1.755604
v -1.000000 -1.421799 -1.755604
v -1.000000 1.524125 -4.055801
v -1.000000 -1.524125 -4.055801
v -1.000000 1.524125 -2.027901
v -1.000000 -1.524125 -2.027901
v -1.000000 1.431688 0.245981
v -1.000000 1.524125 -2.027901
v -1.000000 -1.431688 0.245981
v -1.000000 -1.524125 -2.027901
v -1.000000 1.524125 0.000000
v -1.000000 -1.524125 0.000000
v -1.000000 1.412825 2.324079
v -1.000000 -1.412825 2.324079
v -1.000000 -1.524125 2.027901
v -1.000000 -1.524125 4.055801
v -1.000000 1.524125 4.055801
v -1.000000 1.524125 2.027901
v -0.780905 1.403519 -3.734861
v -0.780905 -1.403519 -3.734861
v -0.780905 1.403519 -2.348841
v -0.780905 -1.403519 -2.348841
v -0.780905 1.421799 -0.272296
v -0.780905 1.421799 -1.755604
v -0.780905 -1.421799 -0.272296
v -0.780905 -1.421799 -1.755604
v -0.780905 1.431688 0.245981
v -0.780905 -1.431688 0.245981
v -0.780905 1.431688 1.781920
v -0.780905 -1.431688 1.781920
v -0.780905 -1.412825 2.324079
v -0.780905 -1.412825 3.759623
v -0.780905 1.412825 3.759623
v -0.780905 1.412825 2.324079
vt 0.615109 0.240109
vt 0.615109 0.197391
vt 0.615109 0.197391
vt 0.625000 0.500000
vt 0.875000 0.500000
vt 0.875000 0.500000
vt 0.375000 0.750000
vt 0.125000 0.687500
vt 0.375000 0.687500
vt 0.625000 0.750000
vt 0.625000 0.687500
vt 0.625000 0.250000
vt 0.375000 0.250000
vt 0.625000 0.250000
vt 0.375000 0.500000
vt 0.125000 0.500000
vt 0.375000 0.500000
vt 0.625000 0.750000
vt 0.375000 0.750000
vt 0.625000 0.500000
vt 0.125000 0.750000
vt 0.125000 0.750000
vt 0.875000 0.750000
vt 0.375000 0.250000
vt 0.875000 0.625000
vt 0.625000 0.562500
vt 0.875000 0.562500
vt 0.375000 0.000000
vt 0.625000 0.000000
vt 0.375000 0.000000
vt 0.375000 1.000000
vt 0.375000 0.625000
vt 0.625000 0.625000
vt 0.616608 0.179108
vt 0.616608 0.133392
vt 0.616608 0.133392
vt 0.875000 0.687500
vt 0.384891 0.240109
vt 0.615109 0.240109
vt 0.125000 0.500000
vt 0.125000 0.562500
vt 0.375000 0.562500
vt 0.875000 0.750000
vt 0.384128 0.053372
vt 0.615872 0.053372
vt 0.615872 0.053372
vt 0.125000 0.625000
vt nan nan
vt nan nan
vt nan nan
vt 0.625000 0.250000
vt 0.625000 0.187500
vt 0.375000 0.187500
vt 0.375000 0.187500
vt nan nan
vt nan nan
vt nan nan
vt 0.375000 0.250000
vt 0.384891 0.197391
vt 0.625000 0.187500
vt 0.383392 0.133392
vt 0.625000 0.125000
vt 0.383392 0.179108
vt 0.375000 0.125000
vt 0.617419 0.117419
vt 0.382581 0.117419
vt 0.617419 0.070081
vt 0.375000 0.062500
vt 0.382581 0.070081
vt 0.625000 0.062500
vt 0.384128 0.009128
vt 0.615872 0.009128
vt 0.384891 0.197391
vt 0.384128 0.009128
vt 0.615872 0.009128
vt 0.616608 0.179108
vt 0.383392 0.133392
vt 0.617419 0.117419
vt 0.382581 0.070081
vt 0.617419 0.070081
vt 0.384128 0.053372
vt 0.384891 0.240109
vt 0.383392 0.179108
vt 0.382581 0.117419
vt 0.625000 0.000000
vt 0.625000 1.000000
vt nan nan
vt nan nan
vt nan nan
vt nan nan
vt nan nan
vt nan nan
vn 0.0000 -1.0000 0.0000
vn 0.0000 1.0000 0.0000
vn 1.0000 0.0000 0.0000
vn -1.0000 0.0000 0.0000
vn 0.0241 -0.9992 -0.0331
vn 0.4672 0.0000 -0.8842
vn 0.5506 0.0000 0.8348
vn 0.0039 1.0000 0.0053
vn -0.0149 0.0000 -0.9999
vn 0.0279 0.0000 0.9996
vn -0.0241 0.9992 0.0331
vn 0.0000 0.0000 1.0000
vn -0.0039 -1.0000 -0.0053
vn 0.0000 0.0000 -1.0000
usemtl Material
s off
f 5/1/1 51/2/1 21/3/1
f 1/4/2 16/5/2 29/6/2
f 4/7/1 45/8/1 27/9/1
f 3/10/3 27/9/3 26/11/3
f 16/12/4 30/13/4 29/14/4
f 2/15/5 10/16/5 9/17/5
f 4/7/6 14/18/6 15/19/6
f 1/4/7 9/17/7 11/20/7
f 4/7/1 12/21/1 46/22/1
f 3/10/8 13/23/8 14/18/8
f 16/12/9 9/17/9 10/24/9
f 41/25/2 23/26/2 38/27/2
f 12/28/4 47/29/4 46/30/4
f 14/18/10 12/31/10 15/19/10
f 26/11/3 20/32/3 18/33/3
f 1/4/11 11/20/11 16/5/11
f 31/34/1 53/35/1 19/36/1
f 48/37/2 18/33/2 41/25/2
f 6/38/12 49/39/12 5/1/12
f 2/15/1 30/40/1 10/16/1
f 23/26/3 2/15/3 1/4/3
f 20/32/1 40/41/1 22/42/1
f 4/7/13 15/19/13 12/21/13
f 3/10/2 47/43/2 13/23/2
f 44/44/12 64/45/12 43/46/12
f 18/33/3 22/42/3 23/26/3
f 38/27/2 1/4/2 29/6/2
f 22/42/1 30/40/1 2/15/1
f 47/43/2 26/11/2 48/37/2
f 27/9/1 42/47/1 20/32/1
f 34/48/12 29/49/12 30/50/12
f 33/51/12 38/52/12 29/14/12
f 36/53/12 30/13/12 40/54/12
f 35/55/12 40/56/12 38/57/12
f 5/1/4 34/58/4 6/38/4
f 21/3/4 33/51/4 5/1/4
f 6/38/4 36/53/4 24/59/4
f 24/59/4 35/60/4 21/3/4
f 19/36/4 38/52/4 31/34/4
f 17/61/4 41/62/4 19/36/4
f 32/63/4 42/64/4 17/61/4
f 31/34/4 40/54/4 32/63/4
f 37/65/4 42/64/4 39/66/4
f 28/67/4 41/62/4 37/65/4
f 39/66/4 45/68/4 25/69/4
f 25/69/4 48/70/4 28/67/4
f 44/44/4 46/30/4 8/71/4
f 8/71/4 47/29/4 7/72/4
f 7/72/4 48/70/4 43/46/4
f 43/46/4 45/68/4 44/44/4
f 49/39/4 52/73/4 51/2/4
f 64/45/4 62/74/4 63/75/4
f 54/76/4 55/77/4 53/35/4
f 57/78/4 60/79/4 59/80/4
f 39/66/12 57/78/12 37/65/12
f 19/36/14 55/77/14 17/61/14
f 8/71/2 61/81/2 44/44/2
f 24/59/2 50/82/2 6/38/2
f 37/65/1 59/80/1 28/67/1
f 17/61/2 56/83/2 32/63/2
f 7/72/14 62/74/14 8/71/14
f 21/3/14 52/73/14 24/59/14
f 25/69/2 58/84/2 39/66/2
f 32/63/12 54/76/12 31/34/12
f 43/46/1 63/75/1 7/72/1
f 28/67/14 60/79/14 25/69/14
f 5/1/1 49/39/1 51/2/1
f 4/7/1 46/22/1 45/8/1
f 3/10/3 4/7/3 27/9/3
f 16/12/4 10/24/4 30/13/4
f 4/7/6 3/10/6 14/18/6
f 1/4/7 2/15/7 9/17/7
f 16/12/9 11/20/9 9/17/9
f 41/25/2 18/33/2 23/26/2
f 12/28/4 13/85/4 47/29/4
f 14/18/10 13/86/10 12/31/10
f 26/11/3 27/9/3 20/32/3
f 31/34/1 54/76/1 53/35/1
f 48/37/2 26/11/2 18/33/2
f 6/38/12 50/82/12 49/39/12
f 23/26/3 22/42/3 2/15/3
f 20/32/1 42/47/1 40/41/1
f 44/44/12 61/81/12 64/45/12
f 18/33/3 20/32/3 22/42/3
f 38/27/2 23/26/2 1/4/2
f 22/42/1 40/41/1 30/40/1
f 47/43/2 3/10/2 26/11/2
f 27/9/1 45/8/1 42/47/1
f 34/87/12 33/88/12 29/89/12
f 33/51/12 35/60/12 38/52/12
f 36/53/12 34/58/12 30/13/12
f 35/90/12 36/91/12 40/92/12
f 5/1/4 33/51/4 34/58/4
f 21/3/4 35/60/4 33/51/4
f 6/38/4 34/58/4 36/53/4
f 24/59/4 36/53/4 35/60/4
f 19/36/4 41/62/4 38/52/4
f 17/61/4 42/64/4 41/62/4
f 32/63/4 40/54/4 42/64/4
f 31/34/4 38/52/4 40/54/4
f 37/65/4 41/62/4 42/64/4
f 28/67/4 48/70/4 41/62/4
f 39/66/4 42/64/4 45/68/4
f 25/69/4 45/68/4 48/70/4
f 44/44/4 45/68/4 46/30/4
f 8/71/4 46/30/4 47/29/4
f 7/72/4 47/29/4 48/70/4
f 43/46/4 48/70/4 45/68/4
f 49/39/4 50/82/4 52/73/4
f 64/45/4 61/81/4 62/74/4
f 54/76/4 56/83/4 55/77/4
f 57/78/4 58/84/4 60/79/4
f 39/66/12 58/84/12 57/78/12
f 19/36/14 53/35/14 55/77/14
f 8/71/2 62/74/2 61/81/2
f 24/59/2 52/73/2 50/82/2
f 37/65/1 57/78/1 59/80/1
f 17/61/2 55/77/2 56/83/2
f 7/72/14 63/75/14 62/74/14
f 21/3/14 51/2/14 52/73/14
f 25/69/2 60/79/2 58/84/2
f 32/63/12 56/83/12 54/76/12
f 43/46/1 64/45/1 63/75/1
f 28/67/14 59/80/14 60/79/14
