# Blender v2.91.0 OBJ File: ''
# www.blender.org
mtllib barbutton.mtl
o Cube.001
v -0.874871 -0.874909 0.069053
v 0.874871 -0.874909 0.069053
v 0.874871 0.874833 0.070011
v 0.775588 -0.775550 -0.069956
v -0.775588 -0.775550 -0.069956
v -0.775588 -0.775502 -0.157118
v 0.775588 -0.775502 -0.157118
v -0.775588 0.775674 -0.156269
v -0.775588 0.775626 -0.069108
v 0.775588 0.775626 -0.069108
v 0.775588 0.775674 -0.156269
v -0.874871 0.874833 0.070011
vt 0.422705 0.229932
vt 0.320068 0.229932
vt 0.320068 0.332568
vt 0.211608 0.235756
vt 0.120619 0.235756
vt 0.120619 0.235756
vt 0.211608 0.235756
vt 0.120619 0.326744
vt 0.120619 0.326744
vt 0.211608 0.326744
vt 0.211608 0.326744
vt 0.422705 0.332568
vn 0.0000 -0.0005 1.0000
vn 0.0000 -1.0000 -0.0005
vn 0.0000 0.0005 -1.0000
vn 0.0000 1.0000 0.0005
vn -1.0000 0.0000 0.0000
vn 1.0000 -0.0000 0.0000
usemtl Material.001
s 1
f 1/1/1 2/2/1 3/3/1
f 4/4/2 5/5/2 6/6/2
f 7/7/3 6/6/3 8/8/3
f 9/9/4 10/10/4 11/11/4
f 5/5/5 9/9/5 8/8/5
f 10/10/6 4/4/6 7/7/6
f 1/1/1 3/3/1 12/12/1
f 4/4/2 6/6/2 7/7/2
f 7/7/3 8/8/3 11/11/3
f 9/9/4 11/11/4 8/8/4
f 5/5/5 8/8/5 6/6/5
f 10/10/6 7/7/6 11/11/6
o Cube.002
v 0.874871 0.874833 0.070011
v 0.874871 0.874909 -0.069053
v -0.874871 0.874909 -0.069053
v -0.874871 0.874833 0.070011
v -0.874871 -0.874833 -0.070011
v 0.874871 -0.874909 0.069053
v 0.874871 -0.874833 -0.070011
v -0.874871 -0.874909 0.069053
vt 0.258491 0.765420
vt 0.200884 0.765420
vt 0.200884 0.823028
vt 0.258491 0.592597
vt 0.200884 0.592597
vt 0.200884 0.650205
vt 0.258491 0.707813
vt 0.200884 0.707813
vt 0.258491 0.650205
vt 0.258491 0.823028
vn 0.0000 1.0000 0.0005
vn -1.0000 -0.0000 0.0000
vn 1.0000 -0.0000 0.0000
vn 0.0000 -1.0000 -0.0005
usemtl Material.001
s 1
f 13/13/7 14/14/7 15/15/7
f 16/16/8 15/17/8 17/18/8
f 18/19/9 19/20/9 14/14/9
f 20/21/10 17/18/10 19/20/10
f 13/13/7 15/15/7 16/22/7
f 16/16/8 17/18/8 20/21/8
f 18/19/9 14/14/9 13/13/9
f 20/21/10 19/20/10 18/19/10
o Cube.003
v -0.775588 -0.775550 -0.069956
v -0.874871 -0.874833 -0.070011
v -0.874871 0.874909 -0.069053
v 0.775588 -0.775550 -0.069956
v 0.874871 -0.874833 -0.070011
v -0.775588 0.775626 -0.069108
v 0.874871 0.874909 -0.069053
v 0.775588 0.775626 -0.069108
vt 0.827169 0.494706
vt 0.838447 0.483428
vt 0.639678 0.483428
vt 0.827169 0.670919
vt 0.838447 0.682197
vt 0.650956 0.494706
vt 0.639678 0.682197
vt 0.650956 0.670919
vn 0.0000 0.0005 -1.0000
usemtl Material.001
s 1
f 21/23/11 22/24/11 23/25/11
f 24/26/11 25/27/11 22/24/11
f 26/28/11 23/25/11 27/29/11
f 28/30/11 27/29/11 25/27/11
f 21/23/11 23/25/11 26/28/11
f 24/26/11 22/24/11 21/23/11
f 26/28/11 27/29/11 28/30/11
f 28/30/11 25/27/11 24/26/11
