# Blender v2.91.0 OBJ File: ''
# www.blender.org
mtllib bardoor.mtl
o Cube.002
v -7.110665 8.132820 0.103287
v 7.280995 8.132820 0.103287
v 7.280995 8.132820 -0.103284
v 7.280995 -0.424545 0.103286
v -7.110665 -0.424545 0.103286
v -7.110665 -0.424545 -0.103286
v 6.172982 0.234286 0.103286
v -6.002652 0.234286 0.103286
v 6.172982 7.473989 0.009614
v -6.002652 7.473989 0.009614
v -6.002652 7.473989 0.048707
v 6.172982 0.234286 0.009613
v 6.172982 7.473989 0.048707
v -6.002652 0.234286 0.009613
v -6.002652 0.234286 0.048706
v -1.749040 4.454988 -0.014493
v -5.958906 0.260297 -0.014493
v -5.958906 7.447978 -0.014492
v 1.919370 4.454988 -0.014493
v 1.919370 6.636246 -0.014492
v 6.129236 7.447978 -0.014492
v -1.749040 6.636246 -0.014492
v 6.129236 0.260297 -0.014493
v 6.129236 0.260297 -0.103286
v -5.958906 0.260297 -0.103286
v -5.958906 0.260297 -0.014493
v -7.110665 8.132820 -0.103284
v -7.110665 -0.424546 -0.103286
v -7.110665 -0.424546 0.103286
v 7.280995 8.132820 0.103287
v 7.280995 -0.424546 0.103286
v 7.280995 -0.424546 -0.103286
v -6.002652 0.234286 0.103286
v 6.172982 0.234286 0.103286
v 6.172982 0.234286 0.009613
v -5.958906 7.447978 -0.103284
v 6.129236 7.447978 -0.103284
v 7.280995 8.132820 -0.103284
v 6.129236 0.260297 -0.014493
v 6.129236 7.447978 -0.014492
v -5.958906 7.447978 -0.014492
v 6.172982 7.473990 0.103287
v -6.002652 7.473990 0.103287
v -7.110665 8.132820 0.103287
v -6.002652 7.473990 0.009614
v 6.172982 7.473990 0.009614
v -6.002652 0.234286 0.009613
v 6.172982 0.234286 0.048706
v -7.110665 8.132820 -0.103284
v 7.280995 -0.424545 -0.103286
v 6.172982 0.234286 0.048706
v -6.002652 0.234286 0.048706
v -1.749040 4.454988 0.086033
v -5.958906 7.447978 0.086033
v -5.958906 0.260297 0.086032
v 1.919370 4.454988 0.086033
v 6.129236 7.447978 0.086033
v 1.919370 6.636246 0.086033
v -1.749040 6.636246 0.086033
v 6.129236 0.260297 0.086032
v -4.616564 3.718118 0.001864
v -4.519776 3.722195 0.001891
v -4.519776 3.724789 -0.077386
v -4.426706 3.734271 0.001968
v -4.426706 3.736865 -0.077309
v -4.340934 3.753879 0.002092
v -4.340934 3.756474 -0.077184
v -4.265754 3.780269 0.002260
v -4.265754 3.782862 -0.077016
v -4.204055 3.812424 0.002465
v -4.204055 3.815019 -0.076812
v -4.158208 3.849110 0.002698
v -4.158208 3.851704 -0.076578
v -4.129975 3.888916 0.002952
v -4.129975 3.891511 -0.076325
v -4.120444 3.930313 0.003215
v -4.120444 3.932908 -0.076061
v -4.129975 3.971710 0.003479
v -4.129975 3.974305 -0.075798
v -4.158208 4.011517 0.003732
v -4.158208 4.014112 -0.075544
v -4.204055 4.048203 0.003966
v -4.204055 4.050797 -0.075311
v -4.265754 4.080359 0.004171
v -4.265754 4.082952 -0.075106
v -4.340934 4.106748 0.004339
v -4.340934 4.109342 -0.074938
v -4.426706 4.126357 0.004463
v -4.426706 4.128951 -0.074813
v -4.519776 4.138431 0.004540
v -4.519776 4.141026 -0.074736
v -4.616564 4.142509 0.004566
v -4.616564 4.145103 -0.074711
v -4.713353 4.138431 0.004540
v -4.713353 4.141026 -0.074736
v -4.806421 4.126357 0.004463
v -4.806421 4.128951 -0.074813
v -4.892193 4.106748 0.004339
v -4.892193 4.109342 -0.074938
v -4.967373 4.080358 0.004171
v -4.967373 4.082952 -0.075106
v -5.029074 4.048203 0.003966
v -5.029074 4.050797 -0.075311
v -5.074919 4.011517 0.003732
v -5.074919 4.014112 -0.075544
v -5.103151 3.971710 0.003479
v -5.103151 3.974305 -0.075798
v -5.112683 3.930313 0.003215
v -5.112683 3.932907 -0.076061
v -5.103151 3.888916 0.002952
v -5.103151 3.891510 -0.076325
v -5.074919 3.849110 0.002698
v -5.074919 3.851704 -0.076578
v -5.029072 3.812424 0.002465
v -5.029072 3.815018 -0.076812
v -4.967373 3.780269 0.002260
v -4.967373 3.782862 -0.077016
v -4.892193 3.753879 0.002092
v -4.892193 3.756474 -0.077184
v -4.806421 3.734270 0.001968
v -4.806421 3.736865 -0.077309
v -4.713351 3.722195 0.001891
v -4.713351 3.724789 -0.077386
v -4.616564 3.720713 -0.077412
v -4.426706 3.738722 -0.369094
v -4.340934 3.758331 -0.368969
v -4.265754 3.784720 -0.368801
v -4.265754 4.084810 -0.366891
v -4.340934 4.111199 -0.366723
v -4.426706 4.130808 -0.366598
v -4.519776 4.142883 -0.366521
v -4.616564 4.146960 -0.366496
v -4.713353 4.142883 -0.366521
v -4.806421 4.130808 -0.366598
v -4.806421 3.738722 -0.369094
v -4.519776 3.726646 -0.369171
v -4.713351 3.726646 -0.369171
v -4.892193 3.758331 -0.368969
v -4.616564 3.722570 -0.369197
vt 0.572402 0.564488
vt 0.322402 0.564488
vt 0.322402 0.814488
vt 0.375000 0.500000
vt 0.125000 0.500000
vt 0.125000 0.750000
vt 0.212997 0.805753
vt 0.212997 0.594247
vt 0.193750 0.575000
vt 0.637997 0.885044
vt 0.637997 0.673539
vt 0.637997 0.673539
vt 0.426492 0.885044
vt 0.637997 0.885044
vt 0.426492 0.673539
vt 0.426492 0.673539
vt 0.624816 0.429984
vt 0.427150 0.728681
vt 0.427150 0.216859
vt 0.797059 0.429984
vt 0.797059 0.274660
vt 0.994725 0.216858
vt 0.527970 0.847614
vt 0.477481 0.524505
vt 0.527970 0.136761
vt 0.994725 0.728681
vt 0.405932 0.816900
vt 0.405932 0.895662
vt 0.405932 0.895662
vt 0.492198 0.528084
vt 0.398427 0.528084
vt 0.398427 0.621854
vt 0.492198 0.715625
vt 0.398427 0.715625
vt 0.398427 0.809396
vt 0.405647 0.629074
vt 0.405647 0.708406
vt 0.405647 0.708406
vt 0.484693 0.895662
vt 0.398427 0.903167
vt 0.484693 0.816900
vt 0.492198 0.809396
vt 0.492198 0.903167
vt 0.405932 0.816900
vt 0.484693 0.816900
vt 0.484693 0.895662
vt 0.484978 0.708406
vt 0.484979 0.629074
vt 0.492198 0.621854
vt 0.484979 0.629074
vt 0.484978 0.708406
vt 0.405647 0.629074
vt 0.405647 0.708406
vt 0.572402 0.814488
vt 0.375000 0.750000
vt 0.193750 0.825000
vt 0.426492 0.885044
vt 0.624816 0.274661
vt 0.405647 0.629074
vt 0.167868 0.283695
vt 0.320618 0.340930
vt 0.110632 0.340930
vt 0.167868 0.188180
vt 0.320618 0.130945
vt 0.263382 0.188180
vt 0.263382 0.283695
vt 0.110632 0.130945
vt 0.263382 0.188180
vt 0.263382 0.283695
vt 0.167868 0.283695
vt 0.320618 0.340930
vt 0.320618 0.130945
vt 0.110632 0.340930
vt 0.167868 0.188180
vt 0.110632 0.130945
vt 0.951692 0.220778
vt 0.942529 0.220778
vt 0.942529 0.367391
vt 0.933365 0.220778
vt 0.933365 0.367391
vt 0.924202 0.220778
vt 0.924202 0.367391
vt 0.915039 0.220778
vt 0.915039 0.367391
vt 0.905875 0.220778
vt 0.905875 0.367391
vt 0.896712 0.220778
vt 0.896712 0.367391
vt 0.887549 0.220778
vt 0.887549 0.367391
vt 0.878385 0.220778
vt 0.878385 0.367391
vt 0.869222 0.220778
vt 0.869222 0.367391
vt 0.860059 0.220778
vt 0.860059 0.367391
vt 0.850895 0.220778
vt 0.850895 0.367391
vt 0.841732 0.220778
vt 0.841732 0.367391
vt 0.832569 0.220778
vt 0.832569 0.367391
vt 0.823405 0.220778
vt 0.823405 0.367391
vt 0.814242 0.220778
vt 0.814242 0.367391
vt 0.805079 0.220778
vt 0.805079 0.367391
vt 0.795915 0.220778
vt 0.795915 0.367391
vt 0.786752 0.220778
vt 0.786752 0.367391
vt 0.777589 0.220778
vt 0.777589 0.367391
vt 0.768425 0.220778
vt 0.768425 0.367391
vt 0.759262 0.220778
vt 0.759262 0.367391
vt 0.750099 0.220778
vt 0.750099 0.367391
vt 0.740935 0.220778
vt 0.740935 0.367391
vt 0.731772 0.220778
vt 0.731772 0.367391
vt 0.722609 0.220778
vt 0.722609 0.367391
vt 0.713445 0.220778
vt 0.713445 0.367391
vt 0.704282 0.220778
vt 0.704282 0.367391
vt 0.695119 0.220778
vt 0.695119 0.367391
vt 0.685955 0.220778
vt 0.685955 0.367391
vt 0.676792 0.220778
vt 0.951692 0.367391
vt 0.942529 0.367391
vt 0.951692 0.367391
vt 0.676792 0.367391
vt 0.667629 0.220778
vt 0.667629 0.367391
vt 0.658465 0.220778
vt 0.839287 0.205986
vt 0.839287 0.088957
vt 0.851454 0.212489
vt 0.924202 0.367391
vt 0.933365 0.367391
vt 0.658465 0.367391
vt 0.658465 0.367391
vt 0.667629 0.367391
vt 0.781534 0.197234
vt 0.781534 0.097709
vt 0.781534 0.097709
vt 0.781534 0.197234
vt 0.795915 0.367391
vt 0.805079 0.367391
vt 0.915039 0.367391
vt 0.692674 0.205986
vt 0.692674 0.088957
vt 0.682010 0.197234
vt 0.704841 0.082454
vt 0.682010 0.097709
vt 0.673258 0.186569
vt 0.673258 0.108373
vt 0.666754 0.174403
vt 0.662750 0.133742
vt 0.662750 0.161201
vt 0.661398 0.147471
vt 0.666754 0.120540
vt 0.676792 0.367391
vt 0.685955 0.367391
vt 0.786752 0.367391
vt 0.692674 0.205986
vt 0.704841 0.082454
vt 0.814242 0.367391
vt 0.823405 0.367391
vt 0.790286 0.108373
vt 0.790286 0.186569
vt 0.796789 0.120540
vt 0.800794 0.161201
vt 0.800794 0.133742
vt 0.802146 0.147471
vt 0.796789 0.174402
vt 0.864656 0.216494
vt 0.878385 0.077097
vt 0.878385 0.217846
vt 0.892115 0.078449
vt 0.892115 0.216494
vt 0.905316 0.212489
vt 0.905316 0.082454
vt 0.917483 0.205986
vt 0.928148 0.097709
vt 0.928148 0.197234
vt 0.936900 0.108373
vt 0.936900 0.186569
vt 0.943403 0.174402
vt 0.943403 0.120540
vt 0.947407 0.161201
vt 0.947407 0.133742
vt 0.948760 0.147471
vt 0.917483 0.088957
vt 0.864656 0.078449
vt 0.851454 0.082454
vt 0.828623 0.197234
vt 0.828623 0.097709
vt 0.819871 0.186569
vt 0.819871 0.108373
vt 0.813368 0.120540
vt 0.813368 0.174403
vt 0.809363 0.133742
vt 0.809363 0.161201
vt 0.808011 0.147471
vt 0.770870 0.205986
vt 0.758703 0.212489
vt 0.745501 0.078449
vt 0.745501 0.216494
vt 0.731772 0.077097
vt 0.731772 0.217846
vt 0.718043 0.078449
vt 0.718043 0.216494
vt 0.704841 0.212489
vt 0.758703 0.082454
vt 0.770870 0.088957
vt 0.832569 0.367391
vt 0.841732 0.367391
vn 0.0000 1.0000 0.0000
vn 0.0000 -1.0000 -0.0000
vn 0.0000 -0.0000 1.0000
vn 1.0000 0.0000 0.0000
vn -1.0000 -0.0000 0.0000
vn 0.0000 0.0000 -1.0000
vn -0.0421 0.9986 0.0327
vn -0.1286 0.9912 0.0324
vn -0.2228 0.9743 0.0319
vn -0.3311 0.9431 0.0309
vn -0.4620 0.8864 0.0290
vn -0.4621 0.8864 0.0290
vn -0.6247 0.7805 0.0255
vn -0.8156 0.5783 0.0189
vn -0.9745 0.2243 0.0073
vn -0.9745 -0.2243 -0.0073
vn -0.8156 -0.5783 -0.0189
vn -0.6247 -0.7805 -0.0255
vn -0.4621 -0.8864 -0.0290
vn -0.3311 -0.9431 -0.0309
vn -0.2228 -0.9743 -0.0319
vn -0.1286 -0.9912 -0.0324
vn -0.0421 -0.9986 -0.0327
vn 0.0421 -0.9986 -0.0327
vn 0.1286 -0.9912 -0.0324
vn 0.2228 -0.9743 -0.0319
vn 0.3311 -0.9431 -0.0309
vn 0.4620 -0.8864 -0.0290
vn 0.6247 -0.7805 -0.0255
vn 0.8156 -0.5783 -0.0189
vn 0.9745 -0.2243 -0.0073
vn 0.9745 0.2243 0.0073
vn 0.9745 0.2244 0.0073
vn 0.8156 0.5783 0.0189
vn 0.6247 0.7805 0.0255
vn 0.4620 0.8864 0.0290
vn 0.3311 0.9431 0.0309
vn 0.2228 0.9743 0.0319
vn -0.0000 1.0000 0.0064
vn -0.0855 0.9963 0.0063
vn 0.1286 0.9912 0.0324
vn 0.0421 0.9986 0.0327
vn 0.0000 0.0064 -1.0000
vn -0.4620 -0.8864 -0.0290
vn -0.3311 -0.9431 -0.0308
vn 0.6246 -0.7805 -0.0255
vn -0.1760 0.9844 0.0063
vn -0.2775 0.9607 0.0061
vn 0.0855 0.9963 0.0063
vn -0.7507 0.5296 0.3948
vn -0.7507 -0.5346 0.3881
vn -0.6544 -0.4676 0.5942
vn -0.6544 0.4600 0.6002
vn -0.0000 -1.0000 -0.0064
vn 0.0855 -0.9963 -0.0063
vn 0.7080 0.4402 0.5522
vn -0.0000 -0.0064 1.0000
vn 0.6163 -0.6819 0.3939
vn 0.1760 0.9844 0.0063
vn 0.6919 0.4300 0.5800
vn 0.5383 -0.5972 0.5946
vn -0.1760 -0.9844 -0.0063
vn -0.0855 -0.9963 -0.0063
vn -0.2775 -0.9607 -0.0061
usemtl Material.003
s 1
f 1/1/1 2/2/1 3/3/1
f 4/4/2 5/5/2 6/6/2
f 7/7/3 8/8/3 5/9/3
f 9/10/1 10/11/1 11/12/1
f 12/13/4 9/10/4 13/14/4
f 10/11/5 14/15/5 15/16/5
f 16/17/6 17/18/6 18/19/6
f 19/20/6 20/21/6 21/22/6
f 20/23/6 22/24/6 18/25/6
f 16/17/6 19/20/6 23/26/6
f 24/27/1 25/28/1 26/29/1
f 27/30/5 28/31/5 29/32/5
f 30/33/4 31/34/4 32/35/4
f 33/36/1 34/37/1 35/38/1
f 36/39/6 25/28/6 28/40/6
f 24/27/6 37/41/6 38/42/6
f 37/41/6 36/39/6 27/43/6
f 25/28/6 24/27/6 32/35/6
f 37/41/5 24/27/5 39/44/5
f 36/39/2 37/41/2 40/45/2
f 25/28/4 36/39/4 41/46/4
f 42/47/3 34/37/3 31/34/3
f 33/36/3 43/48/3 44/49/3
f 43/48/3 42/47/3 30/33/3
f 42/47/2 43/48/2 45/50/2
f 34/37/5 42/47/5 46/51/5
f 43/48/4 33/36/4 47/52/4
f 47/52/2 35/38/2 48/53/2
f 1/1/1 3/3/1 49/54/1
f 4/4/2 6/6/2 50/55/2
f 7/7/3 5/9/3 4/56/3
f 9/10/1 11/12/1 13/14/1
f 12/13/4 13/14/4 51/57/4
f 10/11/5 15/16/5 11/12/5
f 16/17/6 18/19/6 22/58/6
f 19/20/6 21/22/6 23/26/6
f 20/21/6 18/19/6 21/22/6
f 16/17/6 23/26/6 17/18/6
f 24/27/1 26/29/1 39/44/1
f 27/30/5 29/32/5 44/49/5
f 30/33/4 32/35/4 38/42/4
f 33/36/1 35/38/1 47/52/1
f 36/39/6 28/40/6 27/43/6
f 24/27/6 38/42/6 32/35/6
f 37/41/6 27/43/6 38/42/6
f 25/28/6 32/35/6 28/40/6
f 37/41/5 39/44/5 40/45/5
f 36/39/2 40/45/2 41/46/2
f 25/28/4 41/46/4 26/29/4
f 42/47/3 31/34/3 30/33/3
f 33/36/3 44/49/3 29/32/3
f 43/48/3 30/33/3 44/49/3
f 42/47/2 45/50/2 46/51/2
f 34/37/5 46/51/5 35/38/5
f 43/48/4 47/52/4 45/50/4
f 47/52/2 48/53/2 52/59/2
f 53/60/3 54/61/3 55/62/3
f 56/63/3 57/64/3 58/65/3
f 58/65/3 54/61/3 59/66/3
f 53/60/3 60/67/3 56/63/3
f 53/60/3 59/66/3 54/61/3
f 56/63/3 60/67/3 57/64/3
f 58/65/3 57/64/3 54/61/3
f 53/60/3 55/62/3 60/67/3
f 20/68/2 59/66/2 22/69/2
f 22/69/4 53/60/4 16/70/4
f 18/71/2 21/72/2 57/64/2
f 17/73/4 18/71/4 54/61/4
f 16/70/1 56/63/1 19/74/1
f 19/74/5 58/65/5 20/68/5
f 23/75/1 17/73/1 55/62/1
f 21/72/5 23/75/5 60/67/5
f 20/68/2 58/65/2 59/66/2
f 22/69/4 59/66/4 53/60/4
f 18/71/2 57/64/2 54/61/2
f 17/73/4 54/61/4 55/62/4
f 16/70/1 53/60/1 56/63/1
f 19/74/5 56/63/5 58/65/5
f 23/75/1 55/62/1 60/67/1
f 21/72/5 60/67/5 57/64/5
f 61/76/7 62/77/7 63/78/7
f 62/77/8 64/79/8 65/80/8
f 64/79/9 66/81/9 67/82/9
f 66/81/10 68/83/10 69/84/10
f 68/83/11 70/85/11 71/86/12
f 70/85/13 72/87/13 73/88/13
f 72/87/14 74/89/14 75/90/14
f 74/89/15 76/91/15 77/92/15
f 76/91/16 78/93/16 79/94/16
f 78/93/17 80/95/17 81/96/17
f 80/95/18 82/97/18 83/98/18
f 82/97/19 84/99/19 85/100/19
f 84/99/20 86/101/20 87/102/20
f 86/101/21 88/103/21 89/104/21
f 88/103/22 90/105/22 91/106/22
f 90/105/23 92/107/23 93/108/23
f 93/108/24 92/107/24 94/109/24
f 95/110/25 94/109/25 96/111/25
f 97/112/26 96/111/26 98/113/26
f 99/114/27 98/113/27 100/115/27
f 101/116/28 100/115/28 102/117/28
f 103/118/29 102/117/29 104/119/29
f 105/120/30 104/119/30 106/121/30
f 107/122/31 106/121/31 108/123/31
f 109/124/32 108/123/33 110/125/32
f 111/126/34 110/125/34 112/127/34
f 113/128/35 112/127/35 114/129/35
f 115/130/36 114/129/36 116/131/36
f 117/132/37 116/131/37 118/133/37
f 119/134/38 118/133/38 120/135/38
f 124/136/39 63/78/40 136/137/40 139/138/39
f 121/139/41 120/135/41 122/140/41
f 123/141/42 122/140/42 61/142/42
f 118/143/43 98/144/43 120/145/43
f 61/76/7 63/78/7 124/136/7
f 62/77/8 65/80/8 63/78/8
f 64/79/9 67/82/9 65/80/9
f 66/81/10 69/84/10 67/82/10
f 68/83/11 71/86/12 69/84/12
f 70/85/13 73/88/13 71/86/13
f 72/87/14 75/90/14 73/88/14
f 74/89/15 77/92/15 75/90/15
f 76/91/16 79/94/16 77/92/16
f 78/93/17 81/96/17 79/94/17
f 80/95/18 83/98/18 81/96/18
f 82/97/19 85/100/19 83/98/44
f 84/99/20 87/102/20 85/100/45
f 86/101/21 89/104/21 87/102/21
f 88/103/22 91/106/22 89/104/22
f 90/105/23 93/108/23 91/106/23
f 93/108/24 94/109/24 95/110/24
f 95/110/25 96/111/25 97/112/25
f 97/112/26 98/113/26 99/114/26
f 99/114/27 100/115/27 101/116/27
f 101/116/28 102/117/28 103/118/28
f 103/118/29 104/119/29 105/120/46
f 105/120/30 106/121/30 107/122/30
f 107/122/31 108/123/31 109/124/31
f 109/124/32 110/125/32 111/126/32
f 111/126/34 112/127/34 113/128/34
f 113/128/35 114/129/35 115/130/35
f 115/130/36 116/131/36 117/132/36
f 117/132/37 118/133/37 119/134/37
f 119/134/38 120/135/38 121/139/38
f 65/80/47 67/82/48 126/146/48 125/147/47
f 123/141/49 124/148/39 139/149/39 137/150/49
f 69/151/50 85/152/51 128/153/52 127/154/53
f 93/108/54 95/110/55 133/155/55 132/156/54
f 67/82/48 69/84/50 127/157/53 126/146/48
f 119/158/56 99/159/57 117/160/57
f 97/161/58 99/159/57 119/158/56
f 117/160/57 101/162/57 115/163/57
f 115/163/57 103/164/57 113/165/57
f 101/162/57 103/164/57 115/163/57
f 113/165/57 107/166/57 111/167/57
f 111/167/57 107/166/57 109/168/57
f 107/166/57 113/165/57 105/169/57
f 105/169/57 113/165/57 103/164/57
f 101/162/57 117/160/57 99/159/57
f 121/139/59 123/141/49 137/150/49 135/170/59
f 119/134/56 121/139/59 135/170/59 138/171/60
f 95/110/55 97/112/58 134/172/61 133/155/55
f 63/78/40 65/80/47 125/147/47 136/137/40
f 97/161/58 119/158/56 138/173/60 134/174/61
f 89/104/62 91/106/63 131/175/63 130/176/62
f 91/106/63 93/108/54 132/156/54 131/175/63
f 85/152/51 69/151/50 83/177/57
f 83/177/57 71/178/57 81/179/57
f 69/151/50 71/178/57 83/177/57
f 81/179/57 75/180/57 79/181/57
f 79/181/57 75/180/57 77/182/57
f 75/180/57 81/179/57 73/183/57
f 73/183/57 81/179/57 71/178/57
f 121/139/41 122/140/41 123/141/41
f 123/141/42 61/142/42 124/148/42
f 122/184/43 92/185/43 61/186/43
f 61/186/43 90/187/43 62/188/43
f 62/188/43 90/187/43 64/189/43
f 64/189/43 88/190/43 66/191/43
f 90/187/43 88/190/43 64/189/43
f 66/191/43 84/192/43 68/193/43
f 68/193/43 82/194/43 70/195/43
f 70/195/43 82/194/43 72/196/43
f 72/196/43 80/197/43 74/198/43
f 82/194/43 80/197/43 72/196/43
f 74/198/43 78/199/43 76/200/43
f 78/199/43 74/198/43 80/197/43
f 82/194/43 68/193/43 84/192/43
f 84/192/43 66/191/43 86/201/43
f 86/201/43 66/191/43 88/190/43
f 90/187/43 61/186/43 92/185/43
f 92/185/43 122/184/43 94/202/43
f 94/202/43 122/184/43 96/203/43
f 96/203/43 120/145/43 98/144/43
f 122/184/43 120/145/43 96/203/43
f 98/144/43 116/204/43 100/205/43
f 100/205/43 114/206/43 102/207/43
f 102/207/43 114/206/43 104/208/43
f 104/208/43 112/209/43 106/210/43
f 114/206/43 112/209/43 104/208/43
f 106/210/43 110/211/43 108/212/43
f 110/211/43 106/210/43 112/209/43
f 114/206/43 100/205/43 116/204/43
f 116/204/43 98/144/43 118/143/43
f 127/154/53 128/153/52 126/213/57
f 125/214/57 131/215/57 136/216/57
f 136/216/57 132/217/57 139/218/57
f 139/218/57 133/219/57 137/220/57
f 137/220/57 134/174/61 135/221/57
f 135/221/57 134/174/61 138/173/60
f 134/174/61 137/220/57 133/219/57
f 133/219/57 139/218/57 132/217/57
f 132/217/57 136/216/57 131/215/57
f 131/215/57 125/214/57 130/222/57
f 130/222/57 125/214/57 129/223/57
f 129/223/57 126/213/57 128/153/52
f 125/214/57 126/213/57 129/223/57
f 85/100/51 87/102/64 129/224/64 128/225/52
f 87/102/64 89/104/62 130/176/62 129/224/64
