# Blender v2.91.0 OBJ File: ''
# www.blender.org
mtllib button.mtl
o Cube
v 0.874871 -0.069532 -0.874871
v 0.874871 -0.069532 0.874871
v -0.874871 -0.069532 -0.874871
v -0.874871 -0.069532 0.874871
v -0.775588 0.069532 -0.775588
v -0.775588 0.069532 0.775588
v 0.775588 0.069532 -0.775588
v 0.775588 0.069532 0.775588
v -0.775588 0.156694 -0.775588
v -0.775588 0.156694 0.775588
v 0.775588 0.156694 -0.775588
v 0.775588 0.156694 0.775588
vt 0.422705 0.229932
vt 0.320068 0.229932
vt 0.320068 0.332568
vt 0.211608 0.235756
vt 0.120619 0.235756
vt 0.120619 0.235756
vt 0.211608 0.235756
vt 0.120619 0.326744
vt 0.120619 0.326744
vt 0.211608 0.326744
vt 0.211608 0.326744
vt 0.422705 0.332568
vn 0.0000 -1.0000 0.0000
vn 0.0000 0.0000 -1.0000
vn 0.0000 1.0000 0.0000
vn 0.0000 0.0000 1.0000
vn -1.0000 0.0000 0.0000
vn 1.0000 0.0000 0.0000
usemtl Material
s off
f 3/1/1 1/2/1 2/3/1
f 7/4/2 5/5/2 9/6/2
f 11/7/3 9/6/3 10/8/3
f 6/9/4 8/10/4 12/11/4
f 5/5/5 6/9/5 10/8/5
f 8/10/6 7/4/6 11/7/6
f 3/1/1 2/3/1 4/12/1
f 7/4/2 9/6/2 11/7/2
f 11/7/3 10/8/3 12/11/3
f 6/9/4 12/11/4 10/8/4
f 5/5/5 10/8/5 9/6/5
f 8/10/6 11/7/6 12/11/6
o Cube.001
v 0.874871 -0.069532 -0.874871
v 0.874871 0.069532 -0.874871
v 0.874871 -0.069532 0.874871
v 0.874871 0.069532 0.874871
v -0.874871 -0.069532 -0.874871
v -0.874871 0.069532 -0.874871
v -0.874871 -0.069532 0.874871
v -0.874871 0.069532 0.874871
vt 0.258491 0.765420
vt 0.200884 0.765420
vt 0.200884 0.823028
vt 0.258491 0.592597
vt 0.200884 0.592597
vt 0.200884 0.650205
vt 0.258491 0.707813
vt 0.200884 0.707813
vt 0.258491 0.650205
vt 0.258491 0.823028
vn 0.0000 0.0000 1.0000
vn -1.0000 0.0000 0.0000
vn 1.0000 0.0000 0.0000
vn 0.0000 0.0000 -1.0000
usemtl Material
s off
f 15/13/7 16/14/7 20/15/7
f 19/16/8 20/17/8 18/18/8
f 13/19/9 14/20/9 16/14/9
f 17/21/10 18/18/10 14/20/10
f 15/13/7 20/15/7 19/22/7
f 19/16/8 18/18/8 17/21/8
f 13/19/9 16/14/9 15/13/9
f 17/21/10 14/20/10 13/19/10
o Cube.002
v 0.874871 0.069532 -0.874871
v 0.874871 0.069532 0.874871
v -0.874871 0.069532 -0.874871
v -0.874871 0.069532 0.874871
v -0.775588 0.069532 -0.775588
v -0.775588 0.069532 0.775588
v 0.775588 0.069532 -0.775588
v 0.775588 0.069532 0.775588
vt 0.827169 0.494706
vt 0.838447 0.483428
vt 0.639678 0.483428
vt 0.827169 0.670919
vt 0.838447 0.682197
vt 0.650956 0.494706
vt 0.639678 0.682197
vt 0.650956 0.670919
vn 0.0000 1.0000 0.0000
usemtl Material
s off
f 25/23/11 23/24/11 24/25/11
f 27/26/11 21/27/11 23/24/11
f 26/28/11 24/25/11 22/29/11
f 28/30/11 22/29/11 21/27/11
f 25/23/11 24/25/11 26/28/11
f 27/26/11 23/24/11 25/23/11
f 26/28/11 22/29/11 28/30/11
f 28/30/11 21/27/11 27/26/11
