# Blender v2.91.0 OBJ File: ''
# www.blender.org
mtllib Cfan12.mtl
o Cylinder_Cylinder.003
v 0.307377 -1.879900 0.289367
v 0.308027 -1.880851 -0.003397
v 1.438227 -1.252153 -0.002940
v 1.437581 -1.251202 0.289824
v 1.899898 -0.044065 -0.005847
v -1.757283 0.661942 0.276521
v -6.612355 4.644901 0.291258
v -6.611536 4.643699 -0.078406
v 1.476365 1.179085 0.282001
v 1.477013 1.178131 -0.010761
v 0.367447 1.842559 -0.015382
v 0.366799 1.843512 0.277383
v -0.909618 1.638327 -0.017544
v 7.338382 3.435911 -0.054304
v 7.903349 1.803079 -0.047740
v -1.756635 0.660988 -0.016241
v -1.777274 -0.632136 -0.012080
v -0.910269 1.639278 0.275217
v -0.680284 1.225608 0.596250
v 0.276240 1.378584 0.597872
v -1.777922 -0.631183 0.280685
v -0.961877 -1.635988 -0.007007
v -0.962523 -1.635035 0.285757
v -2.313560 -7.768455 -0.027671
v 7.902485 1.804351 0.343380
v -5.542851 5.878953 0.289612
v -5.542032 5.877752 -0.080052
v -2.314374 -7.767258 0.340339
v -0.717245 -8.076259 -0.023133
v 1.899247 -0.043114 0.286914
v 7.337519 3.437185 0.336818
v -0.718062 -8.075062 0.344878
v 0.231733 -1.410261 0.606847
v 1.107307 0.880922 0.601333
v 1.078259 -0.939364 0.607190
v 1.424049 -0.034503 0.605012
v -0.719425 -1.226859 0.604143
v -1.330161 -0.474972 0.600344
v -1.314702 0.493582 0.597228
vt 1.000000 1.000000
vt 1.000000 0.500000
vt 0.888889 0.500000
vt 0.888889 1.000000
vt 0.777778 0.500000
vt 0.333333 1.000000
vt 0.333333 1.000000
vt 0.333333 0.500000
vt 0.666667 1.000000
vt 0.666667 0.500000
vt 0.555556 0.500000
vt 0.555556 1.000000
vt 0.444444 0.500000
vt 0.957846 0.130000
vt 0.957846 0.130000
vt 0.986354 0.291676
vt 0.333333 0.500000
vt 0.222222 0.500000
vt 0.444444 1.000000
vt 0.444444 1.000000
vt 0.555556 1.000000
vt 0.222222 1.000000
vt 0.111111 0.500000
vt 0.111111 1.000000
vt 0.111111 0.500000
vt 0.595731 0.433851
vt 0.667915 0.024474
vt 0.904269 0.433851
vt 0.777778 1.000000
vt 0.777778 0.500000
vt 0.666667 0.500000
vt 0.444444 1.000000
vt 0.444444 0.500000
vt 0.111111 1.000000
vt 0.000000 0.500000
vt 0.750000 0.490000
vt 0.750000 0.490000
vt 0.486354 0.291676
vt 0.486354 0.291676
vt 0.457846 0.130000
vt 1.000000 1.000000
vt 1.000000 0.500000
vt 0.250000 0.490000
vt 0.095731 0.433851
vt 0.095731 0.433851
vt 0.666667 1.000000
vt 0.542154 0.130000
vt 0.542154 0.130000
vt 0.777778 1.000000
vt 0.042154 0.130000
vt 0.167915 0.024474
vt 0.167915 0.024474
vt 0.250000 0.490000
vt 0.457846 0.130000
vt 0.167915 0.024474
vt 0.666667 1.000000
vt 0.888889 1.000000
vt 0.457846 0.130000
vt 0.777778 1.000000
vt 0.111111 1.000000
vt 0.222222 1.000000
vt 0.333333 1.000000
vt 0.042154 0.130000
vt 0.986354 0.291676
vt 0.832085 0.024474
vt 0.513646 0.291676
vt 0.000000 1.000000
vt 0.595731 0.433851
vt 0.250000 0.490000
vt 0.667915 0.024474
vt 0.042154 0.130000
vt 0.486354 0.291676
vt 0.404269 0.433851
vt 0.095731 0.433851
vt 0.013646 0.291676
vt 0.332085 0.024474
vt 1.000000 1.000000
vn 0.4861 -0.8739 0.0039
vn 0.9341 -0.3570 0.0032
vn -0.6342 -0.7731 0.0011
vn 0.5138 0.8579 -0.0017
vn -0.1579 0.9874 -0.0036
vn -0.0044 -0.0057 -1.0000
vn -0.0052 -0.0058 -1.0000
vn -0.9999 0.0160 -0.0023
vn -0.0937 0.5774 0.8111
vn -0.7762 -0.6305 0.0003
vn -0.9766 0.2153 -0.0029
vn 0.0027 -0.0009 -1.0000
vn 0.0019 -0.0030 -1.0000
vn 0.0022 -0.0033 -1.0000
vn 0.9450 0.3270 0.0010
vn -0.7557 0.6549 -0.0038
vn -0.1893 -0.9819 0.0028
vn 0.0033 0.0021 -1.0000
vn 0.0034 0.0026 -1.0000
vn -0.0096 0.0007 1.0000
vn 0.6751 0.7377 -0.0009
vn 0.9866 -0.1633 0.0027
vn -0.0011 0.0091 1.0000
vn -0.3595 0.9331 -0.0038
vn 0.0064 -0.0069 -1.0000
vn 0.0068 -0.0073 -1.0000
vn 0.2941 -0.9558 0.0038
vn 0.0024 -0.0008 1.0000
vn -0.0022 0.0033 1.0000
vn 0.2972 0.5020 0.8122
vn 0.2811 -0.5060 0.8155
vn 0.5482 0.1930 0.8138
vn 0.5419 -0.2051 0.8150
vn -0.1120 -0.5688 0.8148
vn -0.4536 -0.3643 0.8134
vn -0.5837 0.0119 0.8118
vn -0.4416 0.3838 0.8110
vn 0.0028 -0.0031 -1.0000
usemtl None
s 1
f 1/1/1 2/2/1 3/3/1
f 4/4/2 3/3/2 5/5/2
f 6/6/3 7/7/3 8/8/3
f 9/9/4 10/10/4 11/11/4
f 12/12/5 11/11/5 13/13/5
f 10/14/6 14/15/7 15/16/7
f 6/6/8 16/17/8 17/18/8
f 18/19/9 19/20/9 20/21/9
f 21/22/10 17/18/10 22/23/10
f 23/24/11 22/23/11 24/25/11
f 22/26/12 13/27/13 3/28/14
f 25/29/15 15/30/15 14/31/15
f 26/32/16 27/33/16 8/8/16
f 28/34/17 24/25/17 29/35/17
f 22/26/12 2/36/18 29/37/19
f 30/38/20 25/39/20 31/40/20
f 18/19/21 13/13/21 27/33/21
f 1/1/22 32/41/22 29/42/22
f 1/43/23 23/44/23 28/45/23
f 10/10/24 9/9/24 31/46/24
f 13/27/13 16/47/25 8/48/26
f 30/49/27 5/5/27 15/30/27
f 6/50/28 18/51/28 26/52/28
f 33/53/29 34/54/29 19/55/29
f 12/12/30 20/21/30 34/56/30
f 1/1/31 4/4/31 35/57/31
f 30/38/32 9/58/32 34/54/32
f 4/4/33 30/49/33 36/59/33
f 23/44/34 1/43/34 33/53/34
f 21/22/35 23/24/35 37/60/35
f 21/22/36 38/61/36 39/62/36
f 18/51/37 6/50/37 39/63/37
f 1/1/1 3/3/1 4/4/1
f 4/4/2 5/5/2 30/49/2
f 6/6/3 8/8/3 16/17/3
f 9/9/4 11/11/4 12/12/4
f 12/12/5 13/13/5 18/19/5
f 10/14/6 15/16/7 5/64/38
f 6/6/8 17/18/8 21/22/8
f 18/19/9 20/21/9 12/12/9
f 21/22/10 22/23/10 23/24/10
f 23/24/11 24/25/11 28/34/11
f 22/26/12 3/28/14 2/36/18
f 3/28/14 13/27/13 5/64/38
f 5/64/38 13/27/13 10/14/6
f 10/14/6 13/27/13 11/65/14
f 13/27/13 17/66/14 16/47/25
f 17/66/14 13/27/13 22/26/12
f 25/29/15 14/31/15 31/46/15
f 26/32/16 8/8/16 7/7/16
f 28/34/17 29/35/17 32/67/17
f 22/26/12 29/37/19 24/68/19
f 30/38/20 31/40/20 9/58/20
f 18/19/21 27/33/21 26/32/21
f 1/1/22 29/42/22 2/2/22
f 1/43/23 28/45/23 32/69/23
f 10/10/24 31/46/24 14/31/24
f 13/27/13 8/48/26 27/70/26
f 30/49/27 15/30/27 25/29/27
f 6/50/28 26/52/28 7/71/28
f 36/72/29 33/53/29 35/73/29
f 33/53/29 19/55/29 37/74/29
f 37/74/29 19/55/29 38/75/29
f 38/75/29 19/55/29 39/63/29
f 19/55/29 34/54/29 20/76/29
f 34/54/29 33/53/29 36/72/29
f 12/12/30 34/56/30 9/9/30
f 1/1/31 35/57/31 33/77/31
f 30/38/32 34/54/32 36/72/32
f 4/4/33 36/59/33 35/57/33
f 23/44/34 33/53/34 37/74/34
f 21/22/35 37/60/35 38/61/35
f 21/22/36 39/62/36 6/6/36
f 18/51/37 39/63/37 19/55/37
