# Blender v2.91.0 OBJ File: ''
# www.blender.org
mtllib doorwall.mtl
o Cube_Cube.003
v -10.686666 -5.598310 -0.183041
v -10.686666 -0.420361 0.244181
v -10.686666 -0.420361 -0.183039
v 3.787066 -5.598310 0.244179
v 13.077488 -0.420361 0.244181
v 3.787066 -0.420361 0.244181
v 13.077488 -5.598310 0.244179
v 13.077488 -0.420361 -0.183039
v -0.712406 -5.598310 -0.183041
v -0.712406 -0.420361 -0.183039
v 13.077488 15.232366 0.244183
v 10.277434 15.232366 -0.183037
v 10.277434 15.232366 0.244183
v -10.686666 -5.598310 0.244179
v -0.712406 -5.598310 0.244179
v 3.787066 -5.598310 -0.183041
v -0.712406 15.232366 0.244183
v -10.686666 15.232366 -0.183037
v -10.686666 15.232366 0.244183
v -0.712406 -0.420361 0.244181
v 13.077488 -5.598310 -0.183041
v 3.787066 -0.420361 -0.183039
v -0.712406 15.232366 -0.183037
v 3.787066 -5.598310 -0.183429
v 13.077488 15.232366 -0.183037
v -0.712406 -0.420361 -0.183427
v -0.712406 -5.598310 -0.183429
v 3.787066 -0.420361 -0.183427
vt -2.787096 -0.349253
vt -1.146421 0.485449
vt -2.792842 0.473957
vt 0.238864 -0.328133
vt 0.500000 0.496940
vt 0.233118 0.495077
vt 0.505746 -0.326270
vt 2.146421 0.508432
vt 2.847909 -0.309923
vt 3.792842 0.519923
vt 2.842163 0.513288
vt 0.494254 1.320151
vt 2.138813 1.598525
vt 0.492392 1.587033
vt 0.517237 -1.972692
vt 2.157023 -1.010521
vt 0.510602 -1.022012
vt 2.154030 -0.581661
vt 0.507609 -0.593153
vt 0.489398 2.015893
vt 2.129184 2.978064
vt 0.482763 2.966572
vt -1.140675 -0.337762
vt -0.195742 0.492084
vt 2.152167 -0.314779
vt 2.413303 0.510294
vt 2.135819 2.027384
vt 0.238864 -0.328133
vt 0.485765 1.371244
vt -0.125939 -0.371244
vt 0.485765 -0.371244
vt -0.095992 -0.387701
vt 0.049230 1.298870
vt -0.101447 1.296918
vt 1.040940 1.371244
vt 1.040940 -0.371244
vt 0.403947 -0.381226
vt 0.640619 1.306530
vt 0.646074 -0.378089
vt 1.177357 1.313483
vt -0.006871 -0.504367
vt 0.020541 1.504367
vt -0.006870 1.504367
vt 0.235320 1.371244
vt -0.281792 -0.371244
vt 0.326953 1.237130
vt 0.306835 -0.237130
vt 0.326953 -0.237130
vt -0.189996 -0.331126
vt -0.195742 0.492084
vt 0.510602 -1.022012
vt 0.233118 0.495077
vt 3.798588 -0.303287
vt 2.140676 1.331642
vt 2.163659 -1.961200
vt 2.419049 -0.312916
vt 1.182812 -0.371137
vt 0.020541 -0.504367
vt -0.281793 1.371244
vt 0.306834 1.237130
vt -0.189996 -0.331126
vt 0.507609 -0.593153
vn -1.0000 -0.0000 0.0000
vn 0.0000 -0.0000 1.0000
vn 1.0000 -0.0000 0.0000
vn 0.0000 0.0000 -1.0000
vn 0.0000 1.0000 0.0000
vn 0.0000 -1.0000 0.0000
usemtl Material.013
s 1
f 1/1/1 2/2/1 3/3/1
f 4/4/2 5/5/2 6/6/2
f 7/7/3 8/8/3 5/5/3
f 9/9/4 3/10/4 10/11/4
f 11/12/5 12/13/5 13/14/5
f 14/15/6 9/16/6 15/17/6
f 15/17/6 16/18/6 4/19/6
f 17/20/5 18/21/5 19/22/5
f 14/23/2 20/24/2 2/2/2
f 21/25/4 22/26/4 8/8/4
f 4/19/6 21/25/6 7/7/6
f 13/14/5 23/27/5 17/20/5
f 6/6/1 24/28/1 4/4/1
f 20/29/2 13/30/2 17/31/2
f 8/32/4 12/33/4 25/34/4
f 2/35/2 17/31/2 19/36/2
f 22/37/4 23/38/4 12/33/4
f 10/39/4 18/40/4 23/38/4
f 5/41/3 25/42/3 11/43/3
f 6/44/2 11/45/2 13/30/2
f 3/46/1 19/47/1 18/48/1
f 15/49/3 26/50/3 20/24/3
f 4/19/5 27/51/5 15/17/5
f 20/24/6 28/52/6 6/6/6
f 1/1/1 14/23/1 2/2/1
f 4/4/2 7/7/2 5/5/2
f 7/7/3 21/25/3 8/8/3
f 9/9/4 1/53/4 3/10/4
f 11/12/5 25/54/5 12/13/5
f 14/15/6 1/55/6 9/16/6
f 15/17/6 9/16/6 16/18/6
f 17/20/5 23/27/5 18/21/5
f 14/23/2 15/49/2 20/24/2
f 21/25/4 16/56/4 22/26/4
f 4/19/6 16/18/6 21/25/6
f 13/14/5 12/13/5 23/27/5
f 6/6/1 28/52/1 24/28/1
f 20/29/2 6/44/2 13/30/2
f 8/32/4 22/37/4 12/33/4
f 2/35/2 20/29/2 17/31/2
f 22/37/4 10/39/4 23/38/4
f 10/39/4 3/57/4 18/40/4
f 5/41/3 8/58/3 25/42/3
f 6/44/2 5/59/2 11/45/2
f 3/46/1 2/60/1 19/47/1
f 15/49/3 27/61/3 26/50/3
f 4/19/5 24/62/5 27/51/5
f 20/24/6 26/50/6 28/52/6
