# Blender v2.91.0 OBJ File: ''
# www.blender.org
mtllib floor1.mtl
o Cube.004
v -10.407681 2.795236 39.359711
v 10.407681 2.795236 39.359711
v 10.407681 2.795271 -18.398392
v 10.407681 -0.527389 -18.398392
v -10.407681 -0.527389 -18.398392
v -10.407681 2.795271 -18.398392
v -10.407681 -0.527424 39.359711
v 10.407681 -0.527424 39.359711
vt 1.599356 0.500000
vt 0.866452 0.500000
vt 0.866452 1.232904
vt 0.133548 1.232904
vt 0.133548 1.965808
vt 0.866452 -0.965808
vt 0.133548 -0.965808
vt 0.133548 -0.232904
vt 0.133548 0.500000
vt -0.599356 0.500000
vt -0.599356 1.232904
vt 0.866452 -0.232904
vt 1.599356 1.232904
vt 0.866452 1.965808
vn 0.0000 1.0000 0.0000
vn 0.0000 0.0000 -1.0000
vn -1.0000 0.0000 0.0000
vn 0.0000 -1.0000 -0.0000
vn 1.0000 0.0000 0.0000
vn 0.0000 0.0000 1.0000
usemtl Material.009
s 1
f 1/1/1 2/2/1 3/3/1
f 3/3/2 4/4/2 5/5/2
f 6/6/3 5/7/3 7/8/3
f 8/9/4 7/10/4 5/11/4
f 2/2/5 8/9/5 4/4/5
f 1/12/6 7/8/6 8/9/6
f 1/1/1 3/3/1 6/13/1
f 3/3/2 5/5/2 6/14/2
f 6/6/3 7/8/3 1/12/3
f 8/9/4 5/11/4 4/4/4
f 2/2/5 4/4/5 3/3/5
f 1/12/6 8/9/6 2/2/6
