# Blender v2.91.0 OBJ File: ''
# www.blender.org
mtllib glide.mtl
o Cube
v 2.293824 0.059492 -1.474008
v 2.293824 -0.059492 -1.474008
v 2.293824 0.059492 1.474008
v 2.293824 -0.059492 1.474008
v -2.293824 0.059492 -1.474008
v -2.293824 -0.059492 -1.474008
v -2.293824 0.059492 1.474008
v -2.293824 -0.059492 1.474008
v -1.994455 -0.059492 -1.474008
v -1.994455 0.059492 1.474008
v -1.994455 -0.059492 1.474008
v -1.994455 0.059492 -1.474008
v 1.988660 -0.059492 1.474008
v 1.988660 0.059492 -1.474008
v 1.988660 -0.059492 -1.474008
v 1.988660 0.059492 1.474008
v -2.293824 -1.274436 -1.474008
v -2.293824 -1.274436 1.474008
v -1.994455 -1.274436 -1.474008
v 1.988660 -1.274436 1.474008
v 2.293824 -1.274436 1.474008
v 2.293824 -1.274436 -1.474008
v -1.994455 -1.274436 1.474008
v 1.988660 -1.274436 -1.474008
v -2.293824 -0.059492 -0.213738
v 2.293824 0.059492 -0.213738
v -2.293824 0.059492 -0.213738
v 2.293824 -0.059492 -0.213738
v -1.994455 -0.059492 -0.213738
v -1.994455 0.059492 -0.213738
v 1.988660 0.059492 -0.213738
v 1.988660 -0.059492 -0.213738
v -2.293824 -1.274436 -0.213738
v 2.293824 -1.274436 -0.213738
v -1.994455 -1.274436 -0.213738
v 1.988660 -1.274436 -0.213738
v -2.293824 -0.059492 0.156403
v 2.293824 0.059492 0.156403
v -1.994455 -0.059492 0.156403
v -1.994455 0.059492 0.156403
v 1.988660 0.059492 0.156403
v 1.988660 -0.059492 0.156403
v -2.293824 -1.274436 0.156403
v -1.994455 -1.274436 0.156403
v 1.988660 -1.274436 0.156403
v -2.293824 0.059492 0.156403
v 2.293824 -0.059492 0.156403
v 2.293824 -1.274436 0.156403
v -1.994455 0.714053 1.474008
v -2.293824 0.714053 1.474008
v 2.293824 0.714053 0.156403
v 2.293824 0.714053 1.474008
v -2.293824 0.714053 -0.213738
v -2.293824 0.714053 -1.474008
v 1.988660 0.714053 -1.474008
v 2.293824 0.714053 -1.474008
v -1.994455 0.714053 -1.474008
v -1.994455 0.714053 0.156403
v 1.988660 0.714053 1.474008
v 1.988660 0.714053 0.156403
v 2.293824 0.714053 -0.213738
v -2.293824 0.714053 0.156403
v -1.994455 0.714053 -0.213738
v 1.988660 0.714053 -0.213738
vt 0.625000 0.111737
vt 0.625000 0.143126
vt 0.625000 0.143126
vt 0.625000 0.983686
vt 0.375000 1.000000
vt 0.375000 0.983686
vt 0.375000 0.250000
vt 0.375000 0.143126
vt 0.375000 0.766630
vt 0.375000 0.750000
vt 0.375000 0.750000
vt 0.625000 0.638263
vt 0.375000 0.638263
vt 0.625000 0.483370
vt 0.375000 0.500000
vt 0.375000 0.483370
vt 0.625000 0.250000
vt 0.375000 0.266314
vt 0.375000 0.250000
vt 0.625000 0.766630
vt 0.858686 0.638263
vt 0.641630 0.750000
vt 0.641630 0.638263
vt 0.625000 0.250000
vt 0.625000 0.750000
vt 0.625000 0.266314
vt 0.358370 0.638263
vt 0.141314 0.750000
vt 0.141314 0.638263
vt 0.375000 0.638263
vt 0.358370 0.750000
vt 0.358370 0.638263
vt 0.141314 0.638263
vt 0.125000 0.750000
vt 0.125000 0.638263
vt 0.375000 0.483370
vt 0.375000 0.143126
vt 0.358370 0.500000
vt 0.358370 0.606874
vt 0.358370 0.606874
vt 0.375000 0.983686
vt 0.375000 0.606874
vt 0.375000 0.500000
vt 0.375000 0.111737
vt 0.375000 0.111737
vt 0.141314 0.606874
vt 0.141314 0.500000
vt 0.141314 0.500000
vt 0.125000 0.606874
vt 0.125000 0.500000
vt 0.358370 0.500000
vt 0.625000 0.766630
vt 0.858686 0.500000
vt 0.641630 0.606874
vt 0.641630 0.500000
vt 0.625000 0.500000
vt 0.625000 0.606874
vt 0.625000 0.606874
vt 0.625000 0.000000
vt 0.375000 0.000000
vt 0.375000 0.000000
vt 0.358370 0.750000
vt 0.375000 0.606874
vt 0.141314 0.606874
vt 0.625000 0.266314
vt 0.858686 0.606874
vt 0.625000 0.750000
vt 0.875000 0.638263
vt 0.858686 0.750000
vt 0.858686 0.638263
vt 0.641630 0.638263
vt 0.625000 0.638263
vt 0.641630 0.500000
vt 0.625000 0.500000
vt 0.875000 0.500000
vt 0.858686 0.606874
vt 0.858686 0.500000
vt 0.641630 0.606874
vt 0.875000 0.606874
vt 0.625000 0.111737
vt 0.858686 0.750000
vt 0.625000 1.000000
vt 0.625000 1.000000
vt 0.375000 0.766630
vt 0.375000 0.266314
vt 0.141314 0.750000
vt 0.375000 1.000000
vt 0.875000 0.750000
vt 0.641630 0.750000
vt 0.625000 0.483370
vt 0.625000 0.000000
vt 0.625000 0.983686
vn -1.0000 0.0000 0.0000
vn 0.0000 0.0000 1.0000
vn 1.0000 0.0000 0.0000
vn 0.0000 0.0000 -1.0000
vn 0.0000 1.0000 0.0000
vn 0.0000 -1.0000 0.0000
usemtl Material
s off
f 46/1/1 53/2/1 27/3/1
f 10/4/2 8/5/2 11/6/2
f 27/3/1 6/7/1 25/8/1
f 13/9/2 21/10/2 4/11/2
f 38/12/3 4/11/3 47/13/3
f 14/14/4 2/15/4 15/16/4
f 5/17/4 9/18/4 6/7/4
f 9/18/4 17/19/4 6/7/4
f 16/20/2 11/6/2 13/9/2
f 40/21/5 16/22/5 41/23/5
f 27/3/1 54/24/1 5/17/1
f 3/25/2 13/9/2 4/11/2
f 12/26/4 15/16/4 9/18/4
f 42/27/6 11/28/6 39/29/6
f 48/30/6 20/31/6 45/32/6
f 44/33/6 18/34/6 43/35/6
f 11/28/3 44/33/3 39/29/3
f 2/15/4 24/36/4 15/16/4
f 6/7/1 33/37/1 25/8/1
f 4/11/3 48/30/3 47/13/3
f 15/38/1 36/39/1 32/40/1
f 8/5/2 23/41/2 11/6/2
f 32/40/1 45/32/1 42/27/1
f 28/42/3 22/43/3 2/15/3
f 25/8/1 43/44/1 37/45/1
f 29/46/3 19/47/3 9/48/3
f 19/47/6 33/49/6 17/50/6
f 22/43/6 36/39/6 24/51/6
f 15/38/6 29/46/6 9/48/6
f 3/25/2 59/52/2 16/20/2
f 12/53/5 31/54/5 14/55/5
f 1/56/3 28/42/3 2/15/3
f 46/1/1 25/8/1 37/45/1
f 1/56/3 61/57/3 26/58/3
f 7/59/1 37/45/1 8/60/1
f 37/45/1 18/61/1 8/60/1
f 42/27/1 20/31/1 13/62/1
f 47/13/3 34/63/3 28/42/3
f 39/29/3 35/64/3 29/46/3
f 35/64/6 43/35/6 33/49/6
f 34/63/6 45/32/6 36/39/6
f 32/40/6 39/29/6 29/46/6
f 5/17/4 57/65/4 12/26/4
f 30/66/5 41/23/5 31/54/5
f 26/58/3 47/13/3 28/42/3
f 38/12/3 52/67/3 3/25/3
f 62/68/5 49/69/5 58/70/5
f 60/71/5 52/67/5 51/72/5
f 55/73/5 61/57/5 56/74/5
f 54/75/5 63/76/5 57/77/5
f 64/78/5 51/72/5 61/57/5
f 53/79/5 58/70/5 63/76/5
f 16/22/1 60/71/1 41/23/1
f 26/58/3 51/72/3 38/12/3
f 14/14/4 56/74/4 1/56/4
f 7/59/1 62/80/1 46/1/1
f 40/21/3 49/69/3 10/81/3
f 30/66/3 58/70/3 40/21/3
f 12/53/3 63/76/3 30/66/3
f 41/23/1 64/78/1 31/54/1
f 31/54/1 55/73/1 14/55/1
f 10/4/2 50/82/2 7/83/2
f 46/1/1 62/80/1 53/2/1
f 10/4/2 7/83/2 8/5/2
f 27/3/1 5/17/1 6/7/1
f 13/9/2 20/84/2 21/10/2
f 38/12/3 3/25/3 4/11/3
f 14/14/4 1/56/4 2/15/4
f 5/17/4 12/26/4 9/18/4
f 9/18/4 19/85/4 17/19/4
f 16/20/2 10/4/2 11/6/2
f 40/21/5 10/81/5 16/22/5
f 27/3/1 53/2/1 54/24/1
f 3/25/2 16/20/2 13/9/2
f 12/26/4 14/14/4 15/16/4
f 42/27/6 13/62/6 11/28/6
f 48/30/6 21/10/6 20/31/6
f 44/33/6 23/86/6 18/34/6
f 11/28/3 23/86/3 44/33/3
f 2/15/4 22/43/4 24/36/4
f 6/7/1 17/19/1 33/37/1
f 4/11/3 21/10/3 48/30/3
f 15/38/1 24/51/1 36/39/1
f 8/5/2 18/87/2 23/41/2
f 32/40/1 36/39/1 45/32/1
f 28/42/3 34/63/3 22/43/3
f 25/8/1 33/37/1 43/44/1
f 29/46/3 35/64/3 19/47/3
f 19/47/6 35/64/6 33/49/6
f 22/43/6 34/63/6 36/39/6
f 15/38/6 32/40/6 29/46/6
f 3/25/2 52/67/2 59/52/2
f 12/53/5 30/66/5 31/54/5
f 1/56/3 26/58/3 28/42/3
f 46/1/1 27/3/1 25/8/1
f 1/56/3 56/74/3 61/57/3
f 7/59/1 46/1/1 37/45/1
f 37/45/1 43/44/1 18/61/1
f 42/27/1 45/32/1 20/31/1
f 47/13/3 48/30/3 34/63/3
f 39/29/3 44/33/3 35/64/3
f 35/64/6 44/33/6 43/35/6
f 34/63/6 48/30/6 45/32/6
f 32/40/6 42/27/6 39/29/6
f 5/17/4 54/24/4 57/65/4
f 30/66/5 40/21/5 41/23/5
f 26/58/3 38/12/3 47/13/3
f 38/12/3 51/72/3 52/67/3
f 62/68/5 50/88/5 49/69/5
f 60/71/5 59/89/5 52/67/5
f 55/73/5 64/78/5 61/57/5
f 54/75/5 53/79/5 63/76/5
f 64/78/5 60/71/5 51/72/5
f 53/79/5 62/68/5 58/70/5
f 16/22/1 59/89/1 60/71/1
f 26/58/3 61/57/3 51/72/3
f 14/14/4 55/90/4 56/74/4
f 7/59/1 50/91/1 62/80/1
f 40/21/3 58/70/3 49/69/3
f 30/66/3 63/76/3 58/70/3
f 12/53/3 57/77/3 63/76/3
f 41/23/1 60/71/1 64/78/1
f 31/54/1 64/78/1 55/73/1
f 10/4/2 49/92/2 50/82/2
