# Blender v2.91.0 OBJ File: ''
# www.blender.org
mtllib ground.mtl
o Cube_Cube.001
v -2.491690 5.774995 3.827225
v -2.491690 5.816339 -3.801336
v -2.491690 0.998168 3.801336
v -2.491690 1.039512 -3.827224
v 2.491690 5.774995 3.827225
v 2.491690 5.816339 -3.801336
v 2.491690 0.998168 3.801336
v 2.491690 1.039512 -3.827224
v 2.420446 7.034648 -3.243204
v 2.420446 5.795067 -3.243204
v 2.420446 5.795067 -3.515746
v 2.420446 7.034648 -3.515746
v 2.420446 7.126724 3.688416
v 2.396798 7.126724 3.688416
v 2.396798 7.034647 3.688416
v 2.420446 7.034647 3.688416
v 2.396798 7.126725 -3.243204
v 2.396798 7.126726 -3.515746
v 2.396798 7.034648 -3.515746
v 2.396798 7.034648 -3.243204
v 2.396798 7.126724 3.377121
v 2.420446 7.126724 3.377121
v 2.420446 7.034647 3.377121
v 2.420446 7.126726 -3.515746
v 2.420446 7.126725 -3.243204
v 2.420446 7.126725 0.086335
v 2.420446 7.034647 0.086335
v 2.396798 7.126725 0.086335
v 2.396798 7.034647 0.086335
v 2.396798 7.034647 3.377121
v 2.420446 5.909177 3.688416
v 2.420446 5.795066 3.688416
v 2.420446 5.795066 3.377121
v 2.420446 5.909177 3.377121
v 2.396798 5.795066 3.688416
v 2.396798 5.795066 3.377121
v 2.396798 5.795067 -3.243204
v 2.396798 5.795067 -3.515746
v 2.396798 5.909177 3.377121
v 2.396798 5.909177 3.688416
v 2.420446 6.958053 3.377121
v 2.396798 6.958053 3.377121
v 2.420446 6.862700 3.377121
v 2.396798 6.862700 3.377121
v 2.420446 6.195233 3.377121
v 2.420446 6.195234 -3.239073
v 2.420446 6.290587 -3.239073
v 2.420446 6.290586 3.377121
v 2.420446 6.767349 3.377121
v 2.420446 6.671997 3.377121
v 2.396798 6.671997 3.377121
v 2.396798 6.767349 3.377121
v 2.420446 6.576644 3.377121
v 2.396798 6.576644 3.377121
v 2.420446 6.576645 -3.239073
v 2.396798 6.576645 -3.239073
v 2.420446 6.481292 3.377121
v 2.420446 6.385939 3.377121
v 2.396798 6.385939 3.377121
v 2.396798 6.481292 3.377121
v 2.396798 6.290586 3.377121
v 2.396798 6.004528 3.377121
v 2.396798 6.004529 -3.239073
v 2.396798 5.909179 -3.239073
v 2.420446 6.099881 3.377121
v 2.396798 6.099881 3.377121
v 2.396798 6.195233 3.377121
v 2.420446 6.004528 3.377121
v 2.420446 5.909179 -3.239073
v 2.396798 6.958053 3.688416
v 2.420446 6.958053 3.688416
v 2.396798 6.862700 3.688416
v 2.420446 6.862700 3.688416
v 2.396798 6.767350 3.688416
v 2.420446 6.767350 3.688416
v 2.396798 6.671997 3.688416
v 2.420446 6.671997 3.688416
v 2.396798 6.576644 3.688416
v 2.420446 6.576644 3.688416
v 2.396798 6.481292 3.688416
v 2.420446 6.481292 3.688416
v 2.396798 6.385939 3.688416
v 2.420446 6.385939 3.688416
v 2.396798 6.290586 3.688416
v 2.420446 6.290586 3.688416
v 2.396798 6.195233 3.688416
v 2.420446 6.195233 3.688416
v 2.396798 6.099881 3.688416
v 2.420446 6.099881 3.688416
v 2.396798 6.004528 3.688416
v 2.420446 6.004528 3.688416
v 2.420446 6.862701 -3.239073
v 2.420446 6.767351 -3.239073
v 2.396798 6.767351 -3.239073
v 2.396798 6.862701 -3.239073
v 2.420446 6.481293 -3.239072
v 2.396798 6.481293 -3.239072
v 2.396798 6.195234 -3.239073
v 2.396798 6.290587 -3.239073
v 2.420446 6.004529 -3.239073
vt 2.103826 0.894552
vt 1.299807 0.096149
vt 2.101018 0.093341
vt 1.302615 0.897360
vt 0.498596 0.098957
vt 0.501404 0.900168
vt -0.302615 0.101765
vt -0.299807 0.902977
vt -1.103826 0.104573
vt -0.305423 -0.699446
vt 0.495788 -0.702254
vt 0.504212 1.701380
vt -1.101018 0.905785
vt -0.296999 1.704188
vt 0.625000 0.509458
vt 0.625000 0.500000
vt 0.625000 0.509458
vt 0.375000 1.000000
vt 0.625000 0.750000
vt 0.375000 0.750000
vt 0.375000 0.250000
vt 0.625000 0.240542
vt 0.375000 0.240542
vt 0.125000 0.750000
vt 0.375000 0.739197
vt 0.125000 0.739197
vt 0.625000 0.739197
vt 0.375000 0.500000
vt 0.625000 0.250000
vt 0.375000 0.509458
vt 0.625000 0.625000
vt 0.125000 0.625000
vt 0.125000 0.509458
vt 0.375000 0.125000
vt 0.625000 0.010803
vt 0.375000 0.010803
vt 0.875000 0.509458
vt 0.625000 0.750000
vt 0.625000 0.739197
vt 0.625000 0.750000
vt 0.125000 0.500000
vt 0.625000 0.125000
vt 0.625000 0.000000
vt 0.375000 0.000000
vt 0.375000 0.625000
vt 0.875000 0.625000
vt 0.875000 0.739197
vt 0.625000 0.739197
vt 0.875000 0.500000
vt 0.625000 0.500000
vt 0.625000 0.010803
vt 0.625000 0.000000
vt 0.625000 0.000000
vt 0.625000 1.000000
vt 0.625000 1.000000
vt 0.875000 0.739197
vt 0.875000 0.509458
vt 0.625000 0.240542
vt 0.625000 0.739197
vt 0.875000 0.739197
vt 0.625000 0.739197
vt 0.875000 0.739197
vt 0.625000 0.739197
vt 0.625000 0.739197
vt 0.625000 0.739197
vt 0.625000 0.739197
vt 0.875000 0.739197
vt 0.625000 0.739197
vt 0.625000 0.739197
vt 0.875000 0.739197
vt 0.625000 0.739197
vt 0.875000 0.739197
vt 0.625000 0.739197
vt 0.875000 0.739197
vt 0.625000 0.739197
vt 0.875000 0.739197
vt 0.625000 0.010803
vt 0.625000 0.010803
vt 0.625000 0.739197
vt 0.875000 0.739197
vt 0.625000 0.739197
vt 0.875000 0.739197
vt 0.875000 0.739197
vt 0.625000 1.000000
vt 0.625000 1.000000
vt 0.625000 1.000000
vt 0.625000 0.750000
vt 0.625000 1.000000
vt 0.625000 0.750000
vt 0.625000 1.000000
vt 0.625000 0.750000
vt 0.625000 1.000000
vt 0.625000 0.750000
vt 0.625000 1.000000
vt 0.625000 0.750000
vt 0.625000 1.000000
vt 0.625000 0.750000
vt 0.625000 1.000000
vt 0.625000 0.750000
vt 0.625000 1.000000
vt 0.625000 0.750000
vt 0.625000 1.000000
vt 0.625000 0.750000
vt 0.625000 1.000000
vt 0.625000 0.750000
vt 0.625000 0.750000
vt 0.625000 0.000000
vt 0.625000 0.010803
vt 0.625000 0.000000
vt 0.625000 0.010803
vt 0.625000 0.000000
vt 0.625000 0.010803
vt 0.625000 0.000000
vt 0.625000 0.010803
vt 0.625000 0.000000
vt 0.625000 0.010803
vt 0.625000 0.000000
vt 0.625000 0.010803
vt 0.625000 0.000000
vt 0.625000 0.010803
vt 0.625000 0.000000
vt 0.625000 0.010803
vt 0.625000 0.000000
vt 0.625000 0.010803
vt 0.625000 0.000000
vt 0.625000 0.010803
vt 0.625000 0.000000
vt 0.625000 0.739197
vt 0.875000 0.739197
vt 0.625000 0.739197
vt 0.625000 0.739197
vt 0.875000 0.739197
vt 0.625000 0.739197
vt 0.875000 0.739197
vt 0.625000 0.739197
vt 0.875000 0.739197
vt 0.625000 0.739197
vt 0.875000 0.739197
vt 0.625000 0.010803
vt 0.625000 0.010803
vt 0.875000 0.739197
vt 0.875000 0.739197
vt 0.875000 0.739197
vt 0.875000 0.739197
vt 0.625000 0.010803
vt 0.875000 0.739197
vt 0.875000 0.750000
vt 0.625000 0.250000
vt 0.625000 0.010803
vt 0.625000 0.010803
vt 0.625000 0.010803
vt 0.625000 0.010803
vt 0.625000 0.010803
vn -1.0000 -0.0000 0.0000
vn 0.0000 -1.0000 -0.0054
vn 1.0000 -0.0000 0.0000
vn 0.0000 1.0000 0.0054
vn 0.0000 -0.0054 1.0000
vn 0.0000 0.0054 -1.0000
vn 0.5773 -0.5773 0.5773
vn 0.7071 0.0000 -0.7071
vn 0.9045 -0.3015 0.3015
vn -0.5773 0.5773 0.5773
vn 0.7071 0.0000 0.7071
vn 0.5773 0.5773 0.5773
vn -0.5773 0.5773 -0.5773
vn -0.9045 -0.3015 0.3015
vn -0.7071 0.7071 0.0000
vn 0.7071 0.7071 0.0000
vn 0.9045 -0.3015 -0.3015
vn 0.5773 0.5773 -0.5773
vn -0.7071 0.0000 -0.7071
vn 0.7071 -0.7071 0.0000
vn -0.9045 -0.3015 -0.3015
vn -0.7071 -0.7071 0.0000
vn -0.7071 0.0000 0.7071
vn -0.5773 -0.5773 -0.5773
vn 0.5773 -0.5773 -0.5773
vn -0.5773 -0.5773 0.5773
vn 0.9045 0.3015 -0.3015
vn -0.9045 0.3015 -0.3015
usemtl Material.001
s off
f 2/1/1 3/2/1 1/3/1
f 4/4/2 7/5/2 3/2/2
f 8/6/3 5/7/3 7/5/3
f 6/8/4 1/9/4 5/7/4
f 7/5/5 1/10/5 3/11/5
f 4/12/6 6/8/6 8/6/6
f 2/1/1 4/4/1 3/2/1
f 4/4/2 8/6/2 7/5/2
f 8/6/3 6/8/3 5/7/3
f 6/8/4 2/13/4 1/9/4
f 7/5/5 5/7/5 1/10/5
f 4/12/6 2/14/6 6/8/6
usemtl Material.003
s 1
f 10/15/7 12/16/8 9/17/9
f 14/18/10 16/19/11 13/20/12
f 18/21/13 20/22/14 17/23/15
f 14/24/10 22/25/16 21/26/15
f 22/25/16 16/19/11 23/27/17
f 24/28/18 19/29/19 18/21/13
f 25/30/16 27/31/20 9/17/9
f 28/32/15 25/30/16 17/33/15
f 28/34/15 30/35/21 21/36/15
f 27/31/20 20/37/14 9/17/9
f 32/38/7 34/39/17 31/40/11
f 17/33/15 24/28/18 18/41/13
f 24/28/18 9/17/9 12/16/8
f 17/23/15 29/42/22 28/34/15
f 21/36/15 15/43/23 14/44/10
f 26/45/16 23/27/17 27/31/20
f 21/26/15 26/45/16 28/32/15
f 23/27/17 29/46/22 27/31/20
f 32/38/7 36/47/24 33/48/25
f 10/15/7 38/49/24 11/50/25
f 11/50/25 19/29/19 12/16/8
f 39/51/21 35/52/26 40/53/23
f 35/54/26 31/40/11 40/55/23
f 33/48/25 39/56/21 34/39/17
f 37/57/26 9/17/9 20/37/14
f 19/29/19 37/58/26 20/22/14
f 41/59/8 30/60/21 23/27/17
f 43/61/27 42/62/19 41/59/8
f 45/63/17 47/64/18 48/65/27
f 50/66/8 52/67/21 49/68/17
f 53/69/27 51/70/19 50/66/8
f 55/71/18 54/72/28 53/69/27
f 58/73/8 60/74/21 57/75/17
f 48/65/27 59/76/19 58/73/8
f 63/77/13 39/51/21 62/78/28
f 65/79/8 67/80/21 45/63/17
f 68/81/27 66/82/19 65/79/8
f 64/83/24 34/39/17 39/56/21
f 70/84/23 16/19/11 15/85/23
f 72/86/23 71/87/11 70/84/23
f 74/88/23 73/89/11 72/86/23
f 76/90/23 75/91/11 74/88/23
f 78/92/23 77/93/11 76/90/23
f 80/94/23 79/95/11 78/92/23
f 82/96/23 81/97/11 80/94/23
f 84/98/23 83/99/11 82/96/23
f 86/100/23 85/101/11 84/98/23
f 88/102/23 87/103/11 86/100/23
f 90/104/23 89/105/11 88/102/23
f 40/55/23 91/106/11 90/104/23
f 30/35/21 70/107/23 15/43/23
f 42/108/19 72/109/23 70/107/23
f 44/110/28 74/111/23 72/109/23
f 52/112/21 76/113/23 74/111/23
f 51/114/19 78/115/23 76/113/23
f 54/116/28 80/117/23 78/115/23
f 60/118/21 82/119/23 80/117/23
f 59/120/19 84/121/23 82/119/23
f 61/122/28 86/123/23 84/121/23
f 67/124/21 88/125/23 86/123/23
f 66/126/19 90/127/23 88/125/23
f 62/78/28 40/53/23 90/127/23
f 71/87/11 23/27/17 16/19/11
f 73/89/11 41/59/8 71/87/11
f 75/91/11 43/61/27 73/89/11
f 77/93/11 49/68/17 75/91/11
f 79/95/11 50/66/8 77/93/11
f 81/97/11 53/69/27 79/95/11
f 83/99/11 57/75/17 81/97/11
f 85/101/11 58/73/8 83/99/11
f 87/103/11 48/65/27 85/101/11
f 89/105/11 45/63/17 87/103/11
f 91/106/11 65/79/8 89/105/11
f 31/40/11 68/81/27 91/106/11
f 93/128/25 95/129/13 92/130/18
f 96/131/25 56/132/13 55/71/18
f 46/133/25 99/134/13 47/64/18
f 69/135/25 63/136/13 100/137/18
f 97/138/24 57/75/17 60/74/21
f 95/139/13 52/112/21 44/110/28
f 49/68/17 92/130/18 43/61/27
f 99/140/13 67/124/21 61/122/28
f 47/64/18 61/141/28 48/65/27
f 34/39/17 100/137/18 68/81/27
f 98/142/24 45/63/17 67/80/21
f 92/130/18 44/143/28 43/61/27
f 57/75/17 55/71/18 53/69/27
f 94/144/24 49/68/17 52/67/21
f 56/145/13 60/118/21 54/116/28
f 100/137/18 62/146/28 68/81/27
f 10/15/7 11/50/25 12/16/8
f 14/18/10 15/85/23 16/19/11
f 18/21/13 19/29/19 20/22/14
f 14/24/10 13/20/12 22/25/16
f 22/25/16 13/20/12 16/19/11
f 24/28/18 12/16/8 19/29/19
f 25/30/16 26/45/16 27/31/20
f 28/32/15 26/45/16 25/30/16
f 28/34/15 29/42/22 30/35/21
f 27/31/20 29/46/22 20/37/14
f 32/38/7 33/48/25 34/39/17
f 17/33/15 25/30/16 24/28/18
f 24/28/18 25/30/16 9/17/9
f 17/23/15 20/22/14 29/42/22
f 21/36/15 30/35/21 15/43/23
f 26/45/16 22/25/16 23/27/17
f 21/26/15 22/25/16 26/45/16
f 23/27/17 30/60/21 29/46/22
f 32/38/7 35/147/26 36/47/24
f 10/15/7 37/57/26 38/49/24
f 11/50/25 38/148/24 19/29/19
f 39/51/21 36/149/24 35/52/26
f 35/54/26 32/38/7 31/40/11
f 33/48/25 36/47/24 39/56/21
f 37/57/26 10/15/7 9/17/9
f 19/29/19 38/148/24 37/58/26
f 41/59/8 42/62/19 30/60/21
f 43/61/27 44/143/28 42/62/19
f 45/63/17 46/133/25 47/64/18
f 50/66/8 51/70/19 52/67/21
f 53/69/27 54/72/28 51/70/19
f 55/71/18 56/132/13 54/72/28
f 58/73/8 59/76/19 60/74/21
f 48/65/27 61/141/28 59/76/19
f 63/77/13 64/150/24 39/51/21
f 65/79/8 66/82/19 67/80/21
f 68/81/27 62/146/28 66/82/19
f 64/83/24 69/135/25 34/39/17
f 70/84/23 71/87/11 16/19/11
f 72/86/23 73/89/11 71/87/11
f 74/88/23 75/91/11 73/89/11
f 76/90/23 77/93/11 75/91/11
f 78/92/23 79/95/11 77/93/11
f 80/94/23 81/97/11 79/95/11
f 82/96/23 83/99/11 81/97/11
f 84/98/23 85/101/11 83/99/11
f 86/100/23 87/103/11 85/101/11
f 88/102/23 89/105/11 87/103/11
f 90/104/23 91/106/11 89/105/11
f 40/55/23 31/40/11 91/106/11
f 30/35/21 42/108/19 70/107/23
f 42/108/19 44/110/28 72/109/23
f 44/110/28 52/112/21 74/111/23
f 52/112/21 51/114/19 76/113/23
f 51/114/19 54/116/28 78/115/23
f 54/116/28 60/118/21 80/117/23
f 60/118/21 59/120/19 82/119/23
f 59/120/19 61/122/28 84/121/23
f 61/122/28 67/124/21 86/123/23
f 67/124/21 66/126/19 88/125/23
f 66/126/19 62/78/28 90/127/23
f 62/78/28 39/51/21 40/53/23
f 71/87/11 41/59/8 23/27/17
f 73/89/11 43/61/27 41/59/8
f 75/91/11 49/68/17 43/61/27
f 77/93/11 50/66/8 49/68/17
f 79/95/11 53/69/27 50/66/8
f 81/97/11 57/75/17 53/69/27
f 83/99/11 58/73/8 57/75/17
f 85/101/11 48/65/27 58/73/8
f 87/103/11 45/63/17 48/65/27
f 89/105/11 65/79/8 45/63/17
f 91/106/11 68/81/27 65/79/8
f 31/40/11 34/39/17 68/81/27
f 93/128/25 94/144/24 95/129/13
f 96/131/25 97/138/24 56/132/13
f 46/133/25 98/142/24 99/134/13
f 69/135/25 64/83/24 63/136/13
f 97/138/24 96/131/25 57/75/17
f 95/139/13 94/151/24 52/112/21
f 49/68/17 93/128/25 92/130/18
f 99/140/13 98/152/24 67/124/21
f 47/64/18 99/134/13 61/141/28
f 34/39/17 69/135/25 100/137/18
f 98/142/24 46/133/25 45/63/17
f 92/130/18 95/129/13 44/143/28
f 57/75/17 96/131/25 55/71/18
f 94/144/24 93/128/25 49/68/17
f 56/145/13 97/153/24 60/118/21
f 100/137/18 63/136/13 62/146/28
