# Blender v2.91.0 OBJ File: ''
# www.blender.org
mtllib nba1.mtl
o Cube.001
v -7.658526 1.661327 5.916348
v 7.658526 1.661327 5.916348
v 7.658526 1.661333 -5.916346
v 7.658526 -1.661327 -5.916348
v -7.658526 -1.661327 -5.916348
v -7.658526 1.661333 -5.916346
v -7.658526 -1.661333 5.916345
v 7.658526 -1.661333 5.916345
vt 0.824901 0.869544
vt 0.825794 0.209474
vt 0.165724 0.208582
vt 0.625000 0.750000
vt 0.375000 0.750000
vt 0.375000 1.000000
vt 0.625000 0.000000
vt 0.375000 0.000000
vt 0.375000 0.250000
vt 0.375000 0.500000
vt 0.125000 0.500000
vt 0.125000 0.750000
vt 0.625000 0.500000
vt 0.625000 0.250000
vt 0.164831 0.868651
vt 0.625000 1.000000
vn 0.0000 1.0000 0.0000
vn 0.0000 0.0000 -1.0000
vn -1.0000 -0.0000 0.0000
vn 0.0000 -1.0000 -0.0000
vn 1.0000 0.0000 0.0000
vn 0.0000 -0.0000 1.0000
usemtl Material.001
s 1
f 1/1/1 2/2/1 3/3/1
f 3/4/2 4/5/2 5/6/2
f 6/7/3 5/8/3 7/9/3
f 8/10/4 7/11/4 5/12/4
f 2/13/5 8/10/5 4/5/5
f 1/14/6 7/9/6 8/10/6
f 1/1/1 3/3/1 6/15/1
f 3/4/2 5/6/2 6/16/2
f 6/7/3 7/9/3 1/14/3
f 8/10/4 5/12/4 4/5/4
f 2/13/5 4/5/5 3/4/5
f 1/14/6 8/10/6 2/13/6
