# Blender v2.91.0 OBJ File: ''
# www.blender.org
mtllib one.mtl
o Cube
v -0.239544 0.386453 -0.386453
v -0.239544 -0.386453 -0.386453
v -0.239544 0.386453 0.386453
v -0.239544 -0.386453 0.386453
v 0.239544 1.000000 -1.000000
v 0.239544 -1.000000 -1.000000
v 0.239544 1.000000 1.000000
v 0.239544 -1.000000 1.000000
v -0.239544 1.000000 -1.000000
v -0.239544 -1.000000 -1.000000
v -0.239544 1.000000 1.000000
v -0.239544 -1.000000 1.000000
v -1.178051 0.386453 -0.386453
v -1.178051 -0.386453 -0.386453
v -1.178051 0.386453 0.386453
v -1.178051 -0.386453 0.386453
vt 0.875000 0.500000
vt 0.625000 0.500000
vt 0.625000 0.750000
vt 0.375000 0.750000
vt 0.375000 1.000000
vt 0.625000 0.000000
vt 0.375000 0.000000
vt 0.375000 0.250000
vt 0.375000 0.500000
vt 0.125000 0.500000
vt 0.125000 0.750000
vt 0.548307 0.673307
vt 0.548307 0.576693
vt 0.548307 0.576693
vt 0.625000 0.250000
vt 0.451693 0.673307
vt 0.451693 0.576693
vt 0.451693 0.576693
vt 0.451693 0.673307
vt 0.548307 0.673307
vt 0.875000 0.750000
vt 0.625000 1.000000
vn 0.0000 1.0000 0.0000
vn 0.0000 0.0000 1.0000
vn 1.0000 0.0000 0.0000
vn 0.0000 -1.0000 0.0000
vn 0.0000 0.0000 -1.0000
vn -1.0000 0.0000 0.0000
usemtl Material
s off
f 5/1/1 9/2/1 11/3/1
f 11/3/2 12/4/2 8/5/2
f 7/6/3 8/7/3 6/8/3
f 10/9/4 6/10/4 8/11/4
f 3/12/1 1/13/1 13/14/1
f 5/15/5 6/8/5 10/9/5
f 1/13/6 9/2/6 10/9/6
f 4/16/6 12/4/6 11/3/6
f 3/12/6 11/3/6 9/2/6
f 2/17/6 10/9/6 12/4/6
f 13/14/6 14/18/6 16/19/6
f 1/13/5 2/17/5 14/18/5
f 2/17/4 4/16/4 16/19/4
f 4/16/2 3/12/2 15/20/2
f 5/1/1 11/3/1 7/21/1
f 11/3/2 8/5/2 7/22/2
f 7/6/3 6/8/3 5/15/3
f 10/9/4 8/11/4 12/4/4
f 3/12/1 13/14/1 15/20/1
f 5/15/5 10/9/5 9/2/5
f 1/13/6 10/9/6 2/17/6
f 4/16/6 11/3/6 3/12/6
f 3/12/6 9/2/6 1/13/6
f 2/17/6 12/4/6 4/16/6
f 13/14/6 16/19/6 15/20/6
f 1/13/5 14/18/5 13/14/5
f 2/17/4 16/19/4 14/18/4
f 4/16/2 15/20/2 16/19/2
