# Blender v2.91.0 OBJ File: 'untitled.blend'
# www.blender.org
mtllib puck12.mtl
o Cylinder
v -0.000642 0.370157 0.095410
v 0.000765 0.371898 -0.088378
v 0.079300 0.363008 0.095955
v 0.080707 0.364750 -0.087834
v 0.156167 0.341877 0.096343
v 0.157575 0.343618 -0.087446
v 0.227006 0.307573 0.096560
v 0.228414 0.309314 -0.087228
v 0.289095 0.261416 0.096598
v 0.290502 0.263158 -0.087190
v 0.340046 0.205180 0.096456
v 0.341453 0.206921 -0.087333
v 0.377903 0.141025 0.096138
v 0.379310 0.142767 -0.087651
v 0.401210 0.071417 0.095657
v 0.402617 0.073159 -0.088132
v 0.409071 -0.000968 0.095031
v 0.410479 0.000773 -0.088757
v 0.401186 -0.073350 0.094285
v 0.402593 -0.071609 -0.089504
v 0.377856 -0.142947 0.093447
v 0.379263 -0.141206 -0.090342
v 0.339978 -0.207084 0.092549
v 0.341385 -0.205342 -0.091239
v 0.289008 -0.263296 0.091626
v 0.290415 -0.261554 -0.092162
v 0.226904 -0.309423 0.090714
v 0.228311 -0.307682 -0.093075
v 0.156054 -0.343693 0.089846
v 0.157461 -0.341951 -0.093942
v 0.079179 -0.364788 0.089058
v 0.080586 -0.363047 -0.094731
v -0.000765 -0.371898 0.088378
v 0.000642 -0.370157 -0.095410
v -0.080707 -0.364750 0.087834
v -0.079300 -0.363008 -0.095955
v -0.157575 -0.343618 0.087446
v -0.156167 -0.341876 -0.096343
v -0.228414 -0.309314 0.087228
v -0.227007 -0.307573 -0.096560
v -0.290502 -0.263157 0.087190
v -0.289095 -0.261416 -0.096598
v -0.341454 -0.206921 0.087333
v -0.340046 -0.205180 -0.096456
v -0.379310 -0.142766 0.087651
v -0.377903 -0.141025 -0.096138
v -0.402617 -0.073158 0.088132
v -0.401210 -0.071417 -0.095657
v -0.410479 -0.000773 0.088757
v -0.409071 0.000969 -0.095031
v -0.402593 0.071609 0.089504
v -0.401186 0.073351 -0.094285
v -0.379263 0.141206 0.090342
v -0.377855 0.142947 -0.093447
v -0.341385 0.205343 0.091239
v -0.339977 0.207084 -0.092549
v -0.290415 0.261555 0.092162
v -0.289007 0.263296 -0.091626
v -0.228311 0.307682 0.093075
v -0.226904 0.309423 -0.090714
v -0.157460 0.341952 0.093942
v -0.156053 0.343693 -0.089846
v -0.080586 0.363047 0.094731
v -0.079179 0.364788 -0.089058
vt 1.000000 1.000000
vt 1.000000 0.500000
vt 0.968750 0.500000
vt 0.968750 1.000000
vt 0.937500 0.500000
vt 0.937500 1.000000
vt 0.906250 0.500000
vt 0.906250 1.000000
vt 0.875000 0.500000
vt 0.875000 1.000000
vt 0.843750 0.500000
vt 0.843750 1.000000
vt 0.812500 0.500000
vt 0.812500 1.000000
vt 0.781250 0.500000
vt 0.781250 1.000000
vt 0.750000 0.500000
vt 0.750000 1.000000
vt 0.718750 0.500000
vt 0.718750 1.000000
vt 0.687500 0.500000
vt 0.687500 1.000000
vt 0.656250 0.500000
vt 0.656250 1.000000
vt 0.625000 0.500000
vt 0.625000 1.000000
vt 0.593750 0.500000
vt 0.593750 1.000000
vt 0.562500 0.500000
vt 0.562500 1.000000
vt 0.531250 0.500000
vt 0.531250 1.000000
vt 0.500000 0.500000
vt 0.500000 1.000000
vt 0.468750 0.500000
vt 0.468750 1.000000
vt 0.437500 0.500000
vt 0.437500 1.000000
vt 0.406250 0.500000
vt 0.406250 1.000000
vt 0.375000 0.500000
vt 0.375000 1.000000
vt 0.343750 0.500000
vt 0.343750 1.000000
vt 0.312500 0.500000
vt 0.312500 1.000000
vt 0.281250 0.500000
vt 0.281250 1.000000
vt 0.250000 0.500000
vt 0.250000 1.000000
vt 0.218750 0.500000
vt 0.218750 1.000000
vt 0.187500 0.500000
vt 0.187500 1.000000
vt 0.156250 0.500000
vt 0.156250 1.000000
vt 0.125000 0.500000
vt 0.125000 1.000000
vt 0.093750 0.500000
vt 0.093750 1.000000
vt 0.062500 0.500000
vt 0.028269 0.341844
vt 0.471731 0.158156
vt 0.158156 0.028269
vt 0.062500 1.000000
vt 0.031250 0.500000
vt 0.031250 1.000000
vt 0.000000 0.500000
vt 0.985388 0.296822
vt 0.514611 0.203179
vt 0.796822 0.014612
vt 0.341844 0.471731
vt 0.250000 0.490000
vt 0.296822 0.485388
vt 0.203179 0.485389
vt 0.158156 0.471731
vt 0.080295 0.419706
vt 0.116663 0.449553
vt 0.050447 0.383337
vt 0.010000 0.250000
vt 0.014612 0.296822
vt 0.014611 0.203179
vt 0.028269 0.158156
vt 0.050447 0.116663
vt 0.080294 0.080294
vt 0.116663 0.050447
vt 0.250000 0.010000
vt 0.203178 0.014612
vt 0.341844 0.028269
vt 0.296822 0.014612
vt 0.419706 0.080294
vt 0.383337 0.050447
vt 0.449553 0.116663
vt 0.490000 0.250000
vt 0.485388 0.203178
vt 0.485388 0.296822
vt 0.471731 0.341844
vt 0.419706 0.419706
vt 0.449553 0.383337
vt 0.383337 0.449553
vt 0.000000 1.000000
vt 0.703179 0.485389
vt 0.796822 0.485388
vt 0.750000 0.490000
vt 0.883337 0.449553
vt 0.841844 0.471731
vt 0.949553 0.383337
vt 0.919706 0.419706
vt 0.971731 0.341844
vt 0.985388 0.203178
vt 0.990000 0.250000
vt 0.971731 0.158156
vt 0.949553 0.116663
vt 0.919706 0.080294
vt 0.883337 0.050447
vt 0.841844 0.028269
vt 0.703178 0.014612
vt 0.750000 0.010000
vt 0.616663 0.050447
vt 0.658156 0.028269
vt 0.550447 0.116663
vt 0.580294 0.080294
vt 0.528269 0.158156
vt 0.514612 0.296822
vt 0.510000 0.250000
vt 0.550447 0.383337
vt 0.528269 0.341844
vt 0.580295 0.419706
vt 0.616663 0.449553
vt 0.658156 0.471731
vn 0.0890 0.9960 0.0101
vn 0.2650 0.9642 0.0112
vn 0.4358 0.9000 0.0119
vn 0.5966 0.8025 0.0122
vn 0.7410 0.6714 0.0120
vn 0.8612 0.5081 0.0114
vn 0.9482 0.3174 0.0103
vn 0.9941 0.1079 0.0086
vn 0.9941 -0.1084 0.0066
vn 0.9481 -0.3179 0.0042
vn 0.8610 -0.5085 0.0018
vn 0.7408 -0.6717 -0.0007
vn 0.5963 -0.8028 -0.0030
vn 0.4355 -0.9002 -0.0052
vn 0.2647 -0.9643 -0.0071
vn 0.0887 -0.9960 -0.0088
vn -0.0890 -0.9960 -0.0101
vn -0.2650 -0.9642 -0.0112
vn -0.4358 -0.9000 -0.0119
vn -0.5966 -0.8025 -0.0122
vn -0.7410 -0.6714 -0.0120
vn -0.8612 -0.5081 -0.0114
vn -0.9482 -0.3174 -0.0103
vn -0.9941 -0.1079 -0.0086
vn -0.9941 0.1084 -0.0066
vn -0.9481 0.3179 -0.0042
vn -0.8610 0.5085 -0.0018
vn -0.7408 0.6717 0.0007
vn -0.5963 0.8028 0.0030
vn -0.4355 0.9002 0.0052
vn 0.0077 0.0095 -0.9999
vn -0.2647 0.9643 0.0071
vn -0.0887 0.9960 0.0088
vn -0.0077 -0.0095 0.9999
usemtl None
s off
f 2/1/1 1/2/1 3/3/1
f 4/4/2 3/3/2 5/5/2
f 6/6/3 5/5/3 7/7/3
f 8/8/4 7/7/4 9/9/4
f 10/10/5 9/9/5 11/11/5
f 12/12/6 11/11/6 13/13/6
f 14/14/7 13/13/7 15/15/7
f 16/16/8 15/15/8 17/17/8
f 18/18/9 17/17/9 19/19/9
f 20/20/10 19/19/10 21/21/10
f 22/22/11 21/21/11 23/23/11
f 24/24/12 23/23/12 25/25/12
f 26/26/13 25/25/13 27/27/13
f 28/28/14 27/27/14 29/29/14
f 30/30/15 29/29/15 31/31/15
f 32/32/16 31/31/16 33/33/16
f 34/34/17 33/33/17 35/35/17
f 36/36/18 35/35/18 37/37/18
f 38/38/19 37/37/19 39/39/19
f 40/40/20 39/39/20 41/41/20
f 42/42/21 41/41/21 43/43/21
f 44/44/22 43/43/22 45/45/22
f 46/46/23 45/45/23 47/47/23
f 48/48/24 47/47/24 49/49/24
f 50/50/25 49/49/25 51/51/25
f 52/52/26 51/51/26 53/53/26
f 54/54/27 53/53/27 55/55/27
f 56/56/28 55/55/28 57/57/28
f 58/58/29 57/57/29 59/59/29
f 60/60/30 59/59/30 61/61/30
f 54/62/31 22/63/31 38/64/31
f 62/65/32 61/61/32 63/66/32
f 64/67/33 63/66/33 1/68/33
f 15/69/34 47/70/34 31/71/34
f 2/1/1 3/3/1 4/4/1
f 4/4/2 5/5/2 6/6/2
f 6/6/3 7/7/3 8/8/3
f 8/8/4 9/9/4 10/10/4
f 10/10/5 11/11/5 12/12/5
f 12/12/6 13/13/6 14/14/6
f 14/14/7 15/15/7 16/16/7
f 16/16/8 17/17/8 18/18/8
f 18/18/9 19/19/9 20/20/9
f 20/20/10 21/21/10 22/22/10
f 22/22/11 23/23/11 24/24/11
f 24/24/12 25/25/12 26/26/12
f 26/26/13 27/27/13 28/28/13
f 28/28/14 29/29/14 30/30/14
f 30/30/15 31/31/15 32/32/15
f 32/32/16 33/33/16 34/34/16
f 34/34/17 35/35/17 36/36/17
f 36/36/18 37/37/18 38/38/18
f 38/38/19 39/39/19 40/40/19
f 40/40/20 41/41/20 42/42/20
f 42/42/21 43/43/21 44/44/21
f 44/44/22 45/45/22 46/46/22
f 46/46/23 47/47/23 48/48/23
f 48/48/24 49/49/24 50/50/24
f 50/50/25 51/51/25 52/52/25
f 52/52/26 53/53/26 54/54/26
f 54/54/27 55/55/27 56/56/27
f 56/56/28 57/57/28 58/58/28
f 58/58/29 59/59/29 60/60/29
f 60/60/30 61/61/30 62/65/30
f 6/72/31 2/73/31 4/74/31
f 2/73/31 6/72/31 64/75/31
f 64/75/31 6/72/31 62/76/31
f 62/76/31 58/77/31 60/78/31
f 58/77/31 54/62/31 56/79/31
f 54/62/31 50/80/31 52/81/31
f 50/80/31 54/62/31 48/82/31
f 48/82/31 54/62/31 46/83/31
f 46/83/31 38/64/31 44/84/31
f 44/84/31 38/64/31 42/85/31
f 42/85/31 38/64/31 40/86/31
f 38/64/31 34/87/31 36/88/31
f 34/87/31 30/89/31 32/90/31
f 30/89/31 26/91/31 28/92/31
f 26/91/31 22/63/31 24/93/31
f 22/63/31 18/94/31 20/95/31
f 18/94/31 22/63/31 16/96/31
f 16/96/31 22/63/31 14/97/31
f 14/97/31 10/98/31 12/99/31
f 10/98/31 6/72/31 8/100/31
f 62/76/31 6/72/31 58/77/31
f 58/77/31 6/72/31 54/62/31
f 38/64/31 22/63/31 34/87/31
f 34/87/31 22/63/31 30/89/31
f 30/89/31 22/63/31 26/91/31
f 14/97/31 22/63/31 10/98/31
f 10/98/31 22/63/31 6/72/31
f 54/62/31 38/64/31 46/83/31
f 6/72/31 22/63/31 54/62/31
f 62/65/32 63/66/32 64/67/32
f 64/67/33 1/68/33 2/101/33
f 63/102/34 3/103/34 1/104/34
f 3/103/34 7/105/34 5/106/34
f 7/105/34 11/107/34 9/108/34
f 11/107/34 7/105/34 13/109/34
f 13/109/34 7/105/34 15/69/34
f 15/69/34 19/110/34 17/111/34
f 19/110/34 15/69/34 21/112/34
f 21/112/34 15/69/34 23/113/34
f 23/113/34 31/71/34 25/114/34
f 25/114/34 31/71/34 27/115/34
f 27/115/34 31/71/34 29/116/34
f 31/71/34 35/117/34 33/118/34
f 35/117/34 39/119/34 37/120/34
f 39/119/34 43/121/34 41/122/34
f 43/121/34 47/70/34 45/123/34
f 47/70/34 51/124/34 49/125/34
f 51/124/34 55/126/34 53/127/34
f 55/126/34 63/102/34 57/128/34
f 57/128/34 63/102/34 59/129/34
f 59/129/34 63/102/34 61/130/34
f 63/102/34 7/105/34 3/103/34
f 31/71/34 47/70/34 35/117/34
f 35/117/34 47/70/34 39/119/34
f 39/119/34 47/70/34 43/121/34
f 47/70/34 63/102/34 51/124/34
f 51/124/34 63/102/34 55/126/34
f 63/102/34 15/69/34 7/105/34
f 15/69/34 31/71/34 23/113/34
f 63/102/34 47/70/34 15/69/34
