# Blender v2.91.0 OBJ File: ''
# www.blender.org
mtllib smallerpillar.mtl
o Cube.013
v -2.071298 8.900979 2.726477
v -2.212620 8.805112 2.851161
v -2.061706 8.908250 2.844450
v 2.229731 -0.875468 2.742068
v -2.222212 8.797840 2.733187
v 2.088410 -0.971335 2.866752
v 2.078818 -0.978606 2.748778
v 2.239323 -0.868198 2.860041
v -2.048135 -0.757572 0.059095
v -2.220558 -0.757571 -0.059096
v -2.048135 -0.757572 -0.059096
v -2.220558 8.743714 0.059099
v -2.048135 8.743714 0.059099
v -2.220558 -0.757572 0.059095
v -2.220558 8.743714 -0.059092
v -2.048135 8.743714 -0.059092
v -2.022262 -0.772579 -2.978536
v -2.195198 -0.777100 -2.860675
v -2.194684 -0.772828 -2.978846
v -2.204427 8.722543 -2.770043
v -2.022776 -0.776851 -2.860365
v -2.032004 8.722791 -2.769733
v -2.203912 8.726815 -2.888215
v -2.031490 8.727064 -2.887905
v -2.048135 -0.757575 2.892350
v -2.220558 -0.757575 2.774158
v -2.048135 -0.757575 2.774158
v -2.220558 8.743711 2.892354
v -2.048135 8.743711 2.892354
v -2.220558 8.743712 2.774162
v -2.220558 -0.757575 2.892350
v -2.048135 8.743712 2.774162
v 2.287259 -0.757572 0.059095
v 2.114836 -0.757572 -0.059096
v 2.287259 -0.757572 -0.059096
v 2.114836 8.743714 0.059099
v 2.287259 8.743714 0.059099
v 2.114836 8.743714 -0.059092
v 2.114836 -0.757572 0.059096
v 2.287258 8.743714 -0.059092
v 2.287259 -0.757569 -2.771494
v 2.114836 -0.757568 -2.889687
v 2.287259 -0.757569 -2.889687
v 2.114836 8.743718 -2.771490
v 2.287258 8.743718 -2.771491
v 2.114836 -0.757569 -2.771494
v 2.114836 8.743718 -2.889682
v 2.287258 8.743718 -2.889682
v 2.287259 -0.757575 2.892350
v 2.114836 -0.757575 2.774158
v 2.287259 -0.757575 2.774158
v 2.114836 8.743711 2.892354
v 2.287258 8.743711 2.892354
v 2.114836 8.743712 2.774162
v 2.114836 -0.757575 2.892350
v 2.287259 8.743712 2.774162
v -2.021461 5.823112 2.809299
v -2.194397 6.052568 2.808993
v -2.193883 5.822512 2.809433
v -2.205227 6.010919 -2.919342
v -2.021976 6.053167 2.808857
v -2.032805 6.011517 -2.919476
v -2.204713 5.780859 -2.918901
v -2.032291 5.781456 -2.919035
v -2.061706 8.908255 -2.767290
v -2.222212 8.797846 -2.878551
v -2.212620 8.805117 -2.760579
v 2.229731 -0.875462 -2.869672
v -2.071298 8.900984 -2.885263
v 2.088410 -0.971328 -2.744989
v 2.078818 -0.978600 -2.862962
v 2.239323 -0.868191 -2.751699
v 2.296846 5.823111 2.809299
v 2.123909 6.052568 2.808993
v 2.124424 5.822511 2.809433
v 2.285502 6.011515 -2.919476
v 2.296332 6.053167 2.808857
v 2.113594 5.780859 -2.918900
v 2.113080 6.010919 -2.919343
v 2.286016 5.781456 -2.919034
v 2.296331 2.317626 2.808855
v 2.124424 2.086972 2.809433
v 2.296846 2.087569 2.809297
v 2.113080 2.275378 -2.919344
v 2.285502 2.275975 -2.919477
v 2.113594 2.045321 -2.918904
v 2.123909 2.317029 2.808991
v 2.286016 2.045918 -2.919037
v -2.275545 -0.828966 -2.885269
v -2.136025 -0.928849 -2.760584
v -2.285537 -0.822587 -2.767296
v 2.153136 8.858504 -2.869667
v -2.126033 -0.935229 -2.878559
v 2.302649 8.752242 -2.862957
v 2.292656 8.758619 -2.744984
v 2.143144 8.864883 -2.751694
v -2.285537 -0.822593 2.844445
v -2.126033 -0.935234 2.733182
v -2.136025 -0.928855 2.851156
v 2.302648 8.752235 2.748783
v -2.275545 -0.828973 2.726471
v 2.153136 8.858498 2.742072
v 2.292657 8.758615 2.866757
v 2.143144 8.864877 2.860046
vt 0.625000 0.750000
vt 0.875000 0.500000
vt 0.625000 0.500000
vt 0.375000 0.750000
vt 0.625000 1.000000
vt 0.375000 0.250000
vt 0.625000 0.000000
vt 0.375000 0.000000
vt 0.125000 0.500000
vt 0.375000 0.500000
vt 0.625000 0.250000
vt 0.875000 0.750000
vt 0.375000 1.000000
vt 0.125000 0.750000
vt 0.625000 0.750000
vt 0.875000 0.500000
vt 0.625000 0.500000
vt 0.375000 1.000000
vt 0.375000 0.750000
vt 0.375000 0.000000
vt 0.625000 0.250000
vt 0.625000 0.000000
vt 0.125000 0.500000
vt 0.375000 0.500000
vt 0.375000 0.250000
vt 0.875000 0.750000
vt 0.625000 1.000000
vt 0.125000 0.750000
vt 0.625000 0.500000
vt 0.875000 0.750000
vt 0.875000 0.500000
vt 0.375000 1.000000
vt 0.625000 0.750000
vt 0.375000 0.750000
vt 0.375000 0.250000
vt 0.625000 0.000000
vt 0.375000 0.000000
vt 0.125000 0.500000
vt 0.375000 0.500000
vt 0.625000 0.250000
vt 0.625000 1.000000
vt 0.125000 0.750000
vt 0.625000 0.750000
vt 0.875000 0.500000
vt 0.625000 0.500000
vt 0.375000 1.000000
vt 0.375000 0.750000
vt 0.375000 0.250000
vt 0.625000 0.000000
vt 0.375000 0.000000
vt 0.125000 0.750000
vt 0.375000 0.500000
vt 0.125000 0.500000
vt 0.625000 0.250000
vt 0.875000 0.750000
vt 0.625000 1.000000
vt 0.625000 0.750000
vt 0.875000 0.500000
vt 0.625000 0.500000
vt 0.375000 1.000000
vt 0.375000 0.750000
vt 0.375000 0.250000
vt 0.625000 0.000000
vt 0.375000 0.000000
vt 0.125000 0.750000
vt 0.375000 0.500000
vt 0.125000 0.500000
vt 0.625000 0.250000
vt 0.875000 0.750000
vt 0.625000 1.000000
vt 0.625000 0.750000
vt 0.875000 0.500000
vt 0.625000 0.500000
vt 0.375000 1.000000
vt 0.375000 0.750000
vt 0.375000 0.000000
vt 0.625000 0.250000
vt 0.625000 0.000000
vt 0.125000 0.500000
vt 0.375000 0.500000
vt 0.375000 0.250000
vt 0.875000 0.750000
vt 0.625000 1.000000
vt 0.125000 0.750000
vt 0.625000 0.750000
vt 0.875000 0.500000
vt 0.625000 0.500000
vt 0.375000 1.000000
vt 0.375000 0.750000
vt 0.375000 0.250000
vt 0.625000 0.000000
vt 0.375000 0.000000
vt 0.125000 0.500000
vt 0.375000 0.500000
vt 0.625000 0.250000
vt 0.875000 0.750000
vt 0.625000 1.000000
vt 0.125000 0.750000
vt 0.625000 0.500000
vt 0.875000 0.750000
vt 0.875000 0.500000
vt 0.375000 1.000000
vt 0.625000 0.750000
vt 0.375000 0.750000
vt 0.375000 0.000000
vt 0.625000 0.250000
vt 0.625000 0.000000
vt 0.125000 0.500000
vt 0.375000 0.500000
vt 0.375000 0.250000
vt 0.625000 1.000000
vt 0.125000 0.750000
vt 0.625000 0.500000
vt 0.875000 0.750000
vt 0.875000 0.500000
vt 0.375000 0.750000
vt 0.625000 1.000000
vt 0.625000 0.750000
vt 0.375000 0.250000
vt 0.625000 0.000000
vt 0.375000 0.000000
vt 0.125000 0.500000
vt 0.375000 0.500000
vt 0.625000 0.250000
vt 0.375000 1.000000
vt 0.125000 0.750000
vt 0.625000 0.500000
vt 0.875000 0.750000
vt 0.875000 0.500000
vt 0.375000 0.750000
vt 0.625000 1.000000
vt 0.625000 0.750000
vt 0.375000 0.250000
vt 0.625000 0.000000
vt 0.375000 0.000000
vt 0.125000 0.500000
vt 0.375000 0.500000
vt 0.625000 0.250000
vt 0.375000 1.000000
vt 0.125000 0.750000
vt 0.625000 0.750000
vt 0.875000 0.500000
vt 0.625000 0.500000
vt 0.375000 1.000000
vt 0.375000 0.750000
vt 0.375000 0.250000
vt 0.625000 0.000000
vt 0.375000 0.000000
vt 0.125000 0.500000
vt 0.375000 0.500000
vt 0.625000 0.250000
vt 0.875000 0.750000
vt 0.625000 1.000000
vt 0.125000 0.750000
vt 0.625000 0.750000
vt 0.875000 0.500000
vt 0.625000 0.500000
vt 0.375000 0.750000
vt 0.625000 1.000000
vt 0.375000 0.000000
vt 0.625000 0.250000
vt 0.625000 0.000000
vt 0.125000 0.500000
vt 0.375000 0.500000
vt 0.375000 0.250000
vt 0.875000 0.750000
vt 0.375000 1.000000
vt 0.125000 0.750000
vt 0.625000 0.500000
vt 0.875000 0.750000
vt 0.875000 0.500000
vt 0.375000 1.000000
vt 0.625000 0.750000
vt 0.375000 0.750000
vt 0.375000 0.250000
vt 0.625000 0.000000
vt 0.375000 0.000000
vt 0.125000 0.750000
vt 0.375000 0.500000
vt 0.125000 0.500000
vt 0.625000 0.250000
vt 0.625000 1.000000
vn -0.5644 0.8255 -0.0050
vn -0.0333 -0.0163 -0.9993
vn -0.9109 -0.4006 0.0988
vn 0.5644 -0.8255 0.0050
vn 0.9109 0.4006 -0.0988
vn 0.9109 0.4006 -0.0987
vn 0.0333 0.0163 0.9993
vn -0.0000 -1.0000 -0.0000
vn 0.0000 -0.0000 1.0000
vn -1.0000 0.0000 0.0000
vn 0.0000 1.0000 0.0000
vn 1.0000 -0.0000 0.0000
vn 0.0000 0.0000 -1.0000
vn 0.0015 -0.9993 -0.0361
vn -0.0018 -0.0095 1.0000
vn -1.0000 -0.0009 -0.0044
vn -0.0015 0.9993 0.0361
vn 1.0000 0.0009 0.0044
vn 0.0018 0.0095 -1.0000
vn 0.0008 0.0019 1.0000
vn -0.0035 1.0000 -0.0073
vn -1.0000 -0.0022 0.0019
vn -0.0008 -0.0019 -1.0000
vn 1.0000 0.0022 -0.0019
vn 0.0035 -1.0000 0.0073
vn -0.5792 -0.8152 -0.0050
vn 0.0347 -0.0143 -0.9993
vn 0.9049 -0.4139 0.0990
vn 0.5792 0.8152 0.0050
vn -0.9049 0.4139 -0.0990
vn -0.0347 0.0143 0.9993
usemtl Material.013
s 1
f 1/1/1 2/2/1 3/3/1
f 4/4/2 5/5/2 1/1/2
f 6/6/3 5/7/3 7/8/3
f 6/9/4 4/4/4 8/10/4
f 4/4/5 3/3/6 8/10/5
f 8/10/7 2/11/7 6/6/7
f 1/1/1 5/12/1 2/2/1
f 4/4/2 7/13/2 5/5/2
f 6/6/3 2/11/3 5/7/3
f 6/9/4 7/14/4 4/4/4
f 4/4/5 1/1/6 3/3/6
f 8/10/7 3/3/7 2/11/7
usemtl Material.001
f 9/15/8 10/16/8 11/17/8
f 12/18/9 9/15/9 13/19/9
f 12/20/10 10/21/10 14/22/10
f 15/23/11 13/19/11 16/24/11
f 13/19/12 11/17/12 16/24/12
f 16/24/13 10/21/13 15/25/13
f 9/15/8 14/26/8 10/16/8
f 12/18/9 14/27/9 9/15/9
f 12/20/10 15/25/10 10/21/10
f 15/23/11 12/28/11 13/19/11
f 13/19/12 9/15/12 11/17/12
f 16/24/13 11/17/13 10/21/13
usemtl Material.002
f 17/29/14 18/30/14 19/31/14
f 20/32/15 21/33/15 22/34/15
f 23/35/16 18/36/16 20/37/16
f 23/38/17 22/34/17 24/39/17
f 22/34/18 17/29/18 24/39/18
f 23/35/19 17/29/19 19/40/19
f 17/29/14 21/33/14 18/30/14
f 20/32/15 18/41/15 21/33/15
f 23/35/16 19/40/16 18/36/16
f 23/38/17 20/42/17 22/34/17
f 22/34/18 21/33/18 17/29/18
f 23/35/19 24/39/19 17/29/19
usemtl Material.003
f 25/43/8 26/44/8 27/45/8
f 28/46/9 25/43/9 29/47/9
f 30/48/10 31/49/10 28/50/10
f 28/51/11 32/52/11 30/53/11
f 29/47/12 27/45/12 32/52/12
f 32/52/13 26/54/13 30/48/13
f 25/43/8 31/55/8 26/44/8
f 28/46/9 31/56/9 25/43/9
f 30/48/10 26/54/10 31/49/10
f 28/51/11 29/47/11 32/52/11
f 29/47/12 25/43/12 27/45/12
f 32/52/13 27/45/13 26/54/13
usemtl Material.006
f 33/57/8 34/58/8 35/59/8
f 36/60/9 33/57/9 37/61/9
f 38/62/10 39/63/10 36/64/10
f 36/65/11 40/66/11 38/67/11
f 37/61/12 35/59/12 40/66/12
f 40/66/13 34/68/13 38/62/13
f 33/57/8 39/69/8 34/58/8
f 36/60/9 39/70/9 33/57/9
f 38/62/10 34/68/10 39/63/10
f 36/65/11 37/61/11 40/66/11
f 37/61/12 33/57/12 35/59/12
f 40/66/13 35/59/13 34/68/13
usemtl Material.005
f 41/71/8 42/72/8 43/73/8
f 44/74/9 41/71/9 45/75/9
f 44/76/10 42/77/10 46/78/10
f 47/79/11 45/75/11 48/80/11
f 45/75/12 43/73/12 48/80/12
f 48/80/13 42/77/13 47/81/13
f 41/71/8 46/82/8 42/72/8
f 44/74/9 46/83/9 41/71/9
f 44/76/10 47/81/10 42/77/10
f 47/79/11 44/84/11 45/75/11
f 45/75/12 41/71/12 43/73/12
f 48/80/13 43/73/13 42/77/13
usemtl Material.004
f 49/85/8 50/86/8 51/87/8
f 52/88/9 49/85/9 53/89/9
f 54/90/10 55/91/10 52/92/10
f 54/93/11 53/89/11 56/94/11
f 53/89/12 51/87/12 56/94/12
f 56/94/13 50/95/13 54/90/13
f 49/85/8 55/96/8 50/86/8
f 52/88/9 55/97/9 49/85/9
f 54/90/10 50/95/10 55/91/10
f 54/93/11 52/98/11 53/89/11
f 53/89/12 49/85/12 51/87/12
f 56/94/13 51/87/13 50/95/13
usemtl Material.007
f 57/99/20 58/100/20 59/101/20
f 60/102/21 61/103/21 62/104/21
f 60/105/22 59/106/22 58/107/22
f 63/108/23 62/104/23 64/109/23
f 62/104/24 57/99/24 64/109/24
f 63/110/25 57/99/25 59/106/25
f 57/99/20 61/103/20 58/100/20
f 60/102/21 58/111/21 61/103/21
f 60/105/22 63/110/22 59/106/22
f 63/108/23 60/112/23 62/104/23
f 62/104/24 61/103/24 57/99/24
f 63/110/25 64/109/25 57/99/25
usemtl Material.008
f 65/113/1 66/114/1 67/115/1
f 68/116/2 66/117/2 69/118/2
f 70/119/3 66/120/3 71/121/3
f 70/122/4 68/116/4 72/123/4
f 68/116/5 65/113/6 72/123/5
f 72/123/7 67/124/7 70/119/7
f 65/113/1 69/118/1 66/114/1
f 68/116/2 71/125/2 66/117/2
f 70/119/3 67/124/3 66/120/3
f 70/122/4 71/126/4 68/116/4
f 68/116/5 69/118/6 65/113/6
f 72/123/7 65/113/7 67/124/7
usemtl Material.010
f 73/127/20 74/128/20 75/129/20
f 76/130/21 74/131/21 77/132/21
f 78/133/22 74/134/22 79/135/22
f 78/136/23 76/130/23 80/137/23
f 76/130/24 73/127/24 80/137/24
f 78/133/25 73/127/25 75/138/25
f 73/127/20 77/132/20 74/128/20
f 76/130/21 79/139/21 74/131/21
f 78/133/22 75/138/22 74/134/22
f 78/136/23 79/140/23 76/130/23
f 76/130/24 77/132/24 73/127/24
f 78/133/25 80/137/25 73/127/25
usemtl Material.009
f 81/141/20 82/142/20 83/143/20
f 84/144/21 81/141/21 85/145/21
f 86/146/22 87/147/22 84/148/22
f 86/149/23 85/145/23 88/150/23
f 88/150/24 81/141/24 83/143/24
f 88/150/25 82/151/25 86/146/25
f 81/141/20 87/152/20 82/142/20
f 84/144/21 87/153/21 81/141/21
f 86/146/22 82/151/22 87/147/22
f 86/149/23 84/154/23 85/145/23
f 88/150/24 85/145/24 81/141/24
f 88/150/25 83/143/25 82/151/25
usemtl Material.011
f 89/155/26 90/156/26 91/157/26
f 92/158/27 93/159/27 89/155/27
f 94/160/28 90/161/28 93/162/28
f 95/163/29 92/158/29 96/164/29
f 92/158/30 91/157/30 96/164/30
f 96/164/31 90/161/31 95/165/31
f 89/155/26 93/166/26 90/156/26
f 92/158/27 94/167/27 93/159/27
f 94/160/28 95/165/28 90/161/28
f 95/163/29 94/168/29 92/158/29
f 92/158/30 89/155/30 91/157/30
f 96/164/31 91/157/31 90/161/31
usemtl Material.012
f 97/169/26 98/170/26 99/171/26
f 100/172/27 101/173/27 102/174/27
f 103/175/28 98/176/28 100/177/28
f 100/178/29 104/179/29 103/180/29
f 102/174/30 97/169/30 104/179/30
f 104/179/31 99/181/31 103/175/31
f 97/169/26 101/173/26 98/170/26
f 100/172/27 98/182/27 101/173/27
f 103/175/28 99/181/28 98/176/28
f 100/178/29 102/174/29 104/179/29
f 102/174/30 101/173/30 97/169/30
f 104/179/31 97/169/31 99/181/31
