# Blender v2.91.0 OBJ File: 'project.blend'
# www.blender.org
mtllib table.mtl
o Cylinder
v -0.000000 1.545277 -0.135515
v 0.000000 1.612175 -0.986394
v 0.026438 1.545277 -0.132911
v 0.192436 1.612175 -0.967441
v 0.051859 1.545277 -0.125200
v 0.377477 1.612175 -0.911309
v 0.075288 1.545277 -0.112677
v 0.548011 1.612175 -0.820157
v 0.095824 1.545277 -0.095824
v 0.697486 1.612175 -0.697486
v 0.112677 1.545277 -0.075288
v 0.820157 1.612175 -0.548011
v 0.125200 1.545277 -0.051859
v 0.911309 1.612175 -0.377477
v 0.132911 1.545277 -0.026438
v 0.967441 1.612175 -0.192436
v 0.135515 1.545277 -0.000000
v 0.986394 1.612175 -0.000000
v 0.132911 1.545277 0.026438
v 0.967441 1.612175 0.192436
v 0.125200 1.545277 0.051859
v 0.911309 1.612175 0.377476
v 0.112677 1.545277 0.075288
v 0.820157 1.612175 0.548011
v 0.095824 1.545277 0.095823
v 0.697486 1.612175 0.697486
v 0.075288 1.545277 0.112677
v 0.548011 1.612175 0.820157
v 0.051859 1.545277 0.125199
v 0.377476 1.612175 0.911309
v 0.026438 1.545277 0.132911
v 0.192436 1.612175 0.967441
v -0.000000 1.545277 0.135515
v -0.000000 1.612175 0.986394
v -0.026438 1.545277 0.132911
v -0.192436 1.612175 0.967441
v -0.051859 1.545277 0.125199
v -0.377477 1.612175 0.911309
v -0.075288 1.545277 0.112676
v -0.548012 1.612175 0.820156
v -0.095824 1.545277 0.095823
v -0.697486 1.612175 0.697485
v -0.112677 1.545277 0.075288
v -0.820157 1.612175 0.548011
v -0.125200 1.545277 0.051859
v -0.911310 1.612175 0.377476
v -0.132911 1.545277 0.026437
v -0.967441 1.612175 0.192435
v -0.135515 1.545277 -0.000000
v -0.986394 1.612175 -0.000001
v -0.132911 1.545277 -0.026438
v -0.967440 1.612175 -0.192437
v -0.125199 1.545277 -0.051860
v -0.911309 1.612175 -0.377478
v -0.112677 1.545277 -0.075288
v -0.820156 1.612175 -0.548012
v -0.095823 1.545277 -0.095824
v -0.697485 1.612175 -0.697487
v -0.075288 1.545277 -0.112677
v -0.548010 1.612175 -0.820157
v -0.051859 1.545277 -0.125200
v -0.377475 1.612175 -0.911310
v -0.026437 1.545277 -0.132911
v -0.192434 1.612175 -0.967441
v 0.000000 1.545276 -0.986394
v 0.192436 1.545276 -0.967441
v 0.377477 1.545276 -0.911309
v 0.548011 1.545276 -0.820157
v 0.697486 1.545276 -0.697486
v 0.820157 1.545276 -0.548011
v 0.911309 1.545276 -0.377477
v 0.967441 1.545276 -0.192436
v 0.986394 1.545276 -0.000000
v 0.967441 1.545276 0.192436
v 0.911309 1.545276 0.377476
v 0.820157 1.545276 0.548011
v 0.697486 1.545276 0.697486
v 0.548011 1.545276 0.820157
v 0.377476 1.545276 0.911309
v 0.192436 1.545276 0.967441
v -0.000000 1.545276 0.986394
v -0.192436 1.545276 0.967441
v -0.377477 1.545276 0.911309
v -0.548012 1.545276 0.820156
v -0.697486 1.545276 0.697485
v -0.820157 1.545276 0.548011
v -0.911310 1.545276 0.377476
v -0.967441 1.545276 0.192435
v -0.986394 1.545276 -0.000001
v -0.967440 1.545276 -0.192437
v -0.911309 1.545276 -0.377478
v -0.820156 1.545276 -0.548012
v -0.697485 1.545276 -0.697487
v -0.548010 1.545276 -0.820157
v -0.377475 1.545276 -0.911310
v -0.192434 1.545276 -0.967441
v -0.000000 0.006113 -0.135515
v 0.026438 0.006113 -0.132911
v 0.051859 0.006113 -0.125200
v 0.075288 0.006113 -0.112677
v 0.095824 0.006113 -0.095824
v 0.112677 0.006113 -0.075288
v 0.125200 0.006113 -0.051859
v 0.132911 0.006113 -0.026438
v 0.135515 0.006113 -0.000000
v 0.132911 0.006113 0.026438
v 0.125200 0.006113 0.051859
v 0.112677 0.006113 0.075288
v 0.095824 0.006113 0.095823
v 0.075288 0.006113 0.112677
v 0.051859 0.006113 0.125199
v 0.026438 0.006113 0.132911
v -0.000000 0.006113 0.135515
v -0.026438 0.006113 0.132911
v -0.051859 0.006113 0.125199
v -0.075288 0.006113 0.112676
v -0.095824 0.006113 0.095823
v -0.112677 0.006113 0.075288
v -0.125200 0.006113 0.051859
v -0.132911 0.006113 0.026437
v -0.135515 0.006113 -0.000000
v -0.132911 0.006113 -0.026438
v -0.125199 0.006113 -0.051860
v -0.112677 0.006113 -0.075288
v -0.095823 0.006113 -0.095824
v -0.075288 0.006113 -0.112677
v -0.051859 0.006113 -0.125200
v -0.026437 0.006113 -0.132911
v -0.051859 0.119388 -0.125200
v -0.075288 0.119388 -0.112677
v -0.026438 0.119388 0.132911
v -0.000000 0.119388 0.135515
v 0.095824 0.119388 -0.095824
v 0.075288 0.119388 -0.112677
v -0.026437 0.119388 -0.132911
v -0.051859 0.119388 0.125199
v 0.112677 0.119388 -0.075288
v -0.000000 0.119388 -0.135515
v -0.075288 0.119388 0.112676
v 0.125200 0.119388 -0.051859
v -0.095824 0.119388 0.095823
v 0.132911 0.119388 -0.026438
v -0.112677 0.119388 0.075288
v 0.135515 0.119388 -0.000000
v -0.125200 0.119388 0.051859
v 0.132911 0.119388 0.026438
v -0.132911 0.119388 0.026437
v 0.125200 0.119388 0.051859
v -0.135515 0.119388 -0.000000
v 0.112677 0.119388 0.075288
v -0.132911 0.119388 -0.026438
v 0.095824 0.119388 0.095823
v -0.125199 0.119388 -0.051860
v 0.075288 0.119388 0.112677
v -0.112677 0.119388 -0.075288
v 0.051859 0.119388 0.125199
v 0.026438 0.119388 -0.132911
v -0.095823 0.119388 -0.095824
v 0.026438 0.119388 0.132911
v 0.051859 0.119388 -0.125200
v 0.057684 0.006113 -0.721183
v 0.084122 0.006113 -0.718579
v 0.718579 0.006113 -0.084122
v 0.721183 0.006113 -0.057684
v 0.084121 0.006113 0.718579
v 0.057683 0.006113 0.721183
v -0.718579 0.006113 0.084120
v -0.721183 0.006113 0.057682
v 0.057684 0.119388 -0.721183
v 0.718579 0.119388 -0.084122
v 0.721183 0.119388 -0.057684
v -0.718579 0.119388 0.084120
v -0.721183 0.119388 0.057682
v 0.084122 0.119388 -0.718579
v 0.084121 0.119388 0.718579
v 0.057683 0.119388 0.721183
vt 1.000000 0.500000
vt 1.000000 1.000000
vt 0.968750 1.000000
vt 0.968750 0.500000
vt 0.937500 1.000000
vt 0.937500 0.500000
vt 0.906250 1.000000
vt 0.906250 0.500000
vt 0.875000 1.000000
vt 0.875000 0.500000
vt 0.843750 1.000000
vt 0.843750 0.500000
vt 0.812500 1.000000
vt 0.812500 0.500000
vt 0.781250 1.000000
vt 0.781250 0.500000
vt 0.750000 1.000000
vt 0.750000 0.500000
vt 0.718750 1.000000
vt 0.718750 0.500000
vt 0.687500 1.000000
vt 0.687500 0.500000
vt 0.656250 1.000000
vt 0.656250 0.500000
vt 0.625000 1.000000
vt 0.625000 0.500000
vt 0.593750 1.000000
vt 0.593750 0.500000
vt 0.562500 1.000000
vt 0.562500 0.500000
vt 0.531250 1.000000
vt 0.531250 0.500000
vt 0.500000 1.000000
vt 0.500000 0.500000
vt 0.468750 1.000000
vt 0.468750 0.500000
vt 0.437500 1.000000
vt 0.437500 0.500000
vt 0.406250 1.000000
vt 0.406250 0.500000
vt 0.375000 1.000000
vt 0.375000 0.500000
vt 0.343750 1.000000
vt 0.343750 0.500000
vt 0.312500 1.000000
vt 0.312500 0.500000
vt 0.281250 1.000000
vt 0.281250 0.500000
vt 0.250000 1.000000
vt 0.250000 0.500000
vt 0.218750 1.000000
vt 0.218750 0.500000
vt 0.187500 1.000000
vt 0.187500 0.500000
vt 0.156250 1.000000
vt 0.156250 0.500000
vt 0.125000 1.000000
vt 0.125000 0.500000
vt 0.093750 1.000000
vt 0.093750 0.500000
vt 0.062500 1.000000
vt 0.062500 0.500000
vt 0.296822 0.485388
vt 0.250000 0.490000
vt 0.203179 0.485389
vt 0.158156 0.471731
vt 0.116663 0.449553
vt 0.080295 0.419706
vt 0.050447 0.383337
vt 0.028269 0.341844
vt 0.014612 0.296822
vt 0.010000 0.250000
vt 0.014611 0.203179
vt 0.028269 0.158156
vt 0.050447 0.116663
vt 0.080294 0.080294
vt 0.116663 0.050447
vt 0.158156 0.028269
vt 0.203178 0.014612
vt 0.250000 0.010000
vt 0.296822 0.014612
vt 0.341844 0.028269
vt 0.383337 0.050447
vt 0.419706 0.080294
vt 0.449553 0.116663
vt 0.471731 0.158156
vt 0.485388 0.203178
vt 0.490000 0.250000
vt 0.485388 0.296822
vt 0.471731 0.341844
vt 0.449553 0.383337
vt 0.419706 0.419706
vt 0.383337 0.449553
vt 0.341844 0.471731
vt 0.031250 1.000000
vt 0.031250 0.500000
vt 0.000000 1.000000
vt 0.000000 0.500000
vt 0.681481 0.352545
vt 0.702804 0.363942
vt 0.702804 0.363942
vt 0.681482 0.352545
vt 0.774060 0.370960
vt 0.750000 0.373330
vt 0.750000 0.490000
vt 0.796822 0.485388
vt 0.797196 0.363942
vt 0.841844 0.471731
vt 0.818519 0.352545
vt 0.883337 0.449553
vt 0.837207 0.337207
vt 0.919706 0.419706
vt 0.852545 0.318518
vt 0.949553 0.383337
vt 0.863942 0.297196
vt 0.971731 0.341844
vt 0.870960 0.274061
vt 0.985388 0.296822
vt 0.873330 0.250000
vt 0.990000 0.250000
vt 0.870960 0.225939
vt 0.985388 0.203178
vt 0.863942 0.202804
vt 0.971731 0.158156
vt 0.852545 0.181481
vt 0.949553 0.116663
vt 0.837207 0.162792
vt 0.919706 0.080294
vt 0.818518 0.147455
vt 0.883337 0.050447
vt 0.797196 0.136058
vt 0.841844 0.028269
vt 0.774060 0.129040
vt 0.796822 0.014612
vt 0.750000 0.126670
vt 0.750000 0.010000
vt 0.725939 0.129040
vt 0.703178 0.014612
vt 0.702804 0.136058
vt 0.658156 0.028269
vt 0.681481 0.147455
vt 0.616663 0.050447
vt 0.662792 0.162793
vt 0.580294 0.080294
vt 0.647455 0.181482
vt 0.550447 0.116663
vt 0.636058 0.202804
vt 0.528269 0.158156
vt 0.629040 0.225940
vt 0.514611 0.203179
vt 0.626670 0.250000
vt 0.510000 0.250000
vt 0.629040 0.274061
vt 0.514612 0.296822
vt 0.636058 0.297196
vt 0.528269 0.341844
vt 0.647455 0.318519
vt 0.550447 0.383337
vt 0.662793 0.337208
vt 0.580295 0.419706
vt 0.681482 0.352545
vt 0.616663 0.449553
vt 0.702804 0.363942
vt 0.658156 0.471731
vt 0.725940 0.370960
vt 0.703179 0.485389
vt 0.750000 0.373330
vt 0.774060 0.370960
vt 0.797196 0.363942
vt 0.818519 0.352545
vt 0.837207 0.337207
vt 0.852545 0.318518
vt 0.863942 0.297196
vt 0.870960 0.274061
vt 0.873330 0.250000
vt 0.870960 0.225939
vt 0.863942 0.202804
vt 0.852545 0.181481
vt 0.837207 0.162792
vt 0.818518 0.147455
vt 0.797196 0.136058
vt 0.774060 0.129040
vt 0.750000 0.126670
vt 0.725939 0.129040
vt 0.702804 0.136058
vt 0.681481 0.147455
vt 0.662792 0.162793
vt 0.647455 0.181482
vt 0.636058 0.202804
vt 0.629040 0.225940
vt 0.626670 0.250000
vt 0.629040 0.274061
vt 0.636058 0.297196
vt 0.647455 0.318519
vt 0.662793 0.337208
vt 0.725940 0.370960
vt 0.750000 0.126670
vt 0.725939 0.129040
vt 0.818519 0.352545
vt 0.837207 0.337207
vt 0.725940 0.370960
vt 0.702804 0.136058
vt 0.852545 0.318518
vt 0.750000 0.373330
vt 0.681481 0.147455
vt 0.863942 0.297196
vt 0.662792 0.162793
vt 0.870960 0.274061
vt 0.647455 0.181482
vt 0.774060 0.129040
vt 0.750000 0.126670
vt 0.636058 0.202804
vt 0.873330 0.250000
vt 0.870960 0.225939
vt 0.629040 0.225940
vt 0.863942 0.202804
vt 0.750000 0.373330
vt 0.774060 0.370960
vt 0.852545 0.181481
vt 0.626670 0.250000
vt 0.629040 0.274061
vt 0.837207 0.162792
vt 0.636058 0.297196
vt 0.818518 0.147455
vt 0.647455 0.318519
vt 0.797196 0.136058
vt 0.870960 0.274061
vt 0.873330 0.250000
vt 0.662793 0.337208
vt 0.774060 0.129040
vt 0.774060 0.370960
vt 0.797196 0.363942
vt 0.626670 0.250000
vt 0.629040 0.225940
vt 0.870960 0.274061
vt 0.873330 0.250000
vt 0.626670 0.250000
vt 0.629040 0.225940
vt 0.750000 0.373330
vt 0.774060 0.370960
vt 0.774060 0.129040
vt 0.750000 0.126670
vn 0.0980 0.0000 -0.9952
vn 0.2903 0.0000 -0.9569
vn 0.4714 0.0000 -0.8819
vn 0.6344 0.0000 -0.7730
vn 0.7730 0.0000 -0.6344
vn 0.8819 0.0000 -0.4714
vn 0.9569 0.0000 -0.2903
vn 0.9952 0.0000 -0.0980
vn 0.9952 0.0000 0.0980
vn 0.9569 0.0000 0.2903
vn 0.8819 0.0000 0.4714
vn 0.7730 0.0000 0.6344
vn 0.6344 0.0000 0.7730
vn 0.4714 0.0000 0.8819
vn 0.2903 0.0000 0.9569
vn 0.0980 0.0000 0.9952
vn -0.0980 0.0000 0.9952
vn -0.2903 0.0000 0.9569
vn -0.4714 0.0000 0.8819
vn -0.6344 0.0000 0.7730
vn -0.7730 0.0000 0.6344
vn -0.8819 0.0000 0.4714
vn -0.9569 0.0000 0.2903
vn -0.9952 0.0000 0.0980
vn -0.9952 0.0000 -0.0980
vn -0.9569 0.0000 -0.2903
vn -0.8819 0.0000 -0.4714
vn -0.7730 0.0000 -0.6344
vn -0.6344 0.0000 -0.7730
vn -0.4714 0.0000 -0.8819
vn 0.0000 1.0000 0.0000
vn -0.2903 0.0000 -0.9569
vn -0.0980 0.0000 -0.9952
vn -0.0000 -1.0000 0.0000
usemtl Material
s off
f 65/1/1 2/2/1 4/3/1 66/4/1
f 66/4/2 4/3/2 6/5/2 67/6/2
f 67/6/3 6/5/3 8/7/3 68/8/3
f 68/8/4 8/7/4 10/9/4 69/10/4
f 69/10/5 10/9/5 12/11/5 70/12/5
f 70/12/6 12/11/6 14/13/6 71/14/6
f 71/14/7 14/13/7 16/15/7 72/16/7
f 72/16/8 16/15/8 18/17/8 73/18/8
f 73/18/9 18/17/9 20/19/9 74/20/9
f 74/20/10 20/19/10 22/21/10 75/22/10
f 75/22/11 22/21/11 24/23/11 76/24/11
f 76/24/12 24/23/12 26/25/12 77/26/12
f 77/26/13 26/25/13 28/27/13 78/28/13
f 78/28/14 28/27/14 30/29/14 79/30/14
f 79/30/15 30/29/15 32/31/15 80/32/15
f 80/32/16 32/31/16 34/33/16 81/34/16
f 81/34/17 34/33/17 36/35/17 82/36/17
f 82/36/18 36/35/18 38/37/18 83/38/18
f 83/38/19 38/37/19 40/39/19 84/40/19
f 84/40/20 40/39/20 42/41/20 85/42/20
f 85/42/21 42/41/21 44/43/21 86/44/21
f 86/44/22 44/43/22 46/45/22 87/46/22
f 87/46/23 46/45/23 48/47/23 88/48/23
f 88/48/24 48/47/24 50/49/24 89/50/24
f 89/50/25 50/49/25 52/51/25 90/52/25
f 90/52/26 52/51/26 54/53/26 91/54/26
f 91/54/27 54/53/27 56/55/27 92/56/27
f 92/56/28 56/55/28 58/57/28 93/58/28
f 93/58/29 58/57/29 60/59/29 94/60/29
f 94/60/30 60/59/30 62/61/30 95/62/30
f 4/63/31 2/64/31 64/65/31 62/66/31 60/67/31 58/68/31 56/69/31 54/70/31 52/71/31 50/72/31 48/73/31 46/74/31 44/75/31 42/76/31 40/77/31 38/78/31 36/79/31 34/80/31 32/81/31 30/82/31 28/83/31 26/84/31 24/85/31 22/86/31 20/87/31 18/88/31 16/89/31 14/90/31 12/91/31 10/92/31 8/93/31 6/94/31
f 95/62/32 62/61/32 64/95/32 96/96/32
f 96/96/33 64/95/33 2/97/33 65/98/33
f 130/99/30 129/100/30 127/101/30 126/102/30
f 3/103/34 1/104/34 65/105/34 66/106/34
f 5/107/34 3/103/34 66/106/34 67/108/34
f 7/109/34 5/107/34 67/108/34 68/110/34
f 9/111/34 7/109/34 68/110/34 69/112/34
f 11/113/34 9/111/34 69/112/34 70/114/34
f 13/115/34 11/113/34 70/114/34 71/116/34
f 15/117/34 13/115/34 71/116/34 72/118/34
f 17/119/34 15/117/34 72/118/34 73/120/34
f 19/121/34 17/119/34 73/120/34 74/122/34
f 21/123/34 19/121/34 74/122/34 75/124/34
f 23/125/34 21/123/34 75/124/34 76/126/34
f 25/127/34 23/125/34 76/126/34 77/128/34
f 27/129/34 25/127/34 77/128/34 78/130/34
f 29/131/34 27/129/34 78/130/34 79/132/34
f 31/133/34 29/131/34 79/132/34 80/134/34
f 33/135/34 31/133/34 80/134/34 81/136/34
f 35/137/34 33/135/34 81/136/34 82/138/34
f 37/139/34 35/137/34 82/138/34 83/140/34
f 39/141/34 37/139/34 83/140/34 84/142/34
f 41/143/34 39/141/34 84/142/34 85/144/34
f 43/145/34 41/143/34 85/144/34 86/146/34
f 45/147/34 43/145/34 86/146/34 87/148/34
f 47/149/34 45/147/34 87/148/34 88/150/34
f 49/151/34 47/149/34 88/150/34 89/152/34
f 51/153/34 49/151/34 89/152/34 90/154/34
f 53/155/34 51/153/34 90/154/34 91/156/34
f 55/157/34 53/155/34 91/156/34 92/158/34
f 57/159/34 55/157/34 92/158/34 93/160/34
f 59/161/34 57/159/34 93/160/34 94/162/34
f 61/163/34 59/161/34 94/162/34 95/164/34
f 63/165/34 61/163/34 95/164/34 96/166/34
f 1/104/34 63/165/34 96/166/34 65/105/34
f 97/167/34 98/168/34 99/169/34 100/170/34 101/171/34 102/172/34 103/173/34 104/174/34 105/175/34 106/176/34 107/177/34 108/178/34 109/179/34 110/180/34 111/181/34 112/182/34 113/183/34 114/184/34 115/185/34 116/186/34 117/187/34 118/188/34 119/189/34 120/190/34 121/191/34 122/192/34 123/193/34 124/194/34 125/195/34 126/102/34 127/101/34 128/196/34
f 132/197/17 131/198/17 114/184/17 113/183/17
f 134/199/4 133/200/4 101/171/4 100/170/4
f 129/100/32 135/201/32 128/196/32 127/101/32
f 131/198/18 136/202/18 115/185/18 114/184/18
f 133/200/5 137/203/5 102/172/5 101/171/5
f 135/201/33 138/204/33 97/167/33 128/196/33
f 136/202/19 139/205/19 116/186/19 115/185/19
f 137/203/6 140/206/6 103/173/6 102/172/6
f 139/205/20 141/207/20 117/187/20 116/186/20
f 140/206/7 142/208/7 104/174/7 103/173/7
f 141/207/21 143/209/21 118/188/21 117/187/21
f 113/183/34 112/182/34 165/210/34 166/211/34
f 143/209/22 145/212/22 119/189/22 118/188/22
f 144/213/9 146/214/9 106/176/9 105/175/9
f 145/212/23 147/215/23 120/190/23 119/189/23
f 146/214/10 148/216/10 107/177/10 106/176/10
f 98/168/34 97/167/34 161/217/34 162/218/34
f 148/216/11 150/219/11 108/178/11 107/177/11
f 149/220/25 151/221/25 122/192/25 121/191/25
f 150/219/12 152/222/12 109/179/12 108/178/12
f 151/221/26 153/223/26 123/193/26 122/192/26
f 152/222/13 154/224/13 110/180/13 109/179/13
f 153/223/27 155/225/27 124/194/27 123/193/27
f 154/224/14 156/226/14 111/181/14 110/180/14
f 105/175/34 104/174/34 163/227/34 164/228/34
f 155/225/28 158/229/28 125/195/28 124/194/28
f 156/226/15 159/230/15 112/182/15 111/181/15
f 157/231/2 160/232/2 99/169/2 98/168/2
f 158/229/29 130/99/29 126/102/29 125/195/29
f 147/215/31 149/220/31 173/233/31 172/234/31
f 160/232/3 134/199/3 100/170/3 99/169/3
f 5/107/3 7/109/3 134/199/3 160/232/3
f 31/133/16 33/135/16 132/197/16 159/230/16
f 57/159/29 59/161/29 130/99/29 158/229/29
f 3/103/2 5/107/2 160/232/2 157/231/2
f 29/131/15 31/133/15 159/230/15 156/226/15
f 55/157/28 57/159/28 158/229/28 155/225/28
f 1/104/1 3/103/1 157/231/1 138/204/1
f 27/129/14 29/131/14 156/226/14 154/224/14
f 53/155/27 55/157/27 155/225/27 153/223/27
f 25/127/13 27/129/13 154/224/13 152/222/13
f 51/153/26 53/155/26 153/223/26 151/221/26
f 23/125/12 25/127/12 152/222/12 150/219/12
f 49/151/25 51/153/25 151/221/25 149/220/25
f 21/123/11 23/125/11 150/219/11 148/216/11
f 47/149/24 49/151/24 149/220/24 147/215/24
f 19/121/10 21/123/10 148/216/10 146/214/10
f 45/147/23 47/149/23 147/215/23 145/212/23
f 17/119/9 19/121/9 146/214/9 144/213/9
f 43/145/22 45/147/22 145/212/22 143/209/22
f 15/117/8 17/119/8 144/213/8 142/208/8
f 41/143/21 43/145/21 143/209/21 141/207/21
f 13/115/7 15/117/7 142/208/7 140/206/7
f 39/141/20 41/143/20 141/207/20 139/205/20
f 11/113/6 13/115/6 140/206/6 137/203/6
f 37/139/19 39/141/19 139/205/19 136/202/19
f 63/165/33 1/104/33 138/204/33 135/201/33
f 9/111/5 11/113/5 137/203/5 133/200/5
f 35/137/18 37/139/18 136/202/18 131/198/18
f 61/163/32 63/165/32 135/201/32 129/100/32
f 7/109/4 9/111/4 133/200/4 134/199/4
f 33/135/17 35/137/17 131/198/17 132/197/17
f 59/161/30 61/163/30 129/100/30 130/99/30
f 170/235/8 171/236/8 164/228/8 163/227/8
f 172/234/24 173/233/24 168/237/24 167/238/24
f 169/239/1 174/240/1 162/218/1 161/217/1
f 175/241/16 176/242/16 166/211/16 165/210/16
f 149/220/33 121/191/33 168/237/33 173/233/33
f 132/197/24 113/183/24 166/211/24 176/242/24
f 104/174/33 142/208/33 170/235/33 163/227/33
f 121/191/34 120/190/34 167/238/34 168/237/34
f 157/231/9 98/168/9 162/218/9 174/240/9
f 159/230/31 132/197/31 176/242/31 175/241/31
f 144/213/16 105/175/16 164/228/16 171/236/16
f 112/182/8 159/230/8 175/241/8 165/210/8
f 142/208/31 144/213/31 171/236/31 170/235/31
f 97/167/25 138/204/25 169/239/25 161/217/25
f 120/190/16 147/215/16 172/234/16 167/238/16
f 138/204/31 157/231/31 174/240/31 169/239/31
