# Blender v2.91.0 OBJ File: ''
# www.blender.org
mtllib wall.mtl
o Cube_Cube.001
v -8.680321 7.219245 0.095023
v -8.680321 -0.404738 -0.095022
v -8.680321 -0.404738 0.095022
v -8.680321 7.219245 -0.095021
v 8.680321 -0.404738 -0.095022
v 8.680321 7.219245 -0.095021
v 8.680321 -0.404738 0.095022
v 8.680321 7.219245 0.095023
vt 2.103826 0.894552
vt 1.299807 0.096149
vt 2.101018 0.093341
vt 1.302615 0.897360
vt 0.498596 0.098957
vt 0.501404 0.900168
vt -0.302615 0.101765
vt -0.299807 0.902977
vt -1.103826 0.104573
vt -0.305423 -0.699446
vt 0.495788 -0.702254
vt 0.504212 1.701380
vt -1.101018 0.905785
vt -0.296999 1.704188
vn -1.0000 0.0000 0.0000
vn 0.0000 0.0000 -1.0000
vn 1.0000 0.0000 0.0000
vn 0.0000 -0.0000 1.0000
vn 0.0000 -1.0000 -0.0000
vn 0.0000 1.0000 0.0000
usemtl Material.001
s 1
f 1/1/1 2/2/1 3/3/1
f 4/4/2 5/5/2 2/2/2
f 6/6/3 7/7/3 5/5/3
f 8/8/4 3/9/4 7/7/4
f 5/5/5 3/10/5 2/11/5
f 4/12/6 8/8/6 6/6/6
f 1/1/1 4/4/1 2/2/1
f 4/4/2 6/6/2 5/5/2
f 6/6/3 8/8/3 7/7/3
f 8/8/4 1/13/4 3/9/4
f 5/5/5 7/7/5 3/10/5
f 4/12/6 1/14/6 8/8/6
