# Blender v2.91.0 OBJ File: ''
# www.blender.org
mtllib wallwindow.mtl
o Cube_Cube.003
v 3.787066 -5.598310 0.244179
v 6.587119 -0.420361 0.244181
v 3.787066 7.498928 0.244181
v 6.587119 -5.598310 0.244179
v 6.587119 -0.420361 -0.183039
v 6.587119 7.523338 0.244183
v 3.787066 7.523338 -0.183037
v 3.787066 7.523338 0.244183
v 3.787066 -5.598310 -0.183041
v 6.587119 -5.598310 -0.183041
v 3.787066 -0.420361 -0.183039
v 3.787066 -5.598310 -0.183429
v 6.587119 7.523338 -0.183037
v 3.787066 7.498928 -0.183427
vt 0.000033 0.000033
vt 0.106722 0.394618
vt 0.000033 0.998107
vt 0.000013 0.000013
vt 0.016292 0.394615
vt 0.000013 0.394615
vt 0.494254 1.320151
vt 2.138813 1.598525
vt 0.492392 1.587033
vt 0.486201 0.059283
vt 0.561696 0.341686
vt 0.485534 0.340965
vt 0.507609 -0.593153
vt 2.152167 -0.314779
vt 0.505746 -0.326270
vt 0.000013 0.000013
vt 0.016337 0.999987
vt 0.000013 0.999987
vt 0.560674 0.773826
vt 0.484512 0.773106
vt 0.016292 0.999987
vt 0.000013 0.999987
vt 0.233118 0.495077
vt 0.227372 1.318288
vt 0.106722 0.000033
vt 0.016292 0.000013
vt 2.140676 1.331642
vt 0.562363 0.060003
vt 2.154030 -0.581661
vt 0.016337 0.000013
vt 0.106722 0.999967
vn -0.0000 -0.0000 1.0000
vn 1.0000 0.0000 0.0000
vn 0.0000 1.0000 0.0000
vn 0.0000 0.0000 -1.0000
vn 0.0000 -1.0000 0.0000
vn -1.0000 0.0000 0.0000
vn 0.0000 -0.0001 1.0000
usemtl Material.013
s 1
f 1/1/1 2/2/1 3/3/1
f 4/4/2 5/5/2 2/6/2
f 6/7/3 7/8/3 8/9/3
f 10/10/4 11/11/4 5/12/4
f 1/13/5 10/14/5 4/15/5
f 3/16/6 12/17/6 1/18/6
f 5/12/4 7/19/4 13/20/4
f 2/6/2 13/21/2 6/22/2
f 3/23/1 6/7/1 8/24/7
f 1/1/1 4/25/1 2/2/1
f 4/4/2 10/26/2 5/5/2
f 6/7/3 13/27/3 7/8/3
f 10/10/4 9/28/4 11/11/4
f 1/13/5 9/29/5 10/14/5
f 3/16/6 14/30/6 12/17/6
f 5/12/4 11/11/4 7/19/4
f 2/6/2 5/5/2 13/21/2
f 3/3/1 2/2/1 6/31/1
