# Blender v2.91.0 OBJ File: ''
# www.blender.org
mtllib warehousedoor.mtl
o Cube.001
v -4.509093 7.728872 0.148863
v 4.509093 7.728872 0.148863
v 4.509093 7.728872 -0.148861
v 4.509093 -0.403458 0.148862
v -4.509093 -0.403458 0.148862
v -4.509093 -0.403458 -0.148862
v 3.814783 0.222649 0.148862
v -3.814783 0.222649 0.148862
v 3.814783 7.102764 0.013856
v -3.814783 7.102764 0.013856
v -3.814783 7.102764 0.070199
v 3.814783 0.222649 0.013855
v 3.814783 7.102764 0.070199
v -3.814783 0.222649 0.013855
v -3.814783 0.222649 0.070198
v -1.149360 4.233713 -0.020888
v -3.787371 0.247368 -0.020889
v -3.787371 7.078046 -0.020888
v 1.149360 4.233713 -0.020888
v 1.149360 6.306631 -0.020888
v 3.787371 7.078046 -0.020888
v -1.149360 6.306631 -0.020888
v 3.787371 0.247368 -0.020889
v 3.787371 0.247368 -0.148862
v -3.787371 0.247368 -0.148862
v -3.787371 0.247368 -0.020889
v -4.509093 7.728872 -0.148861
v -4.509093 -0.403459 -0.148862
v -4.509093 -0.403459 0.148862
v 4.509093 7.728872 0.148863
v 4.509093 -0.403459 0.148862
v 4.509093 -0.403459 -0.148862
v -3.814783 0.222649 0.148862
v 3.814783 0.222649 0.148862
v 3.814783 0.222649 0.013855
v -3.787371 7.078046 -0.148861
v 3.787371 7.078046 -0.148861
v 4.509093 7.728872 -0.148861
v 3.787371 0.247368 -0.020889
v 3.787371 7.078046 -0.020888
v -3.787371 7.078046 -0.020888
v 3.814783 7.102765 0.148863
v -3.814783 7.102765 0.148863
v -4.509093 7.728872 0.148863
v -3.814783 7.102765 0.013856
v 3.814783 7.102765 0.013856
v -3.814783 0.222649 0.013855
v 3.814783 0.222649 0.070198
v -4.509093 7.728872 -0.148861
v 4.509093 -0.403458 -0.148862
v 3.814783 0.222649 0.070198
v -3.814783 0.222649 0.070198
v -1.149360 4.233713 0.123996
v -3.787371 7.078046 0.123996
v -3.787371 0.247368 0.123995
v 1.149360 4.233713 0.123996
v 3.787371 7.078046 0.123996
v 1.149360 6.306631 0.123996
v -1.149360 6.306631 0.123996
v 3.787371 0.247368 0.123995
v -2.946225 3.533443 0.002687
v -2.885575 3.537318 0.002725
v -2.827255 3.548794 0.002836
v -2.773508 3.567428 0.003015
v -2.726398 3.592507 0.003258
v -2.687736 3.623065 0.003553
v -2.659007 3.657929 0.003889
v -2.641316 3.695758 0.004254
v -2.635343 3.735099 0.004634
v -2.641316 3.774440 0.005014
v -2.659007 3.812269 0.005379
v -2.687736 3.847133 0.005716
v -2.726398 3.877692 0.006011
v -2.773508 3.902770 0.006253
v -2.827255 3.921405 0.006433
v -2.885575 3.932880 0.006544
v -2.946225 3.936755 0.006581
v -3.006875 3.932880 0.006544
v -3.065194 3.921405 0.006433
v -3.118941 3.902770 0.006253
v -3.166051 3.877691 0.006011
v -3.204714 3.847133 0.005716
v -3.233442 3.812269 0.005379
v -3.251133 3.774440 0.005014
v -3.257106 3.735099 0.004634
v -3.251133 3.695758 0.004254
v -3.233442 3.657929 0.003889
v -3.204713 3.623065 0.003553
v -3.166051 3.592507 0.003258
v -3.118941 3.567428 0.003015
v -3.065194 3.548793 0.002836
v -3.006874 3.537318 0.002725
vt 0.572402 0.564488
vt 0.322402 0.564488
vt 0.322402 0.814488
vt 0.375000 0.500000
vt 0.125000 0.500000
vt 0.125000 0.750000
vt 0.212997 0.805753
vt 0.212997 0.594247
vt 0.193750 0.575000
vt 0.637997 0.885044
vt 0.637997 0.673539
vt 0.637997 0.673539
vt 0.426492 0.885044
vt 0.637997 0.885044
vt 0.426492 0.673539
vt 0.426492 0.673539
vt 0.167868 0.283695
vt 0.110632 0.340930
vt 0.320618 0.340930
vt 0.167868 0.188180
vt 0.263382 0.188180
vt 0.320618 0.130945
vt 0.263382 0.283695
vt 0.110632 0.130945
vt 0.405932 0.816900
vt 0.405932 0.895662
vt 0.405932 0.895662
vt 0.492198 0.528084
vt 0.398427 0.528084
vt 0.398427 0.621854
vt 0.492198 0.715625
vt 0.398427 0.715625
vt 0.398427 0.809396
vt 0.405647 0.629074
vt 0.405647 0.708406
vt 0.405647 0.708406
vt 0.484693 0.895662
vt 0.398427 0.903167
vt 0.484693 0.816900
vt 0.492198 0.809396
vt 0.492198 0.903167
vt 0.405932 0.816900
vt 0.484693 0.816900
vt 0.484693 0.895662
vt 0.484978 0.708406
vt 0.484979 0.629074
vt 0.492198 0.621854
vt 0.484979 0.629074
vt 0.484978 0.708406
vt 0.405647 0.629074
vt 0.405647 0.708406
vt 0.572402 0.814488
vt 0.375000 0.750000
vt 0.193750 0.825000
vt 0.426492 0.885044
vt 0.405647 0.629074
vt 0.167868 0.283695
vt 0.320618 0.340930
vt 0.110632 0.340930
vt 0.167868 0.188180
vt 0.320618 0.130945
vt 0.263382 0.188180
vt 0.263382 0.283695
vt 0.110632 0.130945
vt 0.839287 0.205986
vt 0.839287 0.088957
vt 0.851454 0.212489
vt 0.864656 0.216494
vt 0.878385 0.077097
vt 0.878385 0.217846
vt 0.892115 0.078449
vt 0.892115 0.216494
vt 0.905316 0.212489
vt 0.905316 0.082454
vt 0.917483 0.205986
vt 0.928148 0.097709
vt 0.928148 0.197234
vt 0.936900 0.108373
vt 0.936900 0.186569
vt 0.943403 0.174402
vt 0.943403 0.120540
vt 0.947407 0.161201
vt 0.947407 0.133742
vt 0.948760 0.147471
vt 0.917483 0.088957
vt 0.864656 0.078449
vt 0.851454 0.082454
vt 0.828623 0.197234
vt 0.828623 0.097709
vt 0.819871 0.186569
vt 0.819871 0.108373
vt 0.813368 0.120540
vt 0.813368 0.174403
vt 0.809363 0.133742
vt 0.809363 0.161201
vt 0.808011 0.147471
vn 0.0000 1.0000 0.0000
vn 0.0000 -1.0000 -0.0000
vn 0.0000 -0.0000 1.0000
vn 1.0000 0.0000 0.0000
vn -1.0000 0.0000 0.0000
vn 0.0000 0.0000 -1.0000
vn 0.0000 0.0097 -1.0000
usemtl Material.001
s 1
f 1/1/1 2/2/1 3/3/1
f 4/4/2 5/5/2 6/6/2
f 7/7/3 8/8/3 5/9/3
f 9/10/1 10/11/1 11/12/1
f 12/13/4 9/10/4 13/14/4
f 10/11/5 14/15/5 15/16/5
f 16/17/6 17/18/6 18/19/6
f 19/20/6 20/21/6 21/22/6
f 20/21/6 22/23/6 18/19/6
f 16/17/6 19/20/6 23/24/6
f 24/25/1 25/26/1 26/27/1
f 27/28/5 28/29/5 29/30/5
f 30/31/4 31/32/4 32/33/4
f 33/34/1 34/35/1 35/36/1
f 36/37/6 25/26/6 28/38/6
f 24/25/6 37/39/6 38/40/6
f 37/39/6 36/37/6 27/41/6
f 25/26/6 24/25/6 32/33/6
f 37/39/5 24/25/5 39/42/5
f 36/37/2 37/39/2 40/43/2
f 25/26/4 36/37/4 41/44/4
f 42/45/3 34/35/3 31/32/3
f 33/34/3 43/46/3 44/47/3
f 43/46/3 42/45/3 30/31/3
f 42/45/2 43/46/2 45/48/2
f 34/35/5 42/45/5 46/49/5
f 43/46/4 33/34/4 47/50/4
f 47/50/2 35/36/2 48/51/2
f 1/1/1 3/3/1 49/52/1
f 4/4/2 6/6/2 50/53/2
f 7/7/3 5/9/3 4/54/3
f 9/10/1 11/12/1 13/14/1
f 12/13/4 13/14/4 51/55/4
f 10/11/5 15/16/5 11/12/5
f 16/17/6 18/19/6 22/23/6
f 19/20/6 21/22/6 23/24/6
f 20/21/6 18/19/6 21/22/6
f 16/17/6 23/24/6 17/18/6
f 24/25/1 26/27/1 39/42/1
f 27/28/5 29/30/5 44/47/5
f 30/31/4 32/33/4 38/40/4
f 33/34/1 35/36/1 47/50/1
f 36/37/6 28/38/6 27/41/6
f 24/25/6 38/40/6 32/33/6
f 37/39/6 27/41/6 38/40/6
f 25/26/6 32/33/6 28/38/6
f 37/39/5 39/42/5 40/43/5
f 36/37/2 40/43/2 41/44/2
f 25/26/4 41/44/4 26/27/4
f 42/45/3 31/32/3 30/31/3
f 33/34/3 44/47/3 29/30/3
f 43/46/3 30/31/3 44/47/3
f 42/45/2 45/48/2 46/49/2
f 34/35/5 46/49/5 35/36/5
f 43/46/4 47/50/4 45/48/4
f 47/50/2 48/51/2 52/56/2
f 53/57/3 54/58/3 55/59/3
f 56/60/3 57/61/3 58/62/3
f 58/62/3 54/58/3 59/63/3
f 53/57/3 60/64/3 56/60/3
f 53/57/3 59/63/3 54/58/3
f 56/60/3 60/64/3 57/61/3
f 58/62/3 57/61/3 54/58/3
f 53/57/3 55/59/3 60/64/3
f 20/21/2 59/63/2 22/23/2
f 22/23/4 53/57/4 16/17/4
f 18/19/2 21/22/2 57/61/2
f 17/18/4 18/19/4 54/58/4
f 16/17/1 56/60/1 19/20/1
f 19/20/5 58/62/5 20/21/5
f 23/24/1 17/18/1 55/59/1
f 21/22/5 23/24/5 60/64/5
f 20/21/2 58/62/2 59/63/2
f 22/23/4 59/63/4 53/57/4
f 18/19/2 57/61/2 54/58/2
f 17/18/4 54/58/4 55/59/4
f 16/17/1 53/57/1 56/60/1
f 19/20/5 56/60/5 58/62/5
f 23/24/1 55/59/1 60/64/1
f 21/22/5 60/64/5 57/61/5
usemtl Material.002
f 90/65/7 80/66/7 91/67/7
f 92/68/7 77/69/7 61/70/7
f 61/70/7 76/71/7 62/72/7
f 62/72/7 76/71/7 63/73/7
f 63/73/7 75/74/7 64/75/7
f 76/71/7 75/74/7 63/73/7
f 64/75/7 73/76/7 65/77/7
f 65/77/7 72/78/7 66/79/7
f 66/79/7 72/78/7 67/80/7
f 67/80/7 71/81/7 68/82/7
f 72/78/7 71/81/7 67/80/7
f 68/82/7 70/83/7 69/84/7
f 70/83/7 68/82/7 71/81/7
f 72/78/7 65/77/7 73/76/7
f 73/76/7 64/75/7 74/85/7
f 74/85/7 64/75/7 75/74/7
f 76/71/7 61/70/7 77/69/7
f 77/69/7 92/68/7 78/86/7
f 78/86/7 92/68/7 79/87/7
f 79/87/7 91/67/7 80/66/7
f 92/68/7 91/67/7 79/87/7
f 80/66/7 89/88/7 81/89/7
f 81/89/7 88/90/7 82/91/7
f 82/91/7 88/90/7 83/92/7
f 83/92/7 87/93/7 84/94/7
f 88/90/7 87/93/7 83/92/7
f 84/94/7 86/95/7 85/96/7
f 86/95/7 84/94/7 87/93/7
f 88/90/7 81/89/7 89/88/7
f 89/88/7 80/66/7 90/65/7
