# Blender v2.91.0 OBJ File: ''
# www.blender.org
mtllib wdoorway.mtl
o Cube_Cube.001_Cube_Cube.006
v 11.432323 14.225048 -0.238133
v 11.432323 -0.556737 0.150251
v 11.432323 -0.556737 -0.238143
v 5.744501 -0.556737 0.150251
v 5.744501 -0.556737 -0.238143
v 5.744501 14.225048 -0.238133
v 11.432323 14.225048 0.150261
v 5.744501 14.225048 0.150261
v 5.744501 -0.556737 -0.238143
v 5.744501 -0.556737 0.150251
v 5.744501 14.225048 0.150261
v 5.744501 14.225048 -0.238133
v 5.744501 14.225048 -0.237482
v 11.432323 -0.556737 -0.237493
v 5.744501 -0.556737 -0.237493
v 11.432323 14.225048 0.151568
v 5.744501 -0.556737 0.151558
v 11.432323 -0.556737 0.151558
v 11.432323 14.225048 -0.237482
v 5.744501 14.225048 0.151568
vt 0.695188 0.658522
vt 0.366901 0.330488
vt 0.695061 0.330361
vt 0.291084 0.567064
vt -0.218601 1.076749
vt -0.218601 0.567064
vt 1.310453 0.567064
vt 0.800768 1.076749
vt 0.800768 0.567064
vt 1.254706 -0.038186
vt 0.745021 0.471498
vt 0.745021 -0.038186
vt 0.367028 0.658649
vt 0.291084 1.076749
vt 1.310453 1.076749
vt 1.254706 0.471498
vt 0.357334 0.359018
vt 0.644662 0.648973
vt 0.357641 0.649254
vt 0.669445 0.656318
vt 0.349986 0.332270
vt 0.669374 0.333114
vt 0.644356 0.358737
vt 0.350057 0.655474
vn 1.0000 0.0000 0.0000
vn 0.0000 -1.0000 0.0000
vn 0.0000 1.0000 0.0000
vn -1.0000 -0.0000 0.0000
vn 0.0000 0.0000 -1.0000
vn 0.0000 -0.0000 1.0000
usemtl Material.003
s 1
f 1/1/1 2/2/1 3/3/1
f 3/4/2 4/5/2 5/6/2
f 6/7/3 7/8/3 1/9/3
f 8/10/4 9/11/4 10/12/4
f 1/1/1 7/13/1 2/2/1
f 3/4/2 2/14/2 4/5/2
f 6/7/3 11/15/3 7/8/3
f 8/10/4 12/16/4 9/11/4
f 13/17/5 14/18/5 15/19/5
f 16/20/6 17/21/6 18/22/6
f 13/17/5 19/23/5 14/18/5
f 16/20/6 20/24/6 17/21/6
o Cube_Cube.001_Cube_Cube.001_Cube_Cube.001_Cube_Cube.003
v 13.726976 18.220890 -0.238131
v 13.726976 -0.713125 0.150251
v 13.726976 -0.713125 -0.238143
v 6.897516 -0.713125 0.150251
v 6.897516 -0.713125 -0.238143
v 6.897516 18.220890 -0.238131
v 13.726976 18.220890 0.150263
v 6.897516 18.220890 0.150263
v 6.897516 -0.713125 -0.238143
v 6.897516 -0.713125 0.150251
v 6.897516 18.220890 0.150263
v 6.897516 18.220890 -0.238131
v 6.897516 18.220890 -0.237480
v 13.726976 -0.713125 -0.237493
v 6.897516 -0.713125 -0.237493
v 13.726976 18.220890 0.151570
v 6.897516 -0.713125 0.151558
v 13.726976 -0.713125 0.151558
v 13.726976 18.220890 -0.237480
v 6.897516 18.220890 0.151570
vt 0.695188 0.658522
vt 0.366901 0.330488
vt 0.695061 0.330361
vt 0.291084 0.567064
vt -0.218601 1.076749
vt -0.218601 0.567064
vt 1.310453 0.567064
vt 0.800768 1.076749
vt 0.800768 0.567064
vt 1.254706 -0.038186
vt 0.745021 0.471498
vt 0.745021 -0.038186
vt 0.367028 0.658649
vt 0.291084 1.076749
vt 1.310453 1.076749
vt 1.254706 0.471498
vt 0.357334 0.359018
vt 0.644662 0.648973
vt 0.357641 0.649254
vt 0.669445 0.656318
vt 0.349986 0.332270
vt 0.669374 0.333114
vt 0.644356 0.358737
vt 0.350057 0.655474
vn 1.0000 0.0000 0.0000
vn 0.0000 -1.0000 0.0000
vn 0.0000 1.0000 0.0000
vn -1.0000 -0.0000 0.0000
vn 0.0000 0.0000 -1.0000
vn 0.0000 -0.0000 1.0000
usemtl Material.005
s 1
f 21/25/7 22/26/7 23/27/7
f 23/28/8 24/29/8 25/30/8
f 26/31/9 27/32/9 21/33/9
f 28/34/10 29/35/10 30/36/10
f 21/25/7 27/37/7 22/26/7
f 23/28/8 22/38/8 24/29/8
f 26/31/9 31/39/9 27/32/9
f 28/34/10 32/40/10 29/35/10
f 33/41/11 34/42/11 35/43/11
f 36/44/12 37/45/12 38/46/12
f 33/41/11 39/47/11 34/42/11
f 36/44/12 40/48/12 37/45/12
o Cube_Cube.001_Cube_Cube.002_Cube_Cube.001_Cube_Cube.004
v 32.035042 18.220890 -0.238131
v 32.035042 -0.713125 0.150251
v 32.035042 -0.713125 -0.238143
v 22.980831 -0.713125 0.150251
v 22.980831 -0.713125 -0.238143
v 22.980831 18.220890 -0.238131
v 32.035042 18.220890 0.150263
v 22.980831 18.220890 0.150263
v 22.980831 -0.713125 -0.238143
v 22.980831 -0.713125 0.150251
v 22.980831 18.220890 0.150263
v 22.980831 18.220890 -0.238131
v 22.980831 18.220890 -0.237480
v 32.035042 -0.713125 -0.237493
v 22.980831 -0.713125 -0.237493
v 32.035042 18.220890 0.151570
v 22.980831 -0.713125 0.151558
v 32.035042 -0.713125 0.151558
v 32.035042 18.220890 -0.237480
v 22.980831 18.220890 0.151570
vt 0.695188 0.658522
vt 0.366901 0.330488
vt 0.695061 0.330361
vt 0.291084 0.567064
vt -0.218601 1.076749
vt -0.218601 0.567064
vt 1.310453 0.567064
vt 0.800768 1.076749
vt 0.800768 0.567064
vt 1.254706 -0.038186
vt 0.745021 0.471498
vt 0.745021 -0.038186
vt 0.367028 0.658649
vt 0.291084 1.076749
vt 1.310453 1.076749
vt 1.254706 0.471498
vt 0.357334 0.359018
vt 0.644662 0.648973
vt 0.357641 0.649254
vt 0.669445 0.656318
vt 0.349986 0.332270
vt 0.669374 0.333114
vt 0.644356 0.358737
vt 0.350057 0.655474
vn 1.0000 0.0000 0.0000
vn 0.0000 -1.0000 -0.0000
vn 0.0000 1.0000 0.0000
vn -1.0000 0.0000 0.0000
vn 0.0000 0.0000 -1.0000
vn 0.0000 -0.0000 1.0000
usemtl Material.006
s 1
f 41/49/13 42/50/13 43/51/13
f 43/52/14 44/53/14 45/54/14
f 46/55/15 47/56/15 41/57/15
f 48/58/16 49/59/16 50/60/16
f 41/49/13 47/61/13 42/50/13
f 43/52/14 42/62/14 44/53/14
f 46/55/15 51/63/15 47/56/15
f 48/58/16 52/64/16 49/59/16
f 53/65/17 54/66/17 55/67/17
f 56/68/18 57/69/18 58/70/18
f 53/65/17 59/71/17 54/66/17
f 56/68/18 60/72/18 57/69/18
