# Blender v2.91.0 OBJ File: ''
# www.blender.org
mtllib wi1.mtl
o Cube_Cube.002
v 0.277257 -1.109606 54.001541
v 0.277257 41.475670 54.001541
v 0.277257 -1.109606 -54.001541
v 0.277257 41.475670 -54.001541
v 2.277257 -1.109606 54.001541
v 2.277257 41.475670 54.001541
v 2.277257 -1.109606 -54.001541
v 2.277257 41.475670 -54.001541
vt 1.472806 0.692795
vt 0.987814 0.200759
vt 1.476328 0.204281
vt 0.984292 0.689273
vt 0.499300 0.197236
vt 0.495778 0.685750
vt 0.010787 0.193714
vt 0.007264 0.682228
vt -0.477727 0.190192
vt 0.014309 -0.294800
vt 0.502823 -0.291277
vt 0.492256 1.174264
vt -0.481250 0.678706
vt 0.003742 1.170742
vn -1.0000 0.0000 0.0000
vn 0.0000 0.0000 -1.0000
vn 1.0000 0.0000 0.0000
vn 0.0000 0.0000 1.0000
vn 0.0000 -1.0000 0.0000
vn 0.0000 1.0000 0.0000
usemtl Material.002
s off
f 2/1/1 3/2/1 1/3/1
f 4/4/2 7/5/2 3/2/2
f 8/6/3 5/7/3 7/5/3
f 6/8/4 1/9/4 5/7/4
f 7/5/5 1/10/5 3/11/5
f 4/12/6 6/8/6 8/6/6
f 2/1/1 4/4/1 3/2/1
f 4/4/2 8/6/2 7/5/2
f 8/6/3 6/8/3 5/7/3
f 6/8/4 2/13/4 1/9/4
f 7/5/5 5/7/5 1/10/5
f 4/12/6 2/14/6 6/8/6
