# Blender v2.91.0 OBJ File: ''
# www.blender.org
mtllib wi11.mtl
o Cube_Cube.002
v 0.277257 41.475651 32.318569
v 0.277257 -1.109581 -32.318531
v 0.277257 -1.109631 32.318531
v 0.277257 41.475689 -32.318493
v 2.277257 -1.109581 -32.318531
v 2.277257 41.475689 -32.318493
v 2.277257 -1.109631 32.318531
v 2.277257 41.475651 32.318569
vt 1.665471 1.750514
vt -0.659032 -0.134641
vt 1.674355 -0.089580
vt 1.818196 0.951558
vt 0.964014 0.084910
vt 1.824410 0.091162
vt 0.918615 0.856820
vt 0.115061 0.041537
vt 0.924462 0.047416
vt 0.097404 0.939057
vt -0.756776 0.072411
vt 0.103621 0.078662
vt 0.109836 -0.781735
vt 0.970231 -0.775483
vt 0.951586 1.805703
vt 0.957798 0.945306
vt -0.667918 1.705452
vt 0.109211 0.850941
vt -0.762993 0.932807
vt 0.091188 1.799452
vn -1.0000 -0.0000 0.0000
vn 0.0000 0.0000 -1.0000
vn 1.0000 -0.0000 0.0000
vn 0.0000 -0.0000 1.0000
vn 0.0000 -1.0000 -0.0000
vn 0.0000 1.0000 0.0000
usemtl Material.001
s 1
f 1/1/1 2/2/1 3/3/1
f 4/4/2 5/5/2 2/6/2
f 6/7/3 7/8/3 5/9/3
f 8/10/4 3/11/4 7/12/4
f 5/5/5 3/13/5 2/14/5
f 4/15/6 8/10/6 6/16/6
f 1/1/1 4/17/1 2/2/1
f 4/4/2 6/16/2 5/5/2
f 6/7/3 8/18/3 7/8/3
f 8/10/4 1/19/4 3/11/4
f 5/5/5 7/12/5 3/13/5
f 4/15/6 1/20/6 8/10/6
