# Blender v2.91.0 OBJ File: ''
# www.blender.org
mtllib winwalls3.mtl
o Cube_Cube.003
v 10.024968 14.225048 -0.238137
v 10.024968 -0.556737 0.150251
v 10.024968 -0.556737 -0.238143
v 4.337145 -0.556737 0.150251
v 4.337145 -0.556737 -0.238143
v 4.337145 14.225048 -0.238137
v 10.024968 14.225048 0.150257
v 4.337145 14.225048 -0.238137
v 10.024969 -0.556737 -0.238143
v 4.337145 -0.556737 -0.238143
v 4.337145 14.225048 0.150257
v 4.337145 -0.556737 -0.238143
v 4.337145 -0.556737 0.150251
v 10.024969 14.225048 0.150257
v 4.337145 -0.556737 0.150251
v 10.024969 -0.556737 0.150251
v 4.337145 14.225048 0.150257
v 10.024969 14.225048 -0.238137
v 4.337145 14.225048 -0.238137
v 4.337145 14.225048 0.150257
v 4.337145 14.225048 -0.238137
v 10.024969 -0.556737 -0.238143
v 4.337145 -0.556737 -0.238143
v 10.024969 14.225048 0.150257
v 4.337145 -0.556737 0.150251
v 10.024969 -0.556737 0.150251
v 10.024969 14.225048 -0.238137
v 4.337145 14.225048 0.150257
v -4.359670 14.225048 -0.238137
v -4.359670 -0.556737 0.150251
v -4.359670 -0.556737 -0.238143
v -10.047493 -0.556737 0.150251
v -10.047493 -0.556737 -0.238143
v -10.047493 14.225048 -0.238137
v -4.359670 14.225048 0.150257
v -10.047493 14.225048 -0.238137
v -4.359670 -0.556737 -0.238143
v -10.047493 -0.556737 -0.238143
v -10.047493 14.225048 0.150257
v -10.047493 -0.556737 -0.238143
v -10.047493 -0.556737 0.150251
v -4.359670 14.225048 0.150257
v -10.047493 -0.556737 0.150251
v -4.359670 -0.556737 0.150251
v -10.047493 14.225048 0.150257
v -4.359670 14.225048 -0.238137
v -10.047493 14.225048 -0.238137
v -10.047493 14.225048 0.150257
v -10.047493 14.225048 -0.238137
v -4.359670 -0.556737 -0.238143
v -10.047493 -0.556737 -0.238143
v -4.359670 14.225048 0.150257
v -10.047493 -0.556737 0.150251
v -4.359670 -0.556737 0.150251
v -4.359670 14.225048 -0.238137
v -10.047493 14.225048 0.150257
vt 0.625000 0.500000
vt 0.375000 0.750000
vt 0.375000 0.500000
vt 0.125000 0.750000
vt 0.125000 0.500000
vt 0.875000 0.500000
vt 0.625000 0.750000
vt 0.025074 0.041807
vt 0.507478 0.528506
vt 0.025647 0.529033
vt 0.847656 0.203125
vt 0.597656 0.453125
vt 0.597656 0.203125
vt 0.507919 0.529510
vt 0.024634 0.042105
vt 0.506404 0.041987
vt 0.875000 0.750000
vt 0.506905 0.041280
vt 0.847656 0.453125
vt 0.026148 0.529628
vt 0.025074 0.041807
vt 0.507478 0.528506
vt 0.025647 0.529033
vt 0.507919 0.529510
vt 0.024634 0.042105
vt 0.506404 0.041987
vt 0.506905 0.041280
vt 0.026148 0.529628
vt 0.625000 0.500000
vt 0.375000 0.750000
vt 0.375000 0.500000
vt 0.125000 0.750000
vt 0.125000 0.500000
vt 0.875000 0.500000
vt 0.625000 0.750000
vt 0.025074 0.041807
vt 0.507478 0.528506
vt 0.025647 0.529033
vt 0.847656 0.203125
vt 0.597656 0.453125
vt 0.597656 0.203125
vt 0.507919 0.529510
vt 0.024634 0.042105
vt 0.506404 0.041987
vt 0.875000 0.750000
vt 0.506905 0.041280
vt 0.847656 0.453125
vt 0.026148 0.529628
vt 0.025074 0.041807
vt 0.507478 0.528506
vt 0.025647 0.529033
vt 0.507919 0.529510
vt 0.024634 0.042105
vt 0.506404 0.041987
vt 0.506905 0.041280
vt 0.026148 0.529628
vn 1.0000 0.0000 0.0000
vn 0.0000 -1.0000 0.0000
vn 0.0000 1.0000 0.0000
vn 0.0000 0.0000 -1.0000
vn -1.0000 0.0000 0.0000
vn 0.0000 -0.0000 1.0000
usemtl Material.008
s 1
f 1/1/1 2/2/1 3/3/1
f 3/3/2 4/4/2 5/5/2
f 6/6/3 7/7/3 1/1/3
f 8/8/4 9/9/4 10/10/4
f 11/11/5 12/12/5 13/13/5
f 14/14/6 15/15/6 16/16/6
f 1/1/1 7/7/1 2/2/1
f 3/3/2 2/2/2 4/4/2
f 6/6/3 17/17/3 7/7/3
f 8/8/4 18/18/4 9/9/4
f 11/11/5 19/19/5 12/12/5
f 14/14/6 20/20/6 15/15/6
usemtl Material.009
f 21/21/4 22/22/4 23/23/4
f 24/24/6 25/25/6 26/26/6
f 21/21/4 27/27/4 22/22/4
f 24/24/6 28/28/6 25/25/6
usemtl Material.011
f 29/29/1 30/30/1 31/31/1
f 31/31/2 32/32/2 33/33/2
f 34/34/3 35/35/3 29/29/3
f 36/36/4 37/37/4 38/38/4
f 39/39/5 40/40/5 41/41/5
f 42/42/6 43/43/6 44/44/6
f 29/29/1 35/35/1 30/30/1
f 31/31/2 30/30/2 32/32/2
f 34/34/3 45/45/3 35/35/3
f 36/36/4 46/46/4 37/37/4
f 39/39/5 47/47/5 40/40/5
f 42/42/6 48/48/6 43/43/6
usemtl Material.010
f 49/49/4 50/50/4 51/51/4
f 52/52/6 53/53/6 54/54/6
f 49/49/4 55/55/4 50/50/4
f 52/52/6 56/56/6 53/53/6
o Cube_Cube.001
v -4.382998 14.210437 0.155010
v -4.382998 13.113240 -0.235963
v -4.382998 13.113240 0.155010
v -4.382998 14.210437 -0.235963
v 4.336615 13.113240 -0.235963
v 4.336615 14.210437 -0.235963
v 4.336615 13.113240 0.155010
v 4.336615 14.210437 0.155010
v 4.336615 7.692009 0.155009
v 4.336615 7.692009 -0.235964
v -4.382998 7.692009 -0.235964
v -4.382998 7.692009 0.155009
vt 0.785021 0.270074
vt 0.673313 0.381782
vt 0.673313 0.270074
vt 0.785021 0.381782
vt 0.673313 0.493490
vt 0.785021 0.493490
vt 0.673313 0.605197
vt 0.785021 0.605197
vt 0.673313 0.716905
vt 0.673313 0.493490
vt 0.896729 0.493490
vt 0.785021 0.716905
vt 0.673313 0.381782
vt 0.896729 0.605197
vt 0.561605 0.605197
vt 0.561605 0.493490
vt 0.673313 0.605197
vt 0.673313 0.270074
vt 0.673313 0.716905
vn -1.0000 0.0000 0.0000
vn 0.0000 0.0000 -1.0000
vn 1.0000 0.0000 0.0000
vn 0.0000 -0.0000 1.0000
vn 0.0000 1.0000 0.0000
vn 0.0000 -1.0000 0.0000
usemtl Material.001
s off
f 57/57/7 58/58/7 59/59/7
f 60/60/8 61/61/8 58/58/8
f 62/62/9 63/63/9 61/61/9
f 64/64/10 59/65/10 63/63/10
f 63/63/9 66/66/9 61/61/9
f 60/67/11 64/64/11 62/62/11
f 57/57/7 60/60/7 58/58/7
f 60/60/8 62/62/8 61/61/8
f 62/62/9 64/64/9 63/63/9
f 64/64/10 57/68/10 59/65/10
f 61/61/8 67/69/8 58/58/8
f 60/67/11 57/70/11 64/64/11
f 66/66/12 68/71/12 67/72/12
f 66/66/12 65/73/12 68/71/12
f 59/65/10 65/73/10 63/63/10
f 58/58/7 68/74/7 59/59/7
f 63/63/9 65/73/9 66/66/9
f 61/61/8 66/66/8 67/69/8
f 59/65/10 68/75/10 65/73/10
f 58/58/7 67/69/7 68/74/7
