# Blender v2.91.0 OBJ File: ''
# www.blender.org
mtllib wood.mtl
o Cube.005
v -10.407681 2.795230 39.359711
v 10.407681 2.795230 39.359711
v 10.407681 2.795274 -18.398392
v 10.407681 -0.527386 -18.398392
v -10.407681 -0.527386 -18.398392
v -10.407681 2.795274 -18.398392
v -10.407681 -0.527430 39.359711
v 10.407681 -0.527430 39.359711
vt 0.813324 0.178491
vt 0.816933 0.538818
vt -0.182897 0.548831
vt 0.053567 0.819168
vt 0.050902 0.552988
vt -0.215279 0.555653
vt 0.550061 0.936910
vt 0.247715 0.936910
vt 0.247717 0.063090
vt 0.317083 0.550322
vt 0.314417 0.284141
vt 0.048236 0.286807
vt 0.319748 0.816503
vt 0.585929 0.813837
vt 0.583264 0.547656
vt -0.186506 0.188503
vt -0.212614 0.821834
vt 0.550061 0.063090
vn 0.0000 1.0000 0.0000
vn 0.0000 0.0000 -1.0000
vn -1.0000 0.0000 0.0000
vn 0.0000 -1.0000 -0.0000
vn 1.0000 0.0000 0.0000
vn 0.0000 0.0000 1.0000
usemtl Material.010
s 1
f 1/1/1 2/2/1 3/3/1
f 3/4/2 4/5/2 5/6/2
f 6/7/3 5/8/3 7/9/3
f 8/10/4 7/11/4 5/12/4
f 2/13/5 8/10/5 4/5/5
f 1/14/6 7/15/6 8/10/6
f 1/1/1 3/3/1 6/16/1
f 3/4/2 5/6/2 6/17/2
f 6/7/3 7/9/3 1/18/3
f 8/10/4 5/12/4 4/5/4
f 2/13/5 4/5/5 3/4/5
f 1/14/6 8/10/6 2/13/6
